ISO-10303-21;
HEADER;
/* Generated by software containing ST-Developer
 * from STEP Tools, Inc. (www.steptools.com) 
 */
/* OPTION: using custom renumber hook */

FILE_DESCRIPTION(
/* description */ ('STEP AP242 Edition 2',
'CAx-IF Rec.Pracs.---Representation and Presentation of Product Manufa
cturing Information (PMI)---4.0---2014-10-13',
'CAx-IF Rec.Pracs.---3D Tessellated Geometry---0.4---2014-09-14','2;1',
'CAx-IF Rec.Pracs.---User Defined Attributes---1.5---2016-08-15'),
/* implementation_level */ '2;1');

FILE_NAME(
/* name */ 'ShakoCam ESP32S3+Camera Case (1)',
/* time_stamp */ '2026-10-05T01:41:21Z',
/* author */ (''),
/* organization */ (''),
/* preprocessor_version */ 'ST-DEVELOPER v20',
/* originating_system */ 'ONSHAPE BY PTC INC, 1.221',
/* authorisation */ '  ');

FILE_SCHEMA (('AP242_MANAGED_MODEL_BASED_3D_ENGINEERING_MIM_LF { 1 0 10303 442 3 1 4 }'));
ENDSEC;

DATA;
#10=SHAPE_REPRESENTATION_RELATIONSHIP('','',#52,#12);
#11=SHAPE_REPRESENTATION_RELATIONSHIP('','',#53,#13);
#12=TESSELLATED_SHAPE_REPRESENTATION('',(#48),#64);
#13=TESSELLATED_SHAPE_REPRESENTATION('',(#49),#65);
#14=STYLED_ITEM('',(#18),#44);
#15=STYLED_ITEM('',(#19),#48);
#16=STYLED_ITEM('',(#20),#45);
#17=STYLED_ITEM('',(#21),#49);
#18=PRESENTATION_STYLE_ASSIGNMENT((#22));
#19=PRESENTATION_STYLE_ASSIGNMENT((#23));
#20=PRESENTATION_STYLE_ASSIGNMENT((#24));
#21=PRESENTATION_STYLE_ASSIGNMENT((#25));
#22=SURFACE_STYLE_USAGE(.BOTH.,#26);
#23=SURFACE_STYLE_USAGE(.BOTH.,#27);
#24=SURFACE_STYLE_USAGE(.BOTH.,#28);
#25=SURFACE_STYLE_USAGE(.BOTH.,#29);
#26=SURFACE_SIDE_STYLE('',(#30));
#27=SURFACE_SIDE_STYLE('',(#31));
#28=SURFACE_SIDE_STYLE('',(#32));
#29=SURFACE_SIDE_STYLE('',(#33));
#30=SURFACE_STYLE_FILL_AREA(#34);
#31=SURFACE_STYLE_FILL_AREA(#35);
#32=SURFACE_STYLE_FILL_AREA(#36);
#33=SURFACE_STYLE_FILL_AREA(#37);
#34=FILL_AREA_STYLE('',(#38));
#35=FILL_AREA_STYLE('',(#39));
#36=FILL_AREA_STYLE('',(#40));
#37=FILL_AREA_STYLE('',(#41));
#38=FILL_AREA_STYLE_COLOUR('',#42);
#39=FILL_AREA_STYLE_COLOUR('',#42);
#40=FILL_AREA_STYLE_COLOUR('',#43);
#41=FILL_AREA_STYLE_COLOUR('',#43);
#42=COLOUR_RGB('',0.647058823529412,0.647058823529412,0.647058823529412);
#43=COLOUR_RGB('',0.231372549019608,0.380392156862745,0.705882352941177);
#44=COMPLEX_TRIANGULATED_FACE('ConvergentBody',#46,730,((-1.,0.,0.),(0.,
0.,-1.),(0.,-1.,0.),(0.,-1.,0.),(-1.,0.,0.),(0.,0.,1.),(-1.,0.,0.),(0.,
0.,1.),(0.,1.,0.),(0.,-1.,0.),(-1.,0.,0.),(0.,0.,1.),(-1.,0.,0.),(0.,1.,
0.),(0.,0.,-1.),(0.,0.,-1.),(-1.,0.,0.),(0.,-1.,0.),(0.,0.,1.),(0.,1.,0.),
(0.,-1.,0.),(-1.,0.,0.),(0.,0.,1.),(0.,0.,1.),(0.,1.,0.),(-1.,0.,0.),(0.,
0.,-1.),(0.,1.,0.),(-1.,0.,0.),(-1.,0.,0.),(0.,-1.,0.),(0.,0.,1.),(0.,0.,
1.),(-1.,0.,0.),(1.55917086070248E-5,-0.706279704813719,0.707932891116908),
(-1.,0.,0.),(0.,0.,-1.),(0.,-1.,0.),(0.,-1.,0.),(-1.,0.,0.),(0.,0.,1.),
(-1.,0.,0.),(0.,0.707107097288,-0.707106465084953),(0.,0.,-1.),(0.,0.,-1.),
(-0.999997773412976,0.,0.00211025332390117),(0.,-1.,0.),(0.,0.,-1.),(0.,
1.,0.),(-1.,0.,0.),(-1.,0.,0.),(0.,0.,-1.),(0.,-1.,0.),(0.,0.,-1.),(0.,
-1.,0.),(-1.,0.,0.),(0.,-1.,0.),(0.,0.,-1.),(0.707107097287997,0.,-0.707106465084956),
(0.,0.,1.),(0.,-1.,0.),(-0.999997832251863,0.,0.0020821843277733),(-1.,
0.,0.),(0.,0.,-1.),(0.,-1.,0.),(0.,-1.,0.),(-1.,0.,0.),(0.,0.,1.),(-1.,
0.,0.),(0.,-0.707106781186547,-0.707106781186547),(0.,0.,-1.),(0.,0.,-1.),
(0.,-1.,0.),(-1.,0.,0.),(0.,0.,-1.),(0.,-0.707106781186547,-0.707106781186547),
(-1.,0.,0.),(-1.,0.,0.),(0.,0.,1.),(0.,0.707107202655056,0.707106359717787),
(0.,0.,1.),(0.,-1.,0.),(-0.99999901009284,0.,0.00140705839936786),(0.,0.,
1.),(0.,-1.,0.),(-1.,0.,0.),(-1.,0.,0.),(5.93423294341991E-6,-0.706302573836427,
0.707910074908405),(0.,-1.,0.),(0.000178667887476258,-0.706297699494796,
0.707914915626267),(-0.999997832251863,0.,0.0020821843277733),(-0.00924881603926917,
0.,0.999957228786248),(0.,0.,1.),(-0.999997832251863,0.,0.0020821843277733),
(0.,-0.706278730398859,0.707933863426645),(-1.,0.,0.),(0.,-1.,0.),(0.,-0.707106781186547,
-0.707106781186547),(-1.,0.,0.),(0.,-1.,0.),(0.309918930908754,-0.0554285143070159,
0.949145898198002),(-1.,0.,0.),(0.280541976530851,0.,0.959841757480973),
(0.193335629471961,0.724618283487575,0.661475379445222),(0.,-1.,0.),(0.335272625413203,
-0.129128868821353,0.933229876228497),(-1.,0.,0.),(0.,1.,0.),(0.,0.707107097288,
-0.707106465084953),(-1.,0.,0.),(0.193185998224472,0.723394780386602,0.662856818475479),
(-1.,0.,0.),(0.191662572111376,0.719686299391038,0.667320829077352),(-1.,
0.,0.),(0.182476743906767,0.712370125693312,0.677665877813602),(0.,1.,0.),
(-1.87651702095214E-6,-0.706298008552431,0.707914629818701),(-1.,0.,0.),
(0.,-1.,0.),(0.,-1.,0.),(0.14916565256486,0.00108254780581435,0.988811628261494),
(0.156166433893109,-0.0200146239166667,0.987527953910462),(0.105475045008432,
0.713226316049939,0.692952550305071),(-1.,0.,0.),(0.370972026802814,0.,
-0.928644041239598),(0.,-1.,0.),(-1.,0.,0.),(0.205816565394489,0.722741140789495,
-0.65976115740434),(0.324584182355425,-0.0318464694145811,-0.945320533443809),
(0.,-1.,0.),(0.306104296852546,-0.0204480431026207,-0.951778354965946),
(-1.,0.,0.),(0.205494135299244,0.720966443406604,-0.661800232577209),(-1.,
0.,0.),(0.,0.707107202655056,0.707106359717787),(0.,1.,0.),(-1.,0.,0.),
(0.203185163498004,0.717197134722559,-0.666591373541573),(-1.,0.,0.),(0.,
1.,0.),(0.180900851689313,0.704625477168958,-0.686132508180818),(0.,-1.,
0.),(0.167361188062748,-0.00122596025257987,-0.98589488778048),(0.,-1.,
0.),(-1.,0.,0.),(0.,-0.707106781186547,-0.707106781186547),(0.,0.707107097288,
-0.707106465084953),(0.,1.,0.),(0.707106781186547,0.707106781186547,0.),
(0.577350441253421,0.577350441253426,-0.577349925061877),(0.,0.,-1.),(0.,
1.,0.),(-0.999997773412976,0.,0.00211025332390117),(0.,0.,-1.),(0.,0.707107097288,
-0.707106465084953),(0.577350441253421,0.577350441253426,-0.577349925061877),
(0.707107097287997,0.,-0.707106465084956),(0.125115317288642,0.714348153377607,
-0.68851497670404),(0.175936845825483,-0.0248284896245478,-0.984088295014194),
(0.,0.707107202655056,0.707106359717787),(0.,0.,1.),(0.707106309736513,
0.,0.707107252635738),(0.577350498607952,0.577350498607952,0.5773498103527),
(0.,0.,1.),(-0.99999901009284,0.,0.00140705839936786),(0.,1.,0.),(0.,1.,
0.),(0.118204187442583,0.70433810629532,0.6999539999824),(0.,1.,0.),(-0.0155253251207637,
0.706003392566971,0.70803825741539),(0.,1.,0.),(0.0940156227969931,0.711641157752521,
-0.696224048178993),(0.,1.,0.),(0.0136732882142397,0.715190344764574,-0.698795973045738),
(0.,1.,0.),(-0.112117275120662,0.703945124958786,-0.701349397708644),(0.,
1.,0.),(0.,0.707107202655056,0.707106359717787),(0.577350498607952,0.577350498607952,
0.5773498103527),(0.707106781186547,0.707106781186547,0.),(-0.99999901009284,
0.,0.00140705839936786),(-0.00935374209182788,0.,0.999956252797453),(0.,
1.,0.),(-0.99999901009284,0.,0.00140705839936786),(0.,-1.,0.),(-0.00935374156328438,
0.,0.999956252802475),(0.,-1.,0.),(0.,0.,1.),(0.707107202655053,0.,0.707106359717791),
(0.,1.,0.),(0.707106236266713,0.,0.707107326105962),(0.,0.,1.),(-0.00935416553596059,
-0.00030583309624099,0.999956202067492),(-1.,0.,0.),(0.,1.,0.),(0.,-1.,
0.),(-1.,0.,0.),(-0.00935374156328438,0.,0.999956252802475),(0.,1.,0.),
(-0.00935949780144495,-3.29443611814795E-6,0.999956198935759),(0.999997771063415,
0.,-0.00211136643010605),(-0.999997773412976,0.,0.00211025332390117),(0.,
1.,0.),(0.0092500786363399,0.,-0.999957217107423),(0.0092500786363399,0.,
-0.999957217107423),(-0.999997773412976,0.,0.00211025332390117),(0.,-1.,
0.),(0.0092500786363399,0.,-0.999957217107423),(0.,1.,0.),(0.999999010122828,
0.,-0.00140703708685703),(0.,-1.,0.),(0.707107097287997,0.,-0.707106465084956),
(0.,0.,-1.),(0.,-1.,0.),(0.0092500786363399,0.,-0.999957217107423),(0.999999010122828,
0.,-0.00140703708685703),(0.,1.,0.),(0.,0.,-1.),(0.707107097287997,0.,-0.707106465084956),
(-0.999997832251863,0.,0.0020821843277733),(0.,-1.,0.),(-0.00924881603926917,
0.,0.999957228786248),(0.,-1.,0.),(0.,0.,1.),(-1.,0.,0.),(-0.00924881603926917,
0.,0.999957228786248),(0.,-1.,0.),(-1.,0.,0.),(-1.,0.,0.),(-0.00924881603926917,
0.,0.999957228786248),(-2.27496000022657E-6,-0.706297009287337,0.707915626799259),
(-1.,0.,0.),(0.,-1.,0.),(0.,0.,1.),(0.,0.,1.),(-1.,0.,0.),(0.,0.706665219834281,
0.707548066972532),(-1.,0.,0.),(0.,0.,-1.),(0.,-1.,0.),(0.,0.,-1.),(0.,
-1.,0.),(-1.,0.,0.),(-1.,0.,0.),(0.,0.706665219834281,0.707548066972532),
(0.,1.,0.),(0.,1.,0.),(-1.,0.,0.),(0.,0.,-1.),(0.,0.,-1.),(0.,1.,0.),(-1.,
0.,0.),(0.,0.,1.),(0.707106526137496,0.,0.707107036235507),(0.500393789249002,
0.706549184487291,0.500394150226969),(0.,0.706665219834281,0.707548066972532),
(0.,-1.,0.),(0.707106526137496,0.,0.707107036235507),(0.,0.,1.),(0.,0.706665219834281,
0.707548066972532),(0.500371323589359,0.706609231714844,0.500331822078899),
(0.,1.,0.),(-1.,0.,0.),(0.,0.,-1.),(0.,-1.,0.),(0.,-1.,0.),(-1.,0.,0.),
(0.,0.,-1.),(-1.,0.,0.),(0.,0.,-1.),(0.,1.,0.),(0.,0.,-1.),(-1.,0.,0.),
(0.,-1.,0.),(0.,1.,0.),(0.,0.,-1.),(0.707107097287997,0.,-0.707106465084956),
(0.,0.,-1.),(0.,1.,0.),(0.707106280692906,0.,-0.707107281679835),(0.00353831743256925,
-0.0113183084362778,-0.999929685629889),(-1.,0.,0.),(0.,-1.,0.),(-0.048948852536307,
0.716947420123966,-0.69540664838134),(-0.0809705738543815,-0.0175555566217551,
-0.996561873945312),(-0.00463891534015335,-0.00707584113955657,0.999964205827706),
(0.,-1.,0.),(-1.,0.,0.),(-0.0660522780262262,-0.00525040149443522,0.997802350093291),
(-0.043736197501939,0.706906264011304,0.705953737102972),(-1.,0.,0.),(0.,
-1.,0.),(0.,0.,1.),(0.,-1.,0.),(0.,0.,1.),(-1.,0.,0.),(-1.,0.,0.),(0.,0.,
-1.),(0.,-1.,0.),(0.,-1.,0.),(-1.,0.,0.),(0.,0.,1.),(-1.,0.,0.),(0.,-1.,
0.),(0.,0.,-1.),(0.,-1.,0.),(0.,0.,-1.),(-1.,0.,0.),(0.,0.,-1.),(-1.,0.,
0.),(0.,-1.,0.),(-1.,0.,0.),(0.,0.,1.),(0.,0.707107202655056,0.707106359717787),
(0.,0.,1.),(-1.,0.,0.),(0.,1.,0.),(0.,0.,1.),(0.,-1.,0.),(-1.,0.,0.),(0.,
0.,1.),(0.,-1.,0.),(0.707107202655053,0.,0.707106359717791),(0.,-1.,0.),
(0.,0.,1.),(-1.,0.,0.),(-1.,0.,0.),(0.,-0.707106359718277,-0.707107202654567),
(0.,-1.,0.),(-1.,0.,0.),(0.,1.,0.),(0.,0.,1.),(0.,-1.,0.),(0.,0.,-1.),(-1.,
0.,0.),(0.,0.,-1.),(-1.,0.,0.),(0.,-0.707106359718277,-0.707107202654567),
(-1.,0.,0.),(0.,-0.707106359718277,-0.707107202654567),(0.,-1.,0.),(-1.,
0.,0.),(0.,0.707107202655056,0.707106359717787),(0.,1.,0.),(0.,0.,-1.),
(0.,-1.,0.),(-1.,0.,0.),(-1.,0.,0.),(0.,0.,1.),(0.,-1.,0.),(0.,0.,1.),(0.,
-1.,0.),(-1.,0.,0.),(0.,1.,0.),(0.,0.,1.),(-1.,0.,0.),(0.,0.,-1.),(0.,1.,
0.),(-1.,0.,0.),(0.,0.,1.),(-1.,0.,0.),(0.,-1.,0.),(0.,0.,-1.),(0.,0.,-1.),
(-1.,0.,0.),(0.,-0.707106359718277,-0.707107202654567),(0.,0.707107202655056,
0.707106359717787),(0.577350498607952,0.577350498607952,0.5773498103527),
(0.707106781186547,0.707106781186547,0.),(0.,1.,0.),(0.,0.,1.),(0.707107202655053,
0.,0.707106359717791),(0.577350498607952,0.577350498607952,0.5773498103527),
(0.,0.707107202655056,0.707106359717787),(0.,0.,1.),(0.,1.,0.),(0.707106781186547,
0.707106781186547,0.),(-1.,0.,0.),(0.,-1.,0.),(-0.105408525753597,0.00361717271964635,
0.99442242470691),(0.,-1.,0.),(-0.197394534308681,-0.0012037582644486,0.980323389903097),
(-0.208178292912557,0.00358512915901965,0.978084324181165),(-0.148004498873583,
0.70558986834049,0.692991779178101),(-1.,0.,0.),(-0.0493589641278628,0.,
-0.998781103475744),(0.,-1.,0.),(0.,-1.,0.),(-0.116607064993949,-0.00385148154480855,
-0.993170659294467),(0.,-1.,0.),(-0.23289617400657,-0.00361739067834722,
-0.972494877424957),(0.,-1.,0.),(-1.,0.,0.),(0.,0.,-1.),(-1.,0.,0.),(0.,
0.,-1.),(0.,-1.,0.),(0.,-1.,0.),(0.707107097287997,0.,-0.707106465084956),
(0.,0.,-1.),(0.,0.,-1.),(0.707106280692906,0.,-0.707107281679835),(0.,0.706665562490946,
-0.707547724743253),(0.,-1.,0.),(0.,0.,-1.),(0.707106673394098,0.,-0.707106888978981),
(-1.,0.,0.),(0.,-0.707105234511053,-0.707108327858659),(0.,-1.,0.),(0.,
-0.707105234511053,-0.707108327858659),(0.,-1.,0.),(-1.,0.,0.),(-1.,0.,
0.),(0.,0.,-1.),(0.,-0.707105234511053,-0.707108327858659),(0.,0.,-1.),
(0.,-0.707105234511053,-0.707108327858659),(-1.,0.,0.),(0.,0.,-1.),(0.,
-1.,0.),(-1.,0.,0.),(0.,-1.,0.),(0.,0.,1.),(0.707107202655053,0.,0.707106359717791),
(0.,0.,-1.),(0.,-1.,0.),(-1.,0.,0.),(-1.,0.,0.),(0.,0.,1.),(0.,1.,0.),(0.707107202655053,
0.,0.707106359717791),(0.,0.,1.),(-0.14880716220538,0.705299767870911,0.693115189501443),
(0.,1.,0.),(-0.297871664136493,-0.00517452367891963,-0.954591900242849),
(-0.210147526628448,0.710895850658374,-0.671166973687362),(-0.267147645009872,
0.701090623460288,-0.661138467691711),(0.,1.,0.),(-0.379562903494497,-0.00907396808603981,
0.925121432782746),(-0.263661575784872,0.710723318488955,0.652192408734329),
(-0.345186574783963,-0.00416141256775034,0.938524859145647),(0.,-1.,0.),
(-0.308188841165716,0.703076295357656,0.640861421125572),(0.,1.,0.),(-0.351278462218486,
-0.00241893536530181,-0.936267905427242),(0.,-1.,0.),(-0.488893926192425,
-0.0103280756966172,-0.872282098741319),(-0.34113086782708,0.714104221110802,
-0.61129771176349),(-0.461114636665849,-0.00651129810038332,0.887316682391112),
(0.,-1.,0.),(0.,-1.,0.),(-0.450204679015404,-0.0032222889216331,-0.892919573000134),
(-0.575507982762211,-0.0144746215414425,0.817668054352255),(-0.401520352825369,
0.713369591436869,0.574356363488894),(-0.558286224826991,-0.00485628390623139,
-0.829634201124236),(0.,-1.,0.),(-0.405130512950221,0.705405960655732,-0.581611294721874),
(0.,1.,0.),(-0.555145843108628,-0.00361800981244021,0.831745155010961),
(0.,-1.,0.),(-0.669005824696522,-0.0145544412865801,-0.743114644426392),
(-0.46619377447584,0.717285027540797,-0.517847037170019),(-0.462047244297809,
0.703714354370174,0.539720716195116),(0.,1.,0.),(-0.65473514538079,-0.00481210372181092,
0.755843061131718),(0.,-1.,0.),(0.,-1.,0.),(-0.650150289456658,-0.00379985824740501,
-0.759796131996422),(-0.752901205534178,-0.0145077008977566,0.657973632693471),
(-0.524707433489692,0.717231897366774,0.458541726171477),(-0.740528553229503,
-0.00503538742082499,-0.672006031762619),(0.,-1.,0.),(0.,-1.,0.),(-0.737053781587459,
-0.00335836778397096,0.675825750037281),(-0.522302546640986,0.705680706671557,
-0.478763814426146),(0.,1.,0.),(-0.825770668759893,-0.0146030465231155,
-0.563816950479571),(-0.575785153758432,0.716796684614881,-0.393286116760424),
(-0.81592681130911,-0.00491919609374014,0.578134275144399),(0.,-1.,0.),
(0.,-1.,0.),(-0.813858643048103,-0.00347238473539485,-0.581052537796841),
(-0.571802333377097,0.705913331469611,0.418005334891772),(0.,1.,0.),(-0.885165672661569,
-0.0135332759474892,0.465079114112558),(-0.618130617155344,0.715808832671689,
0.324857284363992),(-0.885552299264613,-0.00216883217464275,-0.464534628885894),
(0.,-1.,0.),(0.,-1.,0.),(-0.878257971625372,-0.00350733662988463,0.478174271439034),
(-0.927239694297956,-0.0073192002873106,-0.374396819731934),(-0.65469785863992,
0.710129709298071,-0.259010636585723),(-0.603339501906463,0.710991655591507,
-0.361209511389871),(0.,1.,0.),(-0.941490645152848,0.00291923175023698,
0.33702647251464),(0.,-1.,0.),(0.,-1.,0.),(-0.943978787955459,-0.00349137793632623,
-0.329987663663733),(-0.961611907322746,-0.00507509594313102,0.274366147868644),
(-0.67587934401761,0.711131934093354,0.193593606926913),(-0.649902052240012,
0.704817874150606,0.284357322346445),(0.,1.,0.),(-1.,0.,0.),(0.,0.,-1.),
(0.,-1.,0.),(0.,-1.,0.),(0.,0.,1.),(1.,0.,0.),(0.,0.,-1.),(0.,1.,0.),(-1.,
0.,0.),(-1.,0.,0.),(0.,0.,-1.),(0.,-1.,0.),(0.,0.,-1.),(0.,-1.,0.),(-1.,
0.,0.),(0.,-1.,0.),(1.,0.,0.),(0.707107202655053,0.,0.707106359717791),
(-0.977275256447278,-0.00227421308208333,-0.211962027473705),(0.,-1.,0.),
(-0.979406208598346,-0.00376903504375491,-0.201864491513124),(-0.692467352709142,
0.706806575468887,-0.144614765172639),(-0.694025216006441,0.705807657636069,
-0.142001936499116),(0.,1.,0.),(0.,1.,0.),(-0.649673462474922,0.710433114399045,
-0.270571953685372),(-0.991886641148407,0.00827195147219408,0.126856083536317),
(0.,-1.,0.),(0.,-1.,0.),(-1.,0.,0.),(0.,0.,-1.),(-1.,0.,0.),(0.,0.,-1.),
(0.,1.,0.),(0.,0.,-1.),(0.,1.,0.),(-1.,0.,0.),(0.,1.,0.),(-1.,0.,0.),(0.,
0.,-1.),(0.,0.,-1.),(0.,1.,0.),(-1.,0.,0.),(-0.992045686790885,-0.000679680242437735,
0.125876500405636),(-0.704111221755906,0.704998547274851,0.0848789475532933),
(-0.700038367644327,0.700777715361683,0.137320346192128),(0.,1.,0.),(-0.997454019599714,
0.0033856993635547,-0.0712321263489574),(0.,-1.,0.),(-0.999820430271871,
-0.00335607694445163,-0.0186505752864046),(-0.70703863891131,0.707082907711947,
-0.0114072217502605),(-0.709245247024223,0.704808843776378,-0.0146858199687233),
(0.,1.,0.),(0.707107202655053,0.,0.707106359717791),(1.,0.,0.),(0.,-1.,
0.),(1.,0.,0.),(0.,-1.,0.),(0.707106526137496,0.,0.707107036235507),(0.707107202655053,
0.,0.707106359717791),(1.,0.,0.),(0.707106781186547,0.707106781186547,0.),
(0.577350498607952,0.577350498607952,0.5773498103527),(0.707107202655053,
0.,0.707106359717791),(0.,1.,0.),(1.,0.,0.),(0.,1.,0.),(0.500263787370718,
0.706896433245086,0.500033574583629),(0.70754722456229,0.706666063295954,
0.),(0.707106781186547,0.707106781186547,0.),(1.,0.,0.),(0.,0.,1.),(0.,
-1.,0.),(1.,0.,0.),(0.707107202655053,0.,0.707106359717791),(0.,-1.,0.),
(0.707107097287997,0.,-0.707106465084956),(1.,0.,0.),(0.,-1.,0.),(0.707107202655053,
0.,0.707106359717791),(0.,0.,1.),(0.,0.,1.),(1.,0.,0.),(0.,-1.,0.),(0.,
0.,1.),(0.707107202655053,0.,0.707106359717791),(0.,-1.,0.),(1.,0.,0.),
(0.,1.,0.),(0.707100760207518,0.,0.707112802114309),(0.707100760207518,
0.,0.707112802114309),(1.,0.,0.),(0.,1.,0.),(1.,0.,0.),(0.,1.,0.),(0.707100760207518,
0.,0.707112802114309),(0.707100760207518,0.,0.707112802114309),(1.,0.,0.),
(0.,1.,0.),(1.,0.,0.),(0.,1.,0.),(0.,0.,1.),(0.,1.,0.),(0.,0.,1.),(1.,0.,
0.),(1.,0.,0.),(0.,1.,0.),(0.,0.,1.),(0.,1.,0.),(0.,0.,1.),(0.707107202655053,
0.,0.707106359717791),(0.,1.,0.),(1.,0.,0.),(0.707107202655053,0.,0.707106359717791),
(0.707107097287997,0.,-0.707106465084956),(0.,-1.,0.),(1.,0.,0.),(1.,0.,
0.),(0.707107202655053,0.,0.707106359717791),(0.,-1.,0.),(0.,-1.,0.),(0.707107097287997,
0.,-0.707106465084956),(1.,0.,0.),(1.,0.,0.),(0.,1.,0.),(0.707106280692906,
0.,-0.707107281679835),(0.707107097287997,0.,-0.707106465084956),(1.,0.,
0.),(0.,1.,0.),(0.,-1.,0.),(0.707107202655053,0.,0.707106359717791),(1.,
0.,0.),(1.,0.,0.),(0.707107097287997,0.,-0.707106465084956),(0.,1.,0.),
(0.,1.,0.),(0.707108550131247,6.36483884755302E-6,0.707105012208777),(0.00947184277113862,
0.,-0.999955141091099),(0.577350441253421,0.577350441253426,-0.577349925061877),
(0.707106781186547,0.707106781186547,0.),(1.,0.,0.),(0.707107097287997,
0.,-0.707106465084956),(0.577350498607952,0.577350498607952,0.5773498103527),
(0.707109685306397,2.81920907387583E-6,0.70710387704915),(1.,0.,0.),(0.707106781186547,
0.707106781186547,0.),(0.707106280692906,0.,-0.707107281679835),(1.,0.,
0.),(0.,1.,0.),(0.,0.706665562490946,-0.707547724743253),(0.,0.706665562490946,
-0.707547724743253),(0.500393834775731,0.706549498776268,-0.500393660928516),
(0.707106673394098,0.,-0.707106888978981),(0.,0.,-1.),(-1.,0.,0.),(0.,-1.,
0.),(0.,0.,1.),(0.,-1.,0.),(0.,0.,1.),(1.,0.,0.),(-1.,0.,0.),(0.,0.,1.),
(0.,1.,0.),(0.,0.,1.),(0.,1.,0.),(1.,0.,0.),(0.,1.,0.),(0.999997771063415,
0.,-0.00211136643010605),(-0.0093595348152618,0.,0.999956198594739),(0.707110501949297,
0.,0.70710306040422),(0.00947184277113862,0.,-0.999955141091099),(0.,1.,
0.),(0.,1.,0.),(0.707110501949297,0.,0.70710306040422),(1.,0.,0.),(0.00947184277113862,
0.,-0.999955141091099),(0.999997771063415,0.,-0.00211136643010605),(0.,
1.,0.),(0.,1.,0.),(0.00947184277113862,0.,-0.999955141091099),(0.999997771063415,
0.,-0.00211136643010605),(0.,-1.,0.),(0.707106673394098,0.,-0.707106888978981),
(1.,0.,0.),(1.,0.,0.),(0.,1.,0.),(0.707103770716368,0.,0.70710979164391),
(0.707103770716368,0.,0.70710979164391),(1.,0.,0.),(0.,1.,0.),(1.,0.,0.),
(0.,1.,0.),(0.707103770716368,0.,0.70710979164391),(0.707103770716368,0.,
0.70710979164391),(1.,0.,0.),(0.,1.,0.),(0.,-1.,0.),(-0.00999234917047296,
0.,0.999950075232786),(1.,0.,0.),(1.,0.,0.),(0.,1.,0.),(-0.00924386111917463,
0.,0.999957274603075),(1.,0.,0.),(-0.00924391277061347,-3.82762193526516E-6,
0.999957274118269),(0.,1.,0.),(0.,1.,0.),(1.,0.,0.),(-0.00965968519763716,
-0.000198344350264844,0.999953324481399),(0.,1.,0.),(-0.0095053400583105,
-0.000292252258161999,0.999954780527096),(0.999999010122828,0.,-0.00140703708685703),
(0.,1.,0.),(0.500394018164984,0.706549329714516,-0.500393716252182),(0.,
0.706665562490946,-0.707547724743253),(0.,1.,0.),(0.70754722456229,0.706666063295954,
0.),(0.500393494419715,0.706549812541368,-0.500393558252087),(-0.00999234917047296,
0.,0.999950075232786),(0.,-1.,0.),(0.999999010122828,0.,-0.00140703708685703),
(0.500296207953902,0.70680988558125,0.500123474705563),(0.707106526137496,
0.,0.707107036235507),(1.,0.,0.),(0.70754722456229,0.706666063295954,0.),
(0.70754722456229,0.706666063295954,0.),(0.500393367360023,0.706549929674229,
-0.50039351992151),(1.,0.,0.),(0.707106673394098,0.,-0.707106888978981)),
$,(1,1,1,2,2,2,4,4,4,62,62,62,3,3,3,61,61,61,94,94,146,146,146,66,66,66,
65,65,65,6,6,6,9,9,9,5,5,5,57,57,57,15,15,15,33,33,33,47,47,47,45,45,45,
86,86,86,196,196,196,35,35,35,7,7,7,8,8,8,10,10,10,71,71,71,79,79,79,18,
18,18,27,27,27,72,72,72,11,11,11,38,38,38,36,36,36,14,14,14,12,12,12,16,
16,16,48,48,23,23,23,19,19,21,21,24,24,24,81,81,81,53,53,54,54,13,13,13,
17,17,17,49,49,20,20,26,26,26,22,22,25,25,25,52,52,84,84,84,208,208,208,
208,34,34,34,206,206,206,206,51,51,207,207,207,207,28,28,28,50,50,99,99,
55,55,56,56,103,103,209,209,209,209,30,30,30,29,29,29,203,203,203,205,205,
205,214,214,214,212,212,212,241,241,241,32,32,32,31,31,31,247,247,247,202,
202,202,246,246,246,204,204,204,37,37,37,77,77,77,78,78,78,80,80,80,40,
40,40,41,41,41,39,39,39,90,90,90,43,43,43,42,42,42,96,96,96,253,253,253,
253,252,252,252,250,250,250,44,44,44,98,98,98,46,46,46,97,97,97,201,201,
201,211,211,211,83,83,83,101,101,82,82,82,100,100,58,58,58,169,169,169,
59,59,59,60,60,60,64,64,64,136,136,136,88,88,88,68,68,68,95,95,95,89,89,
89,163,163,163,171,171,171,63,63,63,69,69,69,92,92,92,67,67,67,140,140,
140,70,70,70,93,93,93,73,73,73,177,177,177,149,149,149,149,173,173,173,
76,76,76,142,142,142,168,168,168,168,166,166,166,166,167,167,167,74,74,
74,105,105,104,104,75,75,75,102,102,107,107,178,178,178,85,85,85,198,198,
198,210,210,210,254,254,254,87,87,87,137,137,137,91,91,91,139,139,139,138,
138,138,164,164,164,141,141,141,148,148,165,165,165,106,106,108,108,113,
113,111,111,109,109,116,116,110,110,115,115,114,114,112,112,119,119,118,
118,123,123,117,117,122,122,127,127,121,121,120,120,126,126,125,125,124,
124,134,134,130,130,129,129,128,128,153,153,133,133,132,132,131,131,143,
143,160,160,144,144,145,145,152,152,161,161,135,135,135,182,182,182,151,
151,151,147,147,147,170,170,170,183,183,183,154,154,155,155,180,180,162,
162,157,157,172,172,172,150,150,150,176,176,176,174,174,174,175,175,175,
156,156,179,179,158,158,159,159,181,181,185,185,185,259,259,259,191,191,
191,191,187,187,187,257,257,257,190,190,190,219,219,219,218,218,218,197,
197,197,184,184,184,199,199,199,186,186,186,189,189,189,193,193,193,194,
194,194,188,188,188,195,195,195,192,192,192,200,200,200,223,223,223,220,
220,220,221,221,221,226,226,226,237,237,237,224,224,224,227,227,227,230,
230,230,217,217,217,232,232,232,232,233,233,233,233,234,234,234,234,255,
255,255,255,213,213,213,243,243,243,215,215,215,245,245,245,240,240,240,
216,216,216,229,229,229,238,238,238,239,239,239,258,258,258,222,222,222,
225,225,225,235,235,235,236,236,236,242,242,242,228,228,228,231,231,231,
244,244,244,249,249,249,251,251,251,256,256,256,248,248,248,261,261,261,
261,260,260,260,260),((1,5,7),(4,3,10),(7,13,1),(2,15,16),(18,10,3),(8,
6,19),(4,10,21),(23,19,6),(14,9,25),(15,27,16),(28,14,25),(9,20,25),(30,
34,36),(38,39,31),(42,36,34),(37,44,45),(37,45,48),(37,48,52),(37,52,54),
(39,38,57),(58,37,54),(32,60,33),(32,41,60),(63,67,69),(65,73,66),(75,64,
71),(64,75,72),(67,78,69),(81,79,68),(81,68,84),(85,66,73),(34,87,42),(88,
35,90),(93,33,60),(95,90,35),(69,78,96),(76,70,98),(99,102,87),(105,100,
89),(42,87,107),(110,87,102),(110,112,87),(112,114,87),(114,107,87),(88,
90,117),(105,89,120),(119,120,89),(122,103,101),(106,122,101),(124,96,127),
(126,130,97),(131,125,129),(132,127,96),(78,134,96),(137,132,96),(137,96,
139),(139,96,134),(142,97,130),(97,142,144),(98,146,76),(109,147,43),(151,
45,44),(44,154,151),(155,43,147),(123,111,104),(128,133,158),(131,129,159),
(80,160,135),(81,164,79),(79,164,161),(123,113,111),(158,133,138),(123,
115,113),(138,141,158),(116,167,108),(169,108,167),(108,169,148),(115,123,
168),(136,171,140),(141,172,158),(171,136,173),(173,136,175),(177,175,136),
(178,135,160),(181,165,83),(181,83,184),(82,187,185),(81,84,188),(190,166,
183),(192,161,164),(182,186,193),(196,185,187),(198,193,186),(199,190,183),
(182,193,200),(46,202,206),(204,208,205),(47,207,211),(214,211,207),(215,
205,208),(46,153,202),(152,217,203),(209,203,217),(45,213,48),(218,151,
154),(62,220,94),(61,223,221),(224,60,41),(91,94,220),(226,92,222),(227,
221,223),(92,226,230),(231,117,90),(232,236,238),(242,233,240),(244,238,
236),(248,238,244),(249,250,239),(241,239,250),(253,235,234),(257,233,242),
(253,234,259),(245,237,260),(256,260,237),(246,251,247),(246,262,251),(50,
263,51),(266,53,265),(50,269,263),(272,264,270),(265,274,266),(268,54,52),
(49,275,271),(270,278,272),(279,271,275),(276,48,213),(122,106,121),(143,
131,159),(123,170,168),(143,159,281),(172,284,158),(285,281,159),(283,144,
142),(286,122,121),(287,120,119),(289,122,286),(170,123,290),(172,174,284),
(176,284,174),(40,291,17),(292,39,294),(40,17,29),(40,29,225),(57,294,39),
(11,17,291),(12,293,295),(297,301,303),(299,306,300),(305,309,298),(298,
309,307),(301,312,303),(313,302,315),(318,315,302),(302,321,318),(306,322,
300),(324,21,10),(295,325,12),(327,303,330),(304,329,333),(337,327,74),
(328,338,340),(330,74,327),(329,341,333),(342,303,312),(342,330,303),(305,
345,309),(304,333,346),(26,348,29),(29,348,225),(349,24,351),(20,354,25),
(358,25,354),(24,360,351),(337,74,361),(336,363,364),(340,338,366),(314,
367,343),(313,315,371),(374,367,314),(370,331,344),(74,330,86),(332,375,
84),(376,331,370),(77,361,74),(188,84,375),(348,378,288),(379,350,381),
(228,225,348),(348,118,228),(288,118,348),(352,381,350),(289,286,380),(380,
383,289),(380,382,383),(385,361,282),(387,388,362),(389,386,281),(145,361,
77),(145,282,361),(390,362,388),(362,390,392),(363,394,364),(229,228,118),
(389,281,285),(273,395,56),(55,397,398),(396,272,401),(404,398,397),(401,
405,396),(273,56,267),(54,400,58),(347,407,310),(411,311,409),(347,413,
407),(417,408,415),(417,410,408),(419,307,309),(411,420,311),(320,243,316),
(319,422,242),(423,318,321),(252,316,243),(242,422,257),(347,335,413),(334,
416,414),(334,425,416),(426,333,341),(19,23,429),(429,355,19),(317,251,
430),(432,371,315),(251,262,430),(401,272,278),(290,384,170),(384,433,170),
(434,148,169),(285,435,389),(436,284,176),(391,389,435),(437,436,176),(438,
175,177),(439,383,382),(433,384,440),(382,441,439),(381,352,442),(440,443,
433),(444,148,434),(435,445,391),(446,392,390),(445,435,447),(448,436,437),
(449,439,441),(442,352,450),(452,445,447),(446,451,392),(449,453,439),(454,
443,440),(447,455,452),(392,451,456),(448,437,457),(458,438,177),(449,459,
453),(460,450,352),(455,447,461),(462,448,457),(463,443,454),(148,444,464),
(453,459,465),(466,460,352),(468,455,461),(456,467,392),(453,465,469),(454,
470,463),(471,468,461),(472,392,467),(474,469,465),(466,352,473),(457,475,
462),(471,461,477),(478,462,475),(476,458,177),(469,474,479),(352,480,473),
(482,471,477),(481,392,472),(470,483,463),(469,479,485),(486,483,470),(464,
484,148),(487,482,477),(481,488,392),(490,485,479),(352,489,480),(487,477,
491),(475,493,478),(492,478,493),(490,495,485),(489,352,496),(487,491,498),
(497,392,488),(485,495,499),(486,500,501),(486,501,483),(494,476,177),(503,
308,412),(505,506,306),(503,412,418),(418,339,503),(365,503,339),(364,509,
504),(513,504,509),(515,504,513),(506,505,516),(421,412,308),(518,322,306),
(518,306,506),(427,339,418),(364,394,509),(491,521,498),(521,491,523),(524,
492,525),(493,528,492),(525,492,528),(499,495,529),(530,496,352),(497,522,
392),(22,512,428),(514,21,531),(21,324,531),(512,511,428),(515,513,533),
(356,428,511),(511,534,356),(357,535,537),(354,540,358),(357,537,542),(510,
538,536),(510,544,538),(543,509,394),(499,529,546),(500,547,548),(548,501,
500),(502,148,484),(550,521,523),(551,392,522),(550,523,552),(553,524,554),
(524,525,554),(529,552,546),(547,553,554),(547,554,548),(550,552,529),(530,
352,551),(392,551,352),(527,494,177),(148,502,549),(177,526,527),(323,556,
424),(323,520,556),(558,560,422),(257,422,560),(431,562,372),(431,566,562),
(567,430,569),(262,569,430),(373,565,368),(377,369,572),(574,188,375),(564,
572,369),(532,296,517),(294,575,516),(532,326,296),(578,294,57),(578,575,
294),(506,516,581),(575,581,516),(541,539,359),(359,539,353),(545,393,539),
(393,353,539),(549,555,148),(555,526,177),(177,148,555),(519,508,585),(507,
587,584),(507,583,587),(585,557,519),(586,589,558),(558,589,560),(590,594,
568),(591,567,597),(599,593,592),(599,592,598),(563,568,594),(597,567,569),
(602,573,594),(603,595,601),(604,606,574),(605,603,601),(563,594,573),(606,
188,574),(596,608,607),(611,609,597),(610,612,606),(596,607,600),(611,597,
614),(569,614,597),(188,606,612),(399,579,59),(582,577,588),(399,617,579),
(398,404,618),(621,588,577),(622,560,589),(613,616,189),(212,624,277),(279,
275,627),(629,277,624),(631,627,275),(211,214,623),(187,632,196),(616,633,
189),(636,219,157),(217,637,209),(191,639,162),(638,190,199),(156,150,641),
(636,157,644),(645,179,163),(646,162,639),(149,180,648),(149,648,642),(280,
649,402),(403,652,653),(656,405,401),(280,628,649),(194,197,657),(660,658,
196),(632,660,196),(194,657,663),(666,664,659),(666,659,661),(665,669,195),
(671,200,193),(665,667,669),(672,676,639),(673,640,678),(674,680,675),(646,
639,676),(682,678,640),(681,638,199),(620,576,580),(619,620,580),(622,618,
684),(404,684,618),(684,560,622),(687,691,615),(614,694,688),(696,690,689),
(696,689,695),(634,615,691),(614,569,694),(630,625,691),(692,698,631),(627,
631,698),(634,691,625),(623,699,632),(623,214,699),(660,632,699),(702,705,
677),(708,703,675),(704,710,706),(677,705,647),(708,675,680),(635,643,705),
(707,711,637),(711,209,637),(643,647,705),(712,706,710),(693,650,697),(651,
694,714),(626,697,650),(716,653,652),(694,717,714),(717,694,569),(683,201,
679),(670,679,201),(669,667,680),(708,680,667),(662,701,668),(709,668,701),
(700,720,710),(721,699,214),(712,710,720),(216,210,722),(210,713,722),(255,
723,261),(723,570,261),(719,654,715),(254,258,561),(254,561,724),(655,685,
406),(654,719,728),(655,730,685),(718,571,727),(726,727,571),(686,725,559),
(686,729,725)),());
#45=COMPLEX_TRIANGULATED_FACE('ConvergentBody',#47,710,((-1.,0.,0.),(-0.707106772203844,
0.,-0.707106790169251),(0.,-1.,0.),(0.,-1.,0.),(-1.,0.,0.),(-0.70710664569173,
0.,0.70710691668134),(-1.,0.,0.),(-0.707548552939132,0.706664733260221,
0.),(-0.500394263661328,0.706548761582378,-0.500394272950086),(-0.707106772203844,
0.,-0.707106790169251),(0.,-1.,0.),(-1.,0.,0.),(-0.707106781186543,0.,0.707106781186552),
(-0.707106772203844,0.,-0.707106790169251),(0.,0.,-1.),(0.,-1.,0.),(0.,
-1.,0.),(-0.707106675819429,0.,-0.70710688655365),(-1.,0.,0.),(-1.,0.,0.),
(-0.70710664569173,0.,0.70710691668134),(-0.500296938193083,0.706808798300067,
0.500124280834516),(-0.707548552939132,0.706664733260221,0.),(-0.70710664569173,
0.,0.70710691668134),(0.,0.,1.),(0.,0.706664377424044,0.707548908330646),
(-0.500394380880848,0.706548466309764,0.500394572650617),(-0.70710664569173,
0.,0.70710691668134),(0.,-1.,0.),(0.,0.,1.),(0.,-1.,0.),(0.,0.,1.),(-0.707106781186543,
0.,0.707106781186552),(-0.707106781186543,0.,0.707106781186552),(0.,-1.,
0.),(0.,0.,1.),(0.,-1.,0.),(-1.,0.,0.),(-0.707106781186543,0.,0.707106781186552),
(-0.707548552939132,0.706664733260221,0.),(-0.500264563656082,0.706895223538144,
0.500034508098139),(0.,1.,0.),(0.,1.,0.),(-0.707548552939132,0.706664733260221,
0.),(-0.500394263080867,0.706548763356195,-0.500394271025945),(-0.500394264738616,
0.706548758290317,-0.500394276521136),(0.,1.,0.),(0.,0.706664720081115,
-0.707548566101776),(-0.707106772203844,0.,-0.707106790169251),(-0.500394265140784,
0.706548757061341,-0.500394277854263),(0.,0.706664720081115,-0.707548566101776),
(0.,0.,-1.),(-0.500371947093397,0.706608428586573,0.500332332767309),(0.,
0.706664377424044,0.707548908330646),(0.,1.,0.),(0.,1.,0.),(-0.707106833124299,
0.,0.707106729248785),(-1.,0.,0.),(0.,1.,0.),(0.,0.,1.),(-0.707106781186543,
0.,0.707106781186552),(-0.707106781186543,0.,0.707106781186552),(0.,1.,
0.),(-1.,0.,0.),(0.,0.,-1.),(0.,0.706664720081115,-0.707548566101776),(-0.707106702161214,
0.,-0.707106860211872),(0.,-1.,0.),(0.,0.,-1.),(-0.707106675819429,0.,-0.70710688655365),
(0.,-1.,0.),(0.,0.,-1.),(1.,0.,0.),(0.,0.706664720081115,-0.707548566101776),
(0.,1.,0.),(-1.,0.,0.),(-0.707106702161214,0.,-0.707106860211872),(0.,0.,
1.),(1.,0.,0.),(0.,0.706664377424044,0.707548908330646),(0.,-1.,0.),(0.,
0.,1.),(1.,0.,0.),(1.,0.,0.),(0.,-1.,0.),(0.,0.,1.),(0.,1.,0.),(-1.,0.,
0.),(-0.707106781186569,0.,-0.707106781186526),(-0.707106781186569,0.,-0.707106781186526),
(0.,1.,0.),(-1.,0.,0.),(0.,1.,0.),(1.,0.,0.),(0.,0.,1.),(0.,0.706664377424044,
0.707548908330646),(1.,0.,0.),(0.,1.,0.),(-0.99979961757502,0.,0.0200181092224707),
(0.,-1.,0.),(-0.000183355439778431,0.,0.999999983190391),(-0.99979961757502,
0.,0.0200181092224707),(0.,1.,0.),(0.000372994823087478,0.,-0.999999930437429),
(0.000372994823087478,0.,-0.999999930437429),(-0.99979961757502,0.,0.0200181092224707),
(0.,-1.,0.),(0.000372994823087478,0.,-0.999999930437429),(0.999799341897253,
0.,-0.0200318731480554),(0.,-1.,0.),(0.,-1.,0.),(-0.707108425394109,0.,
-0.707105136975118),(-0.000183355439778431,0.,0.999999983190391),(0.,-1.,
0.),(0.,0.,-1.),(-0.707106601194898,0.,-0.707106961178151),(-0.99979961757502,
0.,0.0200181092224707),(-0.000183355439778431,0.,0.999999983190391),(0.,
1.,0.),(-0.000183355439778431,0.,0.999999983190391),(0.,1.,0.),(-0.707109119648508,
1.90785125757979E-5,-0.707104442459474),(0.,1.,0.),(-0.707106601194898,
0.,-0.707106961178151),(0.,0.,-1.),(0.,1.,0.),(0.999799341897253,0.,-0.0200318731480554),
(0.000372994823087478,0.,-0.999999930437429),(-0.999949902449651,0.,0.0100096249147786),
(0.,-1.,0.),(-0.999799614818131,0.,0.0200182469141809),(0.,1.,0.),(0.,0.,
-1.),(0.,0.,-1.),(-0.999799614818131,0.,0.0200182469141809),(0.,-1.,0.),
(0.,0.,-1.),(0.,1.,0.),(-1.,0.,0.),(0.,-1.,0.),(0.,0.,-1.),(-1.,0.,0.),
(-0.999949902449651,0.,0.0100096249147786),(0.,1.,0.),(-1.,0.,0.),(0.,0.,
-1.),(0.,-1.,0.),(0.,-1.,0.),(-1.,0.,0.),(-0.707107057559104,0.,0.707106504813883),
(-1.,0.,0.),(0.,1.,0.),(0.,0.,-1.),(0.,0.,-1.),(-0.707108252140387,0.,-0.707105310229621),
(0.,-1.,0.),(0.,-1.,0.),(-0.707106686876539,0.,-0.707106875496544),(-1.,
0.,0.),(0.,-1.,0.),(1.,0.,0.),(0.,0.,-1.),(0.,-1.,0.),(-0.706908461616951,
1.28262584922799E-5,0.707305045033501),(1.,0.,0.),(-1.,0.,0.),(0.,-1.,0.),
(0.,0.,1.),(0.,-1.,0.),(0.,0.,1.),(-0.999800101034885,0.,0.0199939483502658),
(-1.,0.,0.),(0.,0.,1.),(0.,1.,0.),(0.,1.,0.),(-0.707107057559104,0.,0.707106504813883),
(-1.,0.,0.),(-1.,0.,0.),(0.,1.,0.),(-0.707106685398248,0.,-0.707106876974834),
(0.,1.,0.),(-0.707107576561743,0.,-0.707105985809959),(0.,0.,-1.),(0.,0.,
-1.),(0.,1.,0.),(1.,0.,0.),(0.,1.,0.),(1.,0.,0.),(-0.706989983553978,-8.69270325631754E-5,
0.707223554187809),(0.,1.,0.),(0.,0.,1.),(-0.999800101034885,0.,0.0199939483502658),
(0.,1.,0.),(-0.000188042654919269,-1.65757222613426E-6,0.999999982318606),
(-0.999800101034885,0.,0.0199939483502658),(-0.000190508046364311,0.,0.999999981853342),
(0.,1.,0.),(-0.999800101034885,0.,0.0199939483502658),(0.,-1.,0.),(-0.000188518884927287,
-1.52774980558783E-6,0.999999982229148),(0.,-1.,0.),(-0.707106781186543,
0.,0.707106781186552),(0.,0.,1.),(-0.000186556275446984,0.,0.999999982598299),
(0.,-1.,0.),(0.9997763269444,0.,-0.0211493754414708),(-1.,0.,0.),(0.,-1.,
0.),(-0.707106781186543,0.,0.707106781186552),(-1.,0.,0.),(-0.707106675819429,
0.,-0.70710688655365),(0.,-1.,0.),(0.,-1.,0.),(1.,0.,0.),(0.,0.,-1.),(0.,
0.,-1.),(-0.707106675819429,0.,-0.70710688655365),(0.,-1.,0.),(0.,-1.,0.),
(0.,0.,1.),(1.,0.,0.),(-0.707106781186543,0.,0.707106781186552),(0.,-1.,
0.),(0.,0.,1.),(-0.707106744124237,0.,-0.707106818248857),(0.,1.,0.),(-1.,
0.,0.),(-0.707106728159967,0.,0.707106834213117),(0.,1.,0.),(0.,0.,1.),
(-1.,0.,0.),(-0.707107045138462,0.,0.707106517234491),(-0.577350039771024,
0.577350728026557,0.577350039771023),(-0.707106359717788,0.707107202655056,
0.),(-0.707106359717788,0.707107202655056,0.),(-1.,0.,0.),(-0.577349982416493,
0.577350670671959,-0.577350154480204),(-0.707106684802347,0.,-0.707106877570735),
(0.,1.,0.),(-0.706814031397706,-0.00117979528447628,0.707398425996559),
(0.,0.,-1.),(0.,1.,0.),(0.,0.,1.),(-0.707106781186543,0.,0.707106781186552),
(0.,1.,0.),(-0.000186459640311036,0.,0.999999982616401),(0.9997763269444,
0.,-0.0211493754414708),(-0.707106359717788,0.707107202655056,0.),(0.,1.,
0.),(0.,0.707107097288,-0.707106465084953),(-0.577349982416493,0.577350670671959,
-0.577350154480204),(-0.577349982416493,0.577350670671959,-0.577350154480204),
(-0.707106611707615,0.,-0.707106950665436),(0.,0.707107097288,-0.707106465084953),
(0.,0.,-1.),(-0.707106658896679,0.,0.707106903476395),(0.,0.,1.),(0.,0.707107202655056,
0.707106359717788),(-0.577350039771024,0.577350728026557,0.577350039771023),
(0.,0.707107202655056,0.707106359717788),(-0.577350039771024,0.577350728026557,
0.577350039771023),(0.,1.,0.),(-0.707106359717788,0.707107202655056,0.),
(-1.,0.,0.),(0.,1.,0.),(-0.707106702161214,0.,-0.707106860211872),(0.,1.,
0.),(-0.707106702161214,0.,-0.707106860211872),(0.,0.,-1.),(0.,1.,0.),(-0.707106668592245,
0.,-0.707106893780832),(0.,0.,-1.),(-0.706896106187417,1.44757654825289E-5,
0.707317393287851),(0.,-1.,0.),(0.,0.,-1.),(0.,0.,-1.),(1.,0.,0.),(0.,-1.,
0.),(1.,0.,0.),(0.,-1.,0.),(0.,0.,-1.),(0.,0.,1.),(-1.,0.,0.),(0.,-1.,0.),
(0.,-1.,0.),(0.,0.,1.),(-1.,0.,0.),(0.,0.,-1.),(0.,-1.,0.),(1.,0.,0.),(0.,
0.,1.),(-1.,0.,0.),(-0.707106359717788,0.707107202655056,0.),(0.,1.,0.),
(-1.,0.,0.),(0.,0.,1.),(0.,0.,-1.),(0.,-1.,0.),(0.999799341897253,0.,-0.0200318731480554),
(0.,1.,0.),(0.,0.,-1.),(1.,0.,0.),(0.,0.,1.),(-0.707106359717788,0.707107202655056,
0.),(0.,1.,0.),(0.,0.,1.),(0.9997763269444,0.,-0.0211493754414708),(0.,
-1.,0.),(0.,0.,-1.),(0.999799341897253,0.,-0.0200318731480554),(0.,1.,0.),
(0.,1.,0.),(0.,0.,1.),(0.9997763269444,0.,-0.0211493754414708),(0.,0.707107097288,
-0.707106465084953),(1.,0.,0.),(0.,0.,-1.),(0.,0.707107202655056,0.707106359717788),
(0.,0.,1.),(1.,0.,0.),(0.,1.,0.),(0.70768850321298,0.706191426841914,0.0216944941207122),
(0.,1.,0.),(0.698967413565438,0.703306275736215,0.1296334728521),(0.,1.,
0.),(0.650624584533122,0.703934509587544,0.284892710002987),(0.,1.,0.),
(0.567885604367862,0.704219468370357,0.426123081655899),(0.,1.,0.),(0.447713844767219,
0.704394424855517,0.550800151993643),(0.,1.,0.),(0.330615680388381,0.704541917724857,
0.627944231639967),(0.,1.,0.),(1.,0.,0.),(0.,0.707107097288,-0.707106465084953),
(0.,1.,0.),(0.7062723307377,0.704345270408952,-0.071254016636795),(0.,1.,
0.),(0.681451985111558,0.70179384086128,-0.207626098833186),(0.,1.,0.),
(0.614238934939554,0.705238871030282,-0.354046134835921),(0.,1.,0.),(0.522510918370996,
0.706441099110679,-0.477413147777053),(0.,1.,0.),(0.409434815997877,0.701265380940909,
-0.583600888401129),(0.,1.,0.),(0.,0.707107202655056,0.707106359717788),
(1.,0.,0.),(1.,0.,0.),(0.,0.,-1.),(0.,1.,0.),(0.,1.,0.),(1.,0.,0.),(0.,
0.,-1.),(-1.,0.,0.),(0.,-1.,0.),(-0.707106781186543,0.,0.707106781186552),
(0.,-1.,0.),(1.,0.,0.),(0.,0.,-1.),(0.,0.,-1.),(0.,-1.,0.),(1.,0.,0.),(-0.707106781186543,
0.,0.707106781186552),(0.,-1.,0.),(0.,0.,1.),(-1.,0.,0.),(-0.707106781186543,
0.,0.707106781186552),(-0.577350039771024,0.577350728026557,0.577350039771023),
(-0.707106359717788,0.707107202655056,0.),(-0.577350039771024,0.577350728026557,
0.577350039771023),(-0.707106359717788,0.707107202655056,0.),(0.,0.707107202655056,
0.707106359717788),(0.,1.,0.),(-0.707106781186543,0.,0.707106781186552),
(0.,0.,1.),(0.,0.707107202655056,0.707106359717788),(-0.577350039771024,
0.577350728026557,0.577350039771023),(0.706315272739278,0.707809455629674,
0.0111584056416512),(0.999944524454524,0.00141661523710527,0.0104374908232316),
(0.687668201809232,0.704430897220532,-0.175754246780937),(0.966328143380227,
-0.000538064546362715,-0.257312319561009),(0.704640364043971,0.70278486699494,
-0.0978539119447221),(0.991906917815468,0.00147114030886329,-0.12695866309949),
(0.671096322053431,0.71063579581877,0.211249833674211),(0.953197274871727,
-0.00890916305211626,0.302217772460232),(0.699428046324957,0.707962887652234,
0.0979232236048465),(0.989706054142308,-0.000792144399913408,0.143112888662459),
(1.,0.,0.),(0.,-1.,0.),(0.,0.,-1.),(1.,0.,0.),(0.,0.,1.),(0.,-1.,0.),(0.,
0.,1.),(0.,-1.,0.),(1.,0.,0.),(0.,0.,1.),(0.,-1.,0.),(1.,0.,0.),(0.,0.,
-1.),(0.,-1.,0.),(1.,0.,0.),(0.,-1.,0.),(1.,0.,0.),(0.,0.,-1.),(1.,0.,0.),
(0.,1.,0.),(0.,0.,1.),(0.,0.,1.),(1.,0.,0.),(0.,-1.,0.),(1.,0.,0.),(0.,
0.,-1.),(0.,1.,0.),(0.,0.,-1.),(0.,1.,0.),(1.,0.,0.),(0.,0.,1.),(0.,1.,
0.),(1.,0.,0.),(1.,0.,0.),(0.,-1.,0.),(0.,0.,-1.),(0.,0.,-1.),(0.,-0.707106781186533,
-0.707106781186562),(1.,0.,0.),(0.,1.,0.),(0.,0.,-1.),(1.,0.,0.),(0.,-1.,
0.),(0.999898123914133,0.000914990701617739,0.0142444580455759),(0.,0.,
1.),(1.,0.,0.),(0.,-1.,0.),(0.,-1.,0.),(0.989074054909972,-0.00248693012335835,
0.147398538264486),(0.,-1.,0.),(0.964863532589389,-0.00312836472739186,
0.262732900134827),(0.,-1.,0.),(0.918248869418609,-0.00185742054988458,
0.395999449242481),(0.,-1.,0.),(0.858516289493198,-0.00262970047058714,
0.512779548490641),(0.,-1.,0.),(0.795573268684822,-0.00437817247959633,
0.605841568200702),(0.,-1.,0.),(0.716442831228438,-0.00321401278231447,
0.697638401826631),(0.,-1.,0.),(0.633262167022599,-0.00461927387912121,
0.77392356865951),(0.,-1.,0.),(0.516298467564576,0.00482551790433049,0.856395123040425),
(0.,-1.,0.),(0.339361295113364,0.00842819306067039,0.940618348184168),(0.,
-1.,0.),(0.991364014508123,0.000673710816881457,-0.131137091824067),(0.,
-1.,0.),(0.965299367516548,-0.00300457297698314,-0.261128519341298),(0.,
-1.,0.),(0.92810606834564,-0.00383061349246034,-0.372296188941372),(0.,
-1.,0.),(0.865924823147205,-0.00219523723481949,-0.500169352910556),(0.,
0.,-1.),(0.,-1.,0.),(1.,0.,0.),(0.,-1.,0.),(0.793584801170629,-0.00297030834333723,
-0.608452414424759),(0.,-1.,0.),(0.719718024399343,-0.00465094704981937,
-0.694250915769109),(0.,-1.,0.),(0.630710289158152,-0.00332063678463786,
-0.776011278604496),(0.,-1.,0.),(0.544978542923454,-0.00505035000252882,
-0.838434780837413),(0.,-1.,0.),(0.451624769027786,-0.0013339071701666,
-0.892206976375022),(0.,-1.,0.),(0.32099146328871,0.0040071521765893,-0.947073610247486),
(0.,0.,-1.),(1.,0.,0.),(0.,-1.,0.),(0.,1.,0.),(1.,0.,0.),(0.,0.,-1.),(0.639865251262222,
0.712807377104926,-0.287190012660483),(0.911540824402411,-0.00888776818791814,
-0.411113528145707),(0.,0.,1.),(0.,-1.,0.),(1.,0.,0.),(0.,-1.,0.),(1.,0.,
0.),(0.,0.,1.),(1.,0.,0.),(0.,0.,1.),(0.,0.707107202655056,0.707106359717788),
(0.,1.,0.),(1.,0.,0.),(0.,0.,1.),(0.,0.707107202655056,0.707106359717788),
(1.,0.,0.),(0.,1.,0.),(1.,0.,0.),(0.,1.,0.),(0.,0.,1.),(0.602908332858979,
0.717586610610151,0.348670329168172),(0.865484175938736,-0.0137319524427267,
0.500748015155086),(0.558181436733789,0.717782507902022,-0.416199177120386),
(0.80167581037126,-0.0138830591888722,-0.597597821057893),(0.508053118053785,
0.714461199420867,0.481068834739815),(0.726502416274232,-0.0137902878303404,
0.687025521439531),(1.,0.,0.),(0.,-1.,0.),(0.,0.,-1.),(0.,0.,-1.),(1.,0.,
0.),(0.,-1.,0.),(1.,0.,0.),(0.,-1.,0.),(0.,-0.707106781186533,-0.707106781186562),
(0.,-1.,0.),(1.,0.,0.),(0.,0.,-1.),(1.,0.,0.),(0.,-0.707106781186533,-0.707106781186562),
(0.,1.,0.),(0.,1.,0.),(0.,-0.707106981293645,-0.707106581079393),(1.,0.,
0.),(0.,-0.707107176590679,-0.707106385782193),(0.,0.,-1.),(1.,0.,0.),(1.,
0.,0.),(0.,-0.707107381142673,-0.707106181229913),(0.,-1.,0.),(1.,0.,0.),
(0.,0.,-1.),(0.,-0.707106781186533,-0.707106781186562),(0.,0.,-1.),(0.,
-0.707106781186533,-0.707106781186562),(1.,0.,0.),(0.,-1.,0.),(0.,-0.707106781186533,
-0.707106781186562),(1.,0.,0.),(1.,0.,0.),(0.,-1.,0.),(0.,0.,-1.),(0.,-1.,
0.),(0.,0.,-1.),(1.,0.,0.),(0.,-1.,0.),(0.,-0.707107228354371,-0.707106334018439),
(1.,0.,0.),(0.457672584446007,0.714966324735039,-0.528544189204066),(0.655089640474385,
-0.010521905697612,-0.755477896727384),(0.397196606928521,0.712782031302402,
0.578080125325972),(0.569010622578194,-0.00774355902041878,0.822293711934412),
(0.364250882298899,0.701546374891517,-0.612498145810291),(0.521729481227071,
-0.00269017493411135,-0.853106740904885),(0.338183397982812,0.690694807347403,
-0.639196896450642),(0.,1.,0.),(1.,0.,0.),(1.,0.,0.),(0.44130779406426,
0.0017806369571944,-0.897354032826601),(0.,1.,0.),(0.336793192628908,0.708995639001667,
0.619593035205727),(0.499252551008833,0.,0.866456513802725),(1.,0.,0.),
(0.453454082796298,-0.00181213509649237,0.891277796740029),(0.,1.,0.),(1.,
0.,0.),(1.,0.,0.),(0.281742118211448,0.704787300342635,0.651073144970261),
(0.,1.,0.),(0.464008068380421,0.,-0.885830972859874),(0.334911333627581,
0.692123476727303,-0.639374296926851),(1.,0.,0.),(1.,0.,0.),(0.,-1.,0.),
(0.,0.,-1.),(0.,0.,-1.),(1.,0.,0.),(0.,-1.,0.),(1.,0.,0.),(0.,-1.,0.),(0.,
0.,-1.),(0.,0.,-1.),(1.,0.,0.),(0.,1.,0.),(1.,0.,0.),(0.,-1.,0.),(0.,0.,
1.),(0.,1.,0.),(0.,0.,-1.),(1.,0.,0.),(0.999987446667119,0.,-0.00501063949766661),
(0.,-1.,0.),(1.,0.,0.),(0.,0.707107710043534,-0.707105852328341),(0.,0.,
-1.),(0.,0.707107710043534,-0.707105852328341),(0.,0.,-1.),(1.,0.,0.),(0.,
1.,0.),(0.,0.,-1.),(1.,0.,0.),(1.,0.,0.),(0.,1.,0.),(0.,0.,1.),(0.,0.,1.),
(1.,0.,0.),(0.,0.708080067901106,0.706132152958046),(0.,1.,0.),(1.,0.,0.),
(0.,0.,1.),(1.,0.,0.),(0.,0.,1.),(0.,0.708080067901106,0.706132152958046),
(0.,-1.,0.),(0.999799142891268,0.,-0.0200418031595306),(0.,0.,1.),(0.999987446667119,
0.,-0.00501063949766661),(0.,1.,0.),(1.,0.,0.),(0.,0.,1.),(0.,1.,0.),(0.,
1.,0.),(1.,0.,0.),(0.,0.707107710043534,-0.707105852328341),(0.,0.707107710043534,
-0.707105852328341),(0.,1.,0.),(1.,0.,0.),(1.,0.,0.),(0.,0.708080067901106,
0.706132152958046),(0.,1.,0.),(0.,1.,0.),(0.299466388207145,-0.000973039143895933,
0.954106354411809),(0.,1.,0.),(0.148459527422616,-0.000535773968916263,
0.988918339229134),(0.,1.,0.),(0.299466515982728,-0.000972760651963505,
-0.954106314590717),(0.,1.,0.),(0.148459458460943,-0.00053548849953189,
-0.988918349736494),(0.,1.,0.),(0.,0.708080067901106,0.706132152958046),
(1.,0.,0.),(0.,1.,0.),(0.,0.,1.),(0.999799142891268,0.,-0.0200418031595306),
(0.,0.,1.),(1.,0.,0.),(0.,1.,0.),(0.,-1.,0.),(1.,0.,0.),(0.,0.,1.),(1.,
0.,0.),(0.,0.,-1.),(0.,1.,0.),(0.,0.,-1.),(0.,1.,0.),(1.,0.,0.),(0.,0.,
-1.),(0.,1.,0.),(1.,0.,0.),(0.,0.,-1.),(0.,1.,0.),(1.,0.,0.),(0.158695881410442,
0.00288398921268982,0.987323300560452),(0.,-1.,0.),(0.,-1.,0.),(0.158696133369916,
0.00288435427394941,-0.987323258995685),(0.074767532374591,0.00176030216228481,
0.997199437143299),(0.,-1.,0.),(1.,0.,0.),(1.,0.,0.),(0.0747672299865598,
0.00176068952927559,-0.997199459131682),(0.,-1.,0.),(0.0698677878397848,
0.,0.997556260179031),(1.,0.,0.),(0.,1.,0.),(0.,1.,0.),(0.0698664064681204,
0.,-0.997556356927884),(1.,0.,0.),(1.,0.,0.),(0.,-1.,0.),(0.,0.,1.),(0.,
0.,1.),(1.,0.,0.),(0.,1.,0.),(0.,-1.,0.),(1.,0.,0.),(0.,0.,1.),(1.,0.,0.),
(0.,1.,0.),(0.,0.,-1.),(0.,1.,0.),(0.,0.,-1.),(1.,0.,0.),(1.,0.,0.),(0.,
1.,0.),(0.,0.,1.),(0.,0.,1.),(1.,0.,0.),(0.,1.,0.),(1.,0.,0.),(0.,1.,0.),
(0.,0.,1.),(0.,0.,1.),(1.,0.,0.),(0.,1.,0.),(0.,1.,0.),(0.,0.,1.),(1.,0.,
0.)),$,(1,1,1,2,2,2,3,3,3,3,34,34,34,7,7,7,33,33,33,4,4,4,4,10,10,10,10,
9,9,9,99,99,99,61,61,61,77,77,77,6,6,6,5,5,5,11,11,11,8,8,8,8,12,12,12,
36,36,36,100,100,100,79,79,79,72,72,72,60,60,60,238,238,238,44,44,44,44,
196,196,196,195,195,195,191,191,191,35,35,35,45,45,45,198,198,198,193,193,
193,15,15,15,14,14,14,13,13,13,155,155,155,50,50,50,64,64,64,16,16,16,51,
51,51,66,66,66,156,156,156,21,21,18,18,18,17,17,17,26,26,26,20,20,20,24,
24,19,19,19,38,38,38,23,23,23,48,48,48,37,37,37,53,53,53,52,52,52,22,22,
22,27,27,27,25,25,25,40,40,40,39,39,39,49,49,49,55,55,55,54,54,54,28,28,
28,41,41,30,30,30,29,29,29,65,65,65,189,189,189,32,32,32,31,31,31,86,86,
86,58,58,58,85,85,85,59,59,59,47,47,47,62,62,62,43,43,43,43,42,42,42,42,
57,57,57,67,67,67,190,190,190,70,70,70,70,68,68,68,68,69,69,69,69,71,71,
71,71,46,46,46,73,73,73,63,63,63,56,56,56,161,161,161,162,162,162,76,76,
76,74,74,74,163,163,163,80,80,80,78,78,78,159,159,159,165,165,165,102,102,
102,157,157,157,160,160,160,158,158,158,179,179,179,182,182,182,82,82,84,
84,104,104,112,112,141,141,151,151,183,183,183,83,83,97,97,105,105,134,
134,145,145,186,186,186,197,197,197,194,194,194,75,75,75,120,120,120,119,
119,119,98,98,98,81,81,81,81,103,103,103,103,101,101,101,101,106,106,113,
113,109,109,116,116,108,108,88,88,88,87,87,87,93,93,93,209,209,209,121,
121,121,94,94,94,89,89,89,91,91,91,90,90,90,96,96,96,95,95,95,92,92,92,
124,124,124,122,122,122,107,107,228,228,228,110,110,114,114,125,125,137,
137,138,138,144,144,146,146,152,152,200,200,111,111,115,115,117,117,135,
135,231,231,231,140,140,142,142,148,148,149,149,154,154,201,201,127,127,
127,132,132,132,126,126,211,211,211,215,215,215,225,225,225,219,219,219,
227,227,227,168,168,168,136,136,139,139,143,143,118,118,118,210,210,210,
128,128,128,214,214,214,123,123,123,133,133,133,224,224,224,130,130,130,
129,129,129,242,242,242,240,240,240,131,131,131,217,217,217,216,216,216,
147,147,150,150,153,153,185,185,185,175,175,175,180,180,180,174,174,174,
184,184,184,181,181,181,164,164,164,208,208,208,212,212,212,166,166,166,
170,170,170,199,199,199,169,169,171,171,171,232,232,232,220,220,220,167,
167,167,172,172,172,226,226,226,233,233,233,187,187,187,177,177,178,178,
178,173,173,173,234,234,234,176,176,176,202,202,206,206,203,203,207,207,
237,237,237,188,188,188,246,246,246,241,241,241,192,192,192,244,244,244,
243,243,243,247,247,247,204,204,205,205,229,229,229,230,230,230,235,235,
235,236,236,236,213,213,213,221,221,221,239,239,239,222,222,222,249,249,
249,218,218,218,223,223,223,245,245,245,250,250,250,248,248,248),((1,5,
7),(4,3,11),(2,10,14),(16,17,3),(11,3,17),(20,7,5),(24,21,6),(24,6,28),
(29,4,31),(11,35,4),(4,35,37),(37,31,4),(23,40,8),(44,8,40),(45,46,9),(49,
14,10),(50,9,46),(53,41,22),(27,53,22),(43,42,56),(43,56,47),(55,59,42),
(56,42,63),(63,42,59),(15,52,65),(16,68,17),(16,71,68),(72,15,65),(48,74,
51),(66,51,74),(25,30,78),(31,81,29),(85,29,81),(86,78,30),(26,80,54),(87,
47,56),(87,91,47),(75,47,91),(55,93,59),(96,54,80),(98,93,55),(99,102,106),
(105,104,108),(100,107,111),(111,107,114),(110,114,107),(117,102,99),(103,
119,121),(123,103,121),(103,123,126),(104,128,108),(118,101,113),(118,113,
120),(129,131,135),(137,134,133),(136,140,130),(137,141,134),(129,143,131),
(132,144,138),(142,139,145),(140,147,148),(151,145,139),(146,153,154),(157,
148,147),(147,156,157),(140,160,130),(140,148,163),(140,163,160),(143,129,
166),(169,167,130),(169,130,160),(143,166,172),(170,173,168),(138,175,152),
(179,152,175),(181,152,179),(183,154,153),(138,144,185),(175,138,187),(185,
187,138),(144,174,190),(190,193,144),(193,185,144),(170,191,173),(195,192,
171),(195,171,198),(199,169,201),(160,201,169),(197,193,190),(196,200,194),
(200,204,194),(199,201,205),(207,12,210),(208,212,213),(19,210,12),(217,
211,18),(212,218,219),(219,213,212),(209,222,13),(223,208,213),(217,18,
70),(34,13,222),(88,58,149),(88,149,159),(158,225,89),(90,89,225),(150,
57,164),(228,164,57),(56,63,229),(158,155,225),(177,231,178),(236,178,231),
(180,238,182),(176,189,232),(185,193,239),(242,239,193),(245,242,193),(246,
194,204),(235,234,248),(238,253,182),(251,252,237),(232,189,256),(261,233,
259),(263,248,234),(76,92,264),(266,268,77),(67,77,268),(227,264,92),(226,
270,265),(265,270,267),(225,155,271),(122,155,182),(122,112,155),(112,271,
155),(122,182,253),(271,112,116),(124,122,253),(186,161,165),(186,165,188),
(273,189,164),(273,164,228),(241,162,184),(241,275,162),(274,201,160),(273,
240,189),(189,240,256),(202,273,228),(244,256,240),(69,276,216),(280,219,
218),(218,278,280),(224,282,36),(224,286,282),(223,213,285),(288,276,69),
(71,289,68),(284,37,35),(230,291,203),(294,229,63),(230,296,291),(115,297,
272),(270,300,267),(301,272,297),(114,110,298),(291,303,203),(306,203,303),
(308,205,201),(125,255,309),(311,126,123),(257,243,313),(312,242,245),(315,
254,250),(317,309,255),(258,318,260),(257,313,319),(249,262,321),(321,323,
249),(325,249,323),(249,325,327),(327,329,249),(329,331,249),(333,249,331),
(250,335,315),(262,336,321),(336,262,338),(340,338,262),(262,342,340),(342,
262,344),(262,346,344),(318,347,260),(269,350,65),(65,350,72),(352,267,
300),(269,354,350),(38,287,355),(356,285,358),(38,283,287),(213,362,285),
(358,285,362),(39,357,364),(365,356,358),(33,39,364),(295,64,292),(367,
292,64),(62,61,368),(293,370,372),(304,293,372),(375,368,61),(371,369,378),
(379,322,337),(324,322,379),(381,337,339),(379,337,383),(337,381,383),(385,
326,324),(379,387,324),(387,385,324),(214,221,389),(392,389,221),(395,393,
220),(395,220,398),(399,219,280),(391,401,215),(361,215,401),(390,394,404),
(396,404,394),(390,404,402),(407,411,413),(408,415,417),(410,409,419),(408,
417,420),(422,413,411),(424,425,414),(428,417,415),(429,414,425),(412,431,
423),(419,433,410),(436,431,412),(412,438,436),(438,412,440),(442,440,412),
(442,412,444),(444,412,446),(448,446,412),(450,448,412),(450,412,452),(435,
452,412),(454,423,431),(456,423,454),(458,423,456),(460,423,458),(424,462,
425),(423,460,465),(465,467,423),(469,423,467),(471,423,469),(473,423,471),
(473,475,423),(463,423,475),(397,421,405),(419,395,398),(418,405,421),(406,
416,477),(479,402,404),(398,433,419),(480,417,428),(482,477,416),(483,339,
341),(381,339,483),(32,366,485),(365,358,486),(488,81,31),(32,485,490),
(376,60,492),(59,93,494),(496,492,60),(373,377,497),(493,497,377),(305,
374,501),(502,306,303),(499,501,374),(503,328,326),(385,503,326),(505,483,
341),(343,505,341),(380,432,437),(380,455,432),(380,437,388),(380,384,455),
(388,437,386),(384,457,455),(457,384,382),(439,386,437),(328,503,507),(328,
507,330),(457,382,484),(441,386,439),(459,457,484),(386,441,504),(484,461,
459),(359,363,403),(359,403,509),(511,512,360),(514,486,358),(510,402,516),
(479,516,402),(516,518,510),(511,520,512),(521,430,427),(428,523,524),(428,
524,480),(426,525,522),(426,527,525),(528,425,462),(443,504,441),(484,506,
461),(478,530,515),(526,530,478),(481,526,478),(533,515,530),(517,535,537),
(539,518,516),(540,517,537),(530,542,533),(544,546,534),(536,534,546),(548,
543,532),(525,549,531),(548,545,543),(527,549,525),(551,505,343),(551,343,
345),(466,461,506),(443,445,504),(445,508,504),(508,445,447),(506,468,466),
(468,506,552),(507,553,330),(553,332,330),(470,468,552),(449,508,447),(449,
554,508),(555,551,345),(345,557,555),(558,344,346),(449,451,554),(472,470,
552),(552,556,472),(561,472,556),(474,472,561),(553,563,332),(451,566,554),
(554,566,564),(563,570,332),(571,333,331),(566,451,453),(561,556,572),(557,
573,555),(474,561,476),(310,109,127),(310,299,109),(319,313,306),(307,314,
206),(502,319,306),(247,206,314),(309,317,297),(301,297,317),(279,277,290),
(279,290,575),(577,578,281),(580,399,280),(576,289,582),(582,289,71),(577,
583,578),(585,302,587),(300,586,590),(593,587,302),(302,316,593),(352,300,
590),(585,587,595),(597,599,584),(586,601,590),(602,584,599),(604,608,500),
(605,501,610),(607,606,614),(614,606,612),(320,500,608),(499,610,501),(594,
616,588),(619,593,316),(617,593,619),(587,621,595),(622,589,618),(625,595,
621),(627,596,626),(627,598,596),(320,608,630),(609,615,631),(568,625,565),
(567,633,624),(621,334,625),(565,625,569),(569,625,334),(633,635,624),(628,
624,635),(634,566,453),(574,630,560),(562,632,637),(561,638,476),(559,630,
574),(320,630,348),(559,348,630),(637,632,639),(641,639,632),(642,631,615),
(621,619,334),(644,620,623),(316,334,619),(617,619,646),(618,645,622),(84,
83,79),(79,83,97),(94,97,83),(95,82,647),(81,488,650),(652,647,82),(349,
353,653),(655,657,351),(659,72,350),(660,351,657),(592,653,353),(591,662,
654),(656,654,662),(649,494,93),(663,590,601),(453,665,634),(666,452,435),
(668,476,638),(667,463,475),(636,634,665),(668,638,640),(636,665,669),(670,
666,435),(640,673,668),(674,463,667),(675,636,669),(635,677,628),(640,679,
673),(641,678,639),(579,681,400),(579,581,681),(400,681,685),(400,685,434),
(513,519,487),(489,487,519),(682,582,687),(687,582,71),(683,689,684),(518,
539,488),(650,488,539),(547,550,690),(611,690,550),(529,611,550),(692,694,
546),(536,546,694),(696,700,495),(697,494,703),(705,699,698),(705,698,704),
(491,495,700),(649,703,494),(603,434,685),(708,601,686),(603,600,434),(708,
663,601),(709,684,689),(700,690,498),(707,691,701),(498,690,611),(707,693,
691),(700,498,491),(529,464,611),(613,611,464),(671,434,676),(600,629,434),
(629,676,434),(672,680,464),(613,464,643),(643,464,680),(688,73,658),(661,
658,73),(710,688,658),(702,651,541),(541,538,702),(702,648,651),(695,702,
538),(664,710,658),(706,702,695)),());
#46=COORDINATES_LIST('',261,((0.00693076610565186,0.0221931190490723,0.00160000002384186),
(0.00693076610565186,0.0221931190490723,0.0106000003814697),(0.00693076610565186,
0.0232121181488037,0.00160000002384186),(0.00693076610565186,0.0232121181488037,
0.0106000003814697),(0.00959276580810547,0.0220971183776855,0.000564000010490418),
(0.00959276580810547,0.0220971183776855,0.00130200004577637),(0.00959276580810547,
0.0244821186065674,0.0120270004272461),(0.00959276580810547,0.0244821186065674,
0.0127639999389648),(0.00959276580810547,0.0260831184387207,0.00130200004577637),
(0.00959276580810547,0.0260831184387207,0.0120270004272461),(0.00959276580810547,
0.0265201187133789,0.00173800003528595),(0.00959276580810547,0.0265201187133789,
0.00321700000762939),(0.00959276580810547,0.0265201187133789,0.0101110000610352),
(0.00959276580810547,0.0265201187133789,0.0115900001525879),(0.00959276580810547,
0.0271581192016602,0.000564000010490418),(0.00959276580810547,0.0271581192016602,
0.00321700000762939),(0.00959276580810547,0.0271581192016602,0.0101110000610352),
(0.00959276580810547,0.0271581192016602,0.0127639999389648),(0.00959276580810547,
0.0273781185150146,0.0029760000705719),(0.00959276580810547,0.0273781185150146,
0.0103520002365112),(0.00959276580810547,0.0275721187591553,0.00276500010490418),
(0.00959276580810547,0.0276511192321778,0.0106479997634888),(0.00959276580810547,
0.0279581184387207,0.0013639999628067),(0.00959276580810547,0.0279581184387207,
0.0023510000705719),(0.00959276580810547,0.0279581184387207,0.0109770002365112),
(0.00959276580810547,0.0279581184387207,0.01196399974823),(0.00959373569488525,
0.0260021190643311,0.0127639999389648),(0.00959373569488525,0.0270531196594239,
0.0127639999389648),(0.00959476566314697,0.0260021190643311,0.013496000289917),
(0.00959476566314697,0.0270531196594239,0.013496000289917),(0.00960476589202881,
0.0260021190643311,-5.05598201380828E-18),(0.00960476589202881,0.0270531196594239,
-5.05598201380828E-18),(0.00960595607757568,0.0260021190643311,0.000564000010490418),
(0.00960595607757568,0.0270531196594239,0.000564000010490418),(0.00960751628875732,
0.0260021190643311,0.00130200004577637),(0.00960751628875732,0.0260831184387207,
0.00130200004577637),(0.00960776615142822,0.0260021190643311,0.00142200005054474),
(0.00960776615142822,0.0262033996582032,0.00142200005054474),(0.00970476627349853,
0.0221931190490723,0.0216359996795655),(0.00970476627349853,0.0221931190490723,
0.0254549999237061),(0.00970476627349853,0.0224111194610595,0.0254549999237061),
(0.00970476627349853,0.0232121181488037,0.0216359996795655),(0.00970476627349853,
0.0232121181488037,0.0246550006866455),(0.00970476627349853,0.0233371181488037,
-5.05598201380828E-18),(0.00970476627349853,0.0233371181488037,0.000564000010490418),
(0.00970476627349853,0.0233671188354492,-5.05598201380828E-18),(0.00970476627349853,
0.0233671188354493,0.000564000010490418),(0.0099757661819458,0.0265201187133789,
0.00306399989128113),(0.0099757661819458,0.0265201187133789,0.0102639999389648),
(0.0104497661590576,0.0279581184387207,0.00213299989700317),(0.0105127658843994,
0.0271581192016602,0.0103979997634888),(0.0105257663726807,0.0265201187133789,
0.0104010000228882),(0.0106787662506103,0.0265201187133789,0.00290000009536743),
(0.0106807661056519,0.0271581192016602,0.0028989999294281),(0.0106987657546997,
0.0279581184387207,0.0112360000610352),(0.011077766418457,0.0279581184387207,
0.0112629995346069),(0.0111927661895752,0.0220971183776855,0.00130200004577637),
(0.0111927661895752,0.0220971183776855,0.00216400003433227),(0.0111927661895752,
0.0220971183776855,0.0148380002975464),(0.0111927661895752,0.0220971183776855,
0.0164379997253418),(0.0111927661895752,0.0221931190490723,0.00160000002384186),
(0.0111927661895752,0.0221931190490723,0.00216400003433227),(0.0111927661895752,
0.0227571182250976,0.01196399974823),(0.0111927661895752,0.0227571182250976,
0.0148380002975464),(0.0111927661895752,0.0232121181488037,0.00160000002384186),
(0.0111927661895752,0.0232121181488037,0.00216400003433227),(0.0111927661895752,
0.0235571193695069,0.0111639995574951),(0.0111927661895752,0.0235571193695069,
0.0164379997253418),(0.0111927661895752,0.0243571186065674,0.0127639999389648),
(0.0111927661895752,0.0243571186065674,0.0156379995346069),(0.0111927661895752,
0.0244821186065674,0.0120270004272461),(0.0111927661895752,0.0244821186065674,
0.0127639999389648),(0.0111927661895752,0.0249571189880371,0.00216400003433227),
(0.0111927661895752,0.0249571189880371,0.00286400008201599),(0.0111927661895752,
0.0249571189880371,0.01046399974823),(0.0111927661895752,0.0249571189880371,
0.0111639995574951),(0.0111927661895752,0.0260021190643311,0.00130200004577637),
(0.0111927661895752,0.0260021190643311,0.00143666005134582),(0.0111927661895752,
0.0260831184387207,0.0120270004272461),(0.0111927661895752,0.0262180881500244,
0.00143666005134582),(0.0111927661895752,0.0265201187133789,0.00173800003528595),
(0.0111927661895752,0.0265201187133789,0.00286400008201599),(0.0111927661895752,
0.0265201187133789,0.01046399974823),(0.0111927661895752,0.0265201187133789,
0.0115900001525879),(0.0113047657012939,0.0221931190490723,-5.05598201380828E-18),
(0.0113047657012939,0.0221931190490723,0.000564000010490418),(0.0113047657012939,
0.0221931190490723,0.0144919996261597),(0.0113047657012939,0.0221931190490723,
0.0148380002975464),(0.0113047657012939,0.0221931190490723,0.0164379997253418),
(0.0113047657012939,0.0221931190490723,0.0216359996795655),(0.0113047657012939,
0.0224111194610595,0.0142740001678467),(0.0113047657012939,0.0227571182250976,
0.0142740001678467),(0.0113047657012939,0.0227571182250976,0.0148380002975464),
(0.0113047657012939,0.0232121181488037,0.0106000003814697),(0.0113047657012939,
0.0232121181488037,0.0164379997253418),(0.0113047657012939,0.0232121181488037,
0.0216359996795655),(0.0113047657012939,0.0233371181488037,-5.05598201380828E-18),
(0.0113047657012939,0.0233371181488037,0.000564000010490418),(0.0113307657241821,
0.0279581184387207,0.00206599998474121),(0.0114747657775879,0.0271581192016602,
0.00287599992752075),(0.0114747657775879,0.0271581192016602,0.0104519996643066),
(0.0115367660522461,0.0249571189880371,0.0104469995498657),(0.0118347663879394,
0.0279581184387207,0.0112189998626709),(0.0119247665405273,0.0271581192016602,
0.00293700003623962),(0.0119897661209106,0.0249571189880371,0.00295000004768372),
(0.0120837659835815,0.0279581184387207,0.00215100002288818),(0.0121567659378052,
0.0249571189880371,0.010335000038147),(0.0123647661209106,0.0271581192016602,
0.0102770004272461),(0.0125397663116455,0.0249571189880371,0.00311100006103515),
(0.0125397663116455,0.0249571189880371,0.0102170000076294),(0.0125757665634155,
0.0271581192016602,0.00313400006294251),(0.0128547658920288,0.0249571189880371,
0.0100790004730225),(0.0129307661056519,0.0279581184387207,0.0109209995269775),
(0.0129587659835815,0.0249571189880371,0.00329900002479553),(0.0129877662658691,
0.0271581192016602,0.010003999710083),(0.0131617660522461,0.0279581184387207,
0.00250900006294251),(0.0132547664642334,0.0249571189880371,0.00347399997711182),
(0.0133507661819458,0.0249571189880371,0.00979100036621094),(0.0133737659454346,
0.0271581192016602,0.00356299996376037),(0.0136237659454346,0.0249571189880371,
0.00958199977874756),(0.013711766242981,0.0249571189880371,0.0038199999332428),
(0.0137277660369873,0.0271581192016602,0.00948200035095215),(0.0138177661895752,
0.0279581184387207,0.0104390001296997),(0.0139577665328979,0.0249571189880371,
0.0040609998703003),(0.0140367660522461,0.0249571189880371,0.00918400001525879),
(0.0140467662811279,0.0271581192016602,0.0041690001487732),(0.0142167663574219,
0.0279581184387207,0.00320000004768372),(0.014251766204834,0.0249571189880371,
0.00891499996185303),(0.0143197660446167,0.0249571189880371,0.00450500011444092),
(0.0143237657546997,0.0271581192016602,0.00880099964141846),(0.0145007658004761,
0.0249571189880371,0.0047979998588562),(0.0145567665100098,0.0249571189880371,
0.00843000030517578),(0.0145567665100098,0.0271581192016602,0.00491699981689453),
(0.0145787658691406,0.0279581184387207,0.00977400016784668),(0.0146917657852173,
0.0220971183776855,0.0111639995574951),(0.0146917657852173,0.0220971183776855,
0.0148380002975464),(0.0146917657852173,0.0221931190490723,0.0144919996261597),
(0.0146917657852173,0.0221931190490723,0.0148380002975464),(0.0146917657852173,
0.0224111194610595,0.0142740001678467),(0.0146917657852173,0.0227571182250976,
0.01196399974823),(0.0146917657852173,0.0227571182250976,0.0142740001678467),
(0.0146917657852173,0.0235571193695069,0.0111639995574951),(0.0147417659759521,
0.0271581192016602,0.00799700021743774),(0.0147447662353516,0.0249571189880371,
0.00531699991226196),(0.0147827663421631,0.0249571189880371,0.00790299987792969),
(0.0148037662506103,0.0221931190490723,0.0106000003814697),(0.0148037662506103,
0.0221931190490723,0.0111639995574951),(0.0148037662506103,0.0227701187133789,
0.0106000003814697),(0.0148037662506103,0.0232121181488037,0.0106000003814697),
(0.0148037662506103,0.0233671188354492,0.0106000003814697),(0.0148037662506103,
0.0233671188354493,0.0111639995574951),(0.0148647661209106,0.0271581192016602,
0.00570900011062622),(0.0148997659683228,0.0279581184387207,0.00394400000572204),
(0.0149057664871216,0.0249571189880371,0.00746099996566773),(0.0149087657928467,
0.0271581192016602,0.0074539999961853),(0.0149627656936645,0.0271581192016602,
0.00621000003814697),(0.0149637660980225,0.0249571189880371,0.00620599985122681),
(0.0149747657775879,0.0249571189880371,0.00700799989700317),(0.0149897661209106,
0.0271581192016602,0.00666400003433228),(0.0151757659912109,0.0279581184387207,
0.00896000003814697),(0.0154037656784057,0.0279581184387207,0.00482000017166138),
(0.0154037656784057,0.0279581184387207,0.00850800037384033),(0.0154917659759522,
0.0220971183776855,0.0164379997253418),(0.0154917659759522,0.0221931190490723,
0.0164379997253418),(0.0154917659759522,0.0232121181488037,0.0164379997253418),
(0.0154917659759522,0.0235571193695069,0.0164379997253418),(0.0154917659759522,
0.0243571186065674,0.0127639999389648),(0.0154917659759522,0.0243571186065674,
0.0156379995346069),(0.0156917657852173,0.0220971183776855,0.00216400003433227),
(0.0156917657852173,0.0220971183776855,0.0111639995574951),(0.0156917657852173,
0.0221931190490723,0.00216400003433227),(0.0156917657852173,0.0221931190490723,
0.0111639995574951),(0.0156917657852173,0.0232121181488037,0.00216400003433227),
(0.0156917657852173,0.0232121181488037,0.0106000003814697),(0.0156917657852173,
0.0233671188354492,0.0111639995574951),(0.0156917657852173,0.0233671188354493,
0.0106000003814697),(0.0156917657852173,0.0249571189880371,0.00216400003433227),
(0.0156917657852173,0.0249571189880371,0.0111639995574951),(0.0157047662734985,
0.0279581184387207,0.00578399991989136),(0.0157047662734985,0.0279581184387207,
0.0075440001487732),(0.015787766456604,0.0279581184387207,0.00679099988937378),
(0.0162917652130127,0.0220971183776855,0.0127639999389648),(0.0162917652130127,
0.0220971183776855,0.0156379995346069),(0.0162917652130127,0.0221931190490723,
0.0127639999389648),(0.0162917652130127,0.0221931190490723,0.0156379995346069),
(0.0162917652130127,0.0232121181488037,0.0151859998703003),(0.0162917652130127,
0.0232121181488037,0.0156379995346069),(0.0162917652130127,0.0233671188354492,
0.0127639999389648),(0.0162917652130127,0.0233671188354492,0.0151859998703003),
(0.0162917652130127,0.0235571193695069,0.0127639999389648),(0.0162917652130127,
0.0235571193695069,0.0156379995346069),(0.0164037666320801,0.0232121181488037,
0.0127639999389648),(0.0164037666320801,0.0232121181488037,0.0150740003585816),
(0.0164037666320801,0.0233671188354492,0.0150740003585816),(0.0164037666320801,
0.0233671188354493,0.0127639999389648),(0.0164917659759521,0.0220971183776855,
0.000564000010490418),(0.0164917659759521,0.0220971183776855,0.0127639999389648),
(0.0164917659759521,0.0221931190490723,0.000564000010490418),(0.0164917659759521,
0.0221931190490723,0.0127639999389648),(0.0164917659759521,0.0232121181488037,
0.0127639999389648),(0.0164917659759521,0.0233671188354493,0.000564000010490418),
(0.0164917659759521,0.0260021190643311,0.000564000010490418),(0.0164917659759521,
0.0260021190643311,0.0127639999389648),(0.0164917659759521,0.0270531196594239,
0.000564000010490418),(0.0164917659759521,0.0270531196594239,0.0127639999389648),
(0.0164917659759521,0.0271581192016602,0.000564000010490418),(0.0164917659759521,
0.0271581192016602,0.0127639999389648),(0.0164917659759521,0.0279581184387207,
0.0013639999628067),(0.0164917659759521,0.0279581184387207,0.01196399974823),
(0.0166037654876709,0.0224111194610595,-5.05598201380828E-18),(0.0166037654876709,
0.0233671188354492,-5.05598201380828E-18),(0.0170427665710449,0.0260021190643311,
0.0135656700134277),(0.0170427665710449,0.0260021190643311,0.0135950002670288),
(0.0170427665710449,0.027043119430542,0.0135656700134277),(0.0170427665710449,
0.027043119430542,0.0135950002670288),(0.0171105270385742,0.027043119430542,
0.0121452398300171),(0.0171105270385742,0.0270531196594239,0.0121452398300171),
(0.0172917652130127,0.0220971183776855,0.0013639999628067),(0.0172917652130127,
0.0220971183776855,0.01196399974823),(0.0172917652130127,0.0221931190490723,
0.0013639999628067),(0.0172917652130127,0.0221931190490723,0.01196399974823),
(0.0172917652130127,0.0232121181488037,0.0115120000839233),(0.0172917652130127,
0.0232121181488037,0.01196399974823),(0.0172917652130127,0.0233671188354492,
0.0013639999628067),(0.0172917652130127,0.0233671188354492,0.0115120000839233),
(0.0172917652130127,0.0260021190643311,0.0013639999628067),(0.0172917652130127,
0.0260021190643311,0.01196399974823),(0.0172917652130127,0.027043119430542,
0.00149309003353119),(0.0172917652130127,0.027043119430542,0.01196399974823),
(0.0172917652130127,0.0270531196594239,0.0013639999628067),(0.0172917652130127,
0.0270531196594239,0.00149309003353119),(0.0172917652130127,0.0271581192016602,
0.0013639999628067),(0.0172917652130127,0.0271581192016602,0.01196399974823),
(0.0174037666320801,0.0232121181488037,0.000800000011920929),(0.0174037666320801,
0.0232121181488037,0.0113999996185303),(0.0174037666320801,0.0233671188354492,
0.0113999996185303),(0.0174037666320801,0.0233671188354492,0.000800000011920929),
(0.017929765701294,0.027043119430542,0.0121529998779297),(0.017929765701294,
0.0270531196594239,0.0121529998779297),(0.0179327659606934,0.027043119430542,
0.0135740003585815),(0.0179327659606934,0.0270531196594239,0.0135740003585815),
(0.0180327663421631,0.0260021190643311,0.00149994003772736),(0.0180327663421631,
0.0260021190643311,0.0135950002670288),(0.0180327663421631,0.027043119430542,
0.00149994003772736),(0.0180327663421631,0.027043119430542,0.0135950002670288),
(0.0180367660522461,0.0260021190643311,7.80000016093254E-5),(0.0180367660522461,
0.0270531196594239,7.80000016093254E-5),(0.0180387668609619,0.0260021190643311,
0.0015),(0.0180387668609619,0.0270531196594239,0.0015),(0.0192857666015625,
0.0232121181488037,0.0246550006866455),(0.0195837669372558,0.0232121181488037,
0.000800000011920929),(0.0196167659759521,0.0221931190490723,0.0254549999237061),
(0.0196167659759521,0.0224111194610595,0.0254549999237061),(0.0199147663116455,
0.0221931190490723,-5.05598201380828E-18),(0.0199147663116455,0.0224111194610595,
-5.05598201380828E-18),(0.021460765838623,0.0232121181488037,0.00267700004577637),
(0.021460765838623,0.0232121181488037,0.0224790000915528),(0.0222607669830323,
0.0221931190490723,0.00234599995613098),(0.0222607669830323,0.0221931190490723,
0.0228110008239746),(0.0222607669830323,0.0224111194610595,0.00234599995613098),
(0.0222607669830323,0.0224111194610595,0.0228110008239746)));
#47=COORDINATES_LIST('',250,((-0.000523821890354157,0.0221941184997559,
0.00234599995613098),(-0.000523821890354157,0.0221941184997559,0.0228110008239746),
(-0.000523821890354157,0.0223641185760498,0.00234599995613098),(-0.000523821890354157,
0.0223641185760498,0.0228110008239746),(0.000276178151369095,0.0231651191711426,
0.00267700004577637),(0.000276178151369095,0.0231651191711426,0.0224790000915528),
(0.00182217812538147,0.0221941184997559,-5.05620435995694E-18),(0.00182217812538147,
0.0223641185760498,-5.05620435995694E-18),(0.00212017822265625,0.0221941184997559,
0.0254549999237061),(0.00212017822265625,0.0223641185760498,0.0254549999237061),
(0.00215317821502685,0.0231651191711426,0.000800000011920929),(0.00245117807388306,
0.0231651191711426,0.0246550006866455),(0.00347317814826965,0.0260021190643311,
1.60000007599592E-5),(0.00347317814826965,0.0270971183776855,1.60000007599592E-5),
(0.00349117803573608,0.0260021190643311,0.000915000021457672),(0.00349117803573608,
0.0270971183776855,0.000915000021457672),(0.00349217820167541,0.0260021190643311,
0.0125740003585815),(0.00349217820167541,0.0270971183776855,0.0125740003585815),
(0.00349917817115784,0.0260021190643311,0.000924000024795532),(0.00349917817115784,
0.0260021190643311,0.0125740003585815),(0.00349917817115784,0.0260021190643311,
0.0129236097335815),(0.00349917817115784,0.0260021190643311,0.0134079999923706),
(0.00349917817115784,0.0270971183776855,0.000924000024795532),(0.00349917817115784,
0.0270971183776855,0.0129236097335815),(0.00349917817115784,0.0270971183776855,
0.0134079999923706),(0.00349917817115784,0.0270971183776855,0.0125740003585815),
(0.00350887823104858,0.0260021190643311,0.0134079999923706),(0.00350887823104858,
0.0270971183776855,0.0134079999923706),(0.00351017808914185,0.0260021190643311,
0.0134729995727539),(0.00351017808914185,0.0270971183776855,0.0134729995727539),
(0.00435117816925049,0.0220971183776855,0.0013639999628067),(0.00435117816925049,
0.0220971183776855,0.01196399974823),(0.00435117816925049,0.0221941184997559,
0.0013639999628067),(0.00435117816925049,0.0221941184997559,0.01196399974823),
(0.00435117816925049,0.0231651191711426,0.0013639999628067),(0.00435117816925049,
0.0231651191711426,0.01196399974823),(0.00435117816925049,0.0260021190643311,
0.0013639999628067),(0.00435117816925049,0.0260021190643311,0.01196399974823),
(0.00435117816925049,0.0270971183776855,0.0013639999628067),(0.00435117816925049,
0.0270971183776855,0.01196399974823),(0.00435117816925049,0.0270971183776855,
0.0134731597900391),(0.00435117816925049,0.0271581192016602,0.0013639999628067),
(0.00435117816925049,0.0271581192016602,0.01196399974823),(0.00439717817306519,
0.0231651191711426,0.000800000011920929),(0.00439717817306519,0.0231651191711426,
0.001317999958992),(0.00439717817306519,0.0233191184997559,0.000800000011920929),
(0.00439717817306519,0.0233191184997559,0.001317999958992),(0.00479117822647095,
0.0260021190643311,0.000924000024795532),(0.00479117822647095,0.0270971183776855,
0.000924000024795532),(0.0047999382019043,0.0260021190643311,0.000915239989757538),
(0.0047999382019043,0.0270971183776855,0.000915239989757538),(0.00496117830276489,
0.0260021190643311,0.0125740003585815),(0.00496117830276489,0.0260021190643311,
0.0125745496749878),(0.00496117830276489,0.0270971183776855,0.0125740003585815),
(0.00496117830276489,0.0270971183776855,0.0125745496749878),(0.0049617280960083,
0.0260021190643311,0.0125745496749878),(0.0049617280960083,0.0270971183776855,
0.0125745496749878),(0.00515117835998535,0.0220971183776855,0.000564000010490418),
(0.00515117835998535,0.0220971183776855,0.0127639999389648),(0.00515117835998535,
0.0221941184997559,0.000564000010490418),(0.00515117835998535,0.0221941184997559,
0.0127639999389648),(0.00515117835998535,0.0231651191711426,0.0127639999389648),
(0.00515117835998535,0.0233191184997559,0.000564000010490418),(0.00515117835998535,
0.0260021190643311,0.000564000010490418),(0.00515117835998535,0.0260021190643311,
0.0127639999389648),(0.00515117835998535,0.0270971183776855,0.000564000010490418),
(0.00515117835998535,0.0270971183776855,0.0127639999389648),(0.00515117835998535,
0.0271581192016602,0.000564000010490418),(0.00515117835998535,0.0271581192016602,
0.0127639999389648),(0.00515117835998535,0.0279581184387207,0.0013639999628067),
(0.00515117835998535,0.0279581184387207,0.01196399974823),(0.00519717836380005,
0.0223641185760498,-5.05620435995694E-18),(0.00519717836380005,0.0233191184997559,
-5.05620435995694E-18),(0.00535117816925049,0.0220971183776855,0.0127639999389648),
(0.00535117816925049,0.0220971183776855,0.0156379995346069),(0.00535117816925049,
0.0221941184997559,0.0127639999389648),(0.00535117816925049,0.0221941184997559,
0.0156379995346069),(0.00535117816925049,0.0231651191711426,0.0127639999389648),
(0.00535117816925049,0.0231651191711426,0.0156379995346069),(0.00535117816925049,
0.0235571193695069,0.0127639999389648),(0.00535117816925049,0.0235571193695069,
0.0156379995346069),(0.00585417795181274,0.0279581184387207,0.00654300022125244),
(0.00586717796325684,0.0279581184387207,0.00702799987792969),(0.00590817832946777,
0.0279581184387207,0.00593800020217896),(0.00595117807388306,0.0220971183776855,
0.00216400003433227),(0.00595117807388306,0.0220971183776855,0.0111639995574951),
(0.00595117807388306,0.0221941184997559,0.00216400003433227),(0.00595117807388306,
0.0221941184997559,0.0111639995574951),(0.00595117807388306,0.0233191184997559,
0.00216400003433227),(0.00595117807388306,0.0233191184997559,0.0111639995574951),
(0.00595117807388306,0.0249571189880371,0.00216400003433227),(0.00595117807388306,
0.0249571189880371,0.0111639995574951),(0.00599717807769775,0.0221941184997559,
0.00216400003433227),(0.00599717807769776,0.0221941184997559,0.0106000003814697),
(0.00599717807769776,0.0233191184997559,0.00216400003433227),(0.00599717807769776,
0.0233191184997559,0.0106000003814697),(0.00604517793655396,0.0279581184387207,
0.00798199987411499),(0.00615117835998535,0.0220971183776855,0.0164379997253418),
(0.00615117835998535,0.0221941184997559,0.0164379997253418),(0.00615117835998535,
0.0231651191711426,0.0164379997253418),(0.00615117835998535,0.0235571193695069,
0.0164379997253418),(0.00615117835998535,0.0243571186065674,0.0127639999389648),
(0.00615117835998535,0.0243571186065674,0.0156379995346069),(0.00625617790222168,
0.0279581184387207,0.00477699995040894),(0.00647817802429199,0.0279581184387207,
0.00898299980163574),(0.0066521782875061,0.0271581192016602,0.00655299997329712),
(0.00665417814254761,0.0249571189880371,0.00655399990081787),(0.00667817831039429,
0.0271581192016602,0.00622200012207031),(0.00669117832183838,0.0271581192016602,
0.00721600008010864),(0.00669217824935913,0.0249571189880371,0.00611299991607666),
(0.00669217824935913,0.0249571189880371,0.00721500015258789),(0.00674517822265625,
0.0279581184387207,0.00393799996376037),(0.00675517797470093,0.0271581192016602,
0.00754099988937378),(0.00678217792510986,0.0249571189880371,0.00568100023269653),
(0.00678217792510986,0.0249571189880371,0.00764699983596802),(0.00681817817687988,
0.0271581192016602,0.00557499980926514),(0.00692017793655396,0.0249571189880371,
0.00806599998474121),(0.0069501781463623,0.0221941184997559,0.0148380002975464),
(0.00695017814636231,0.0220971183776855,0.0111639995574951),(0.00695017814636231,
0.0220971183776855,0.0148380002975464),(0.00695017814636231,0.0221941184997559,
0.0111639995574951),(0.00695017814636231,0.0233191184997559,0.0111639995574951),
(0.00695017814636231,0.0233191184997559,0.0114020004272461),(0.00695017814636231,
0.0235571193695069,0.0111639995574951),(0.00696117830276489,0.0249571189880371,
0.00515899991989136),(0.00697017812728882,0.0271581192016602,0.00816800022125244),
(0.006996178150177,0.0221941184997559,0.0106000003814697),(0.006996178150177,
0.0221941184997559,0.0144440002441406),(0.006996178150177,0.0223641185760498,
0.0142740001678467),(0.006996178150177,0.0227571201324463,0.01196399974823),
(0.006996178150177,0.0227571201324463,0.0142740001678467),(0.006996178150177,
0.0233191184997559,0.0106000003814697),(0.006996178150177,0.0233191184997559,
0.0114020004272461),(0.00705317831039429,0.0279581184387207,0.00976500034332275),
(0.00716017818450928,0.0249571189880371,0.00856400012969971),(0.00716817808151245,
0.0271581192016602,0.0047649998664856),(0.00721817827224732,0.0249571189880371,
0.00467000007629395),(0.0074021782875061,0.0249571189880371,0.00439499998092651),
(0.00741117811203003,0.0271581192016602,0.00893099975585938),(0.00747117805480957,
0.0249571189880371,0.00902000045776367),(0.00758517837524414,0.0279581184387207,
0.00306500005722046),(0.00768617820739746,0.0249571189880371,0.00927200031280518),
(0.00769517803192139,0.0271581192016602,0.00405900001525879),(0.00776417827606201,
0.0249571189880371,0.0039779999256134),(0.00777917814254761,0.0279581184387207,
0.0104090003967285),(0.00800817775726318,0.0249571189880371,0.00375300002098084),
(0.00801717853546143,0.0271581192016602,0.00957199954986572),(0.00809417819976807,
0.0249571189880371,0.00964400005340576),(0.00836217784881592,0.0249571189880371,
0.00983899974822998),(0.00837117767333984,0.0271581192016602,0.00349300003051758),
(0.00840417766571045,0.0279581184387207,0.00254399991035462),(0.00845617771148682,
0.0249571189880371,0.00343099999427796),(0.00855617809295654,0.0271581192016602,
0.00995699977874756),(0.00874517822265625,0.0249571189880371,0.0100600004196167),
(0.00883517837524414,0.0260021190643311,1.79999992251396E-5),(0.00883517837524414,
0.0270971183776855,1.79999992251396E-5),(0.00884215831756592,0.0260021190643311,
0.0127639999389648),(0.00884215831756592,0.0270971183776855,0.0127639999389648),
(0.00884611797332764,0.0260021190643311,0.000564000010490418),(0.00884611797332764,
0.0270971183776855,0.000564000010490418),(0.00885017776489258,0.0220971183776855,
0.000564000010490418),(0.00885017776489258,0.0220971183776855,0.00142700004577637),
(0.00885017776489258,0.0221941184997559,0.000564000010490418),(0.00885017776489258,
0.0221941184997559,0.00142700004577637),(0.00885017776489258,0.0233191184997559,
0.000564000010490418),(0.00885017776489258,0.0233191184997559,0.00142700004577637),
(0.00885017776489258,0.0243571186065674,0.0119020004272461),(0.00885017776489258,
0.0243571186065674,0.0127639999389648),(0.00885017776489258,0.0260021190643311,
0.000766330003738403),(0.00885017776489258,0.0260021190643311,0.000916000008583069),
(0.00885017776489258,0.0260321197509765,0.00142700004577637),(0.00885017776489258,
0.0260321197509765,0.0119020004272461),(0.00885017776489258,0.0263951187133789,
0.00178999996185303),(0.00885017776489258,0.0263951187133789,0.00321700000762939),
(0.00885017776489258,0.0263951187133789,0.0101110000610352),(0.00885017776489258,
0.0263951187133789,0.0115380001068115),(0.00885017776489258,0.0270971183776855,
0.000766330003738403),(0.00885017776489258,0.0270971183776855,0.000916000008583069),
(0.00885017776489258,0.0271581192016602,0.000564000010490418),(0.00885017776489258,
0.0271581192016602,0.00321700000762939),(0.00885017776489258,0.0271581192016602,
0.0101110000610352),(0.00885017776489258,0.0271581192016602,0.0127639999389648),
(0.00885017776489258,0.0279581184387207,0.0013639999628067),(0.00885017776489258,
0.0279581184387207,0.0023510000705719),(0.00885017776489258,0.0279581184387207,
0.0109770002365112),(0.00885017776489258,0.0279581184387207,0.01196399974823),
(0.00885317802429199,0.0260021190643311,0.000916000008583069),(0.00885317802429199,
0.0270971183776855,0.000916000008583069),(0.008857177734375,0.0260021190643311,
0.0134739999771118),(0.008857177734375,0.0270971183776855,0.0134739999771118),
(0.00889617824554443,0.0221941184997559,0.0254549999237061),(0.00889617824554443,
0.0231651191711426,0.000862999975681305),(0.00889617824554443,0.0231651191711426,
0.0246550006866455),(0.00889617824554443,0.0233191184997559,-5.05620435995694E-18),
(0.00889617824554444,0.0221941184997559,0.0215109996795655),(0.00889617824554444,
0.0223641185760498,0.0254549999237061),(0.00889617824554444,0.0231651191711426,
-5.05620435995694E-18),(0.00889617824554444,0.0231651191711426,0.0215109996795655),
(0.00889617824554444,0.0233191184997559,0.000862999975681305),(0.00915017795562744,
0.0249571189880371,0.00309299993515015),(0.00915017795562744,0.0249571189880371,
0.0102349996566772),(0.00923317813873291,0.0263951187133789,0.00306399989128113),
(0.00923317813873291,0.0263951187133789,0.0102639999389648),(0.00990017795562744,
0.0249571189880371,0.00290599989891053),(0.00990017795562744,0.0249571189880371,
0.0104219999313354),(0.00993617820739746,0.0263951187133789,0.00290000009536743),
(0.00993617820739746,0.0263951187133789,0.0104280004501343),(0.0104501781463623,
0.0220971183776855,0.00142700004577637),(0.0104501781463623,0.0220971183776855,
0.00216400003433227),(0.0104501781463623,0.0220971183776855,0.0148380002975464),
(0.0104501781463623,0.0220971183776855,0.0164379997253418),(0.0104501781463623,
0.0221941184997559,0.00142700004577637),(0.0104501781463623,0.0221941184997559,
0.00160000002384186),(0.0104501781463623,0.0221941184997559,0.0148380002975464),
(0.0104501781463623,0.0221941184997559,0.0164379997253418),(0.0104501781463623,
0.0227571201324463,0.01196399974823),(0.0104501781463623,0.0227571201324463,
0.0142740001678467),(0.0104501781463623,0.0231651191711426,0.0158739995956421),
(0.0104501781463623,0.0231651191711426,0.0164379997253418),(0.0104501781463623,
0.0233191184997559,0.00142700004577637),(0.0104501781463623,0.0233191184997559,
0.00160000002384186),(0.0104501781463623,0.0233191184997559,0.0142740001678467),
(0.0104501781463623,0.0233191184997559,0.0158739995956421),(0.0104501781463623,
0.0235571193695069,0.0111639995574951),(0.0104501781463623,0.0235571193695069,
0.0164379997253418),(0.0104501781463623,0.0243571186065674,0.0119020004272461),
(0.0104501781463623,0.0243571186065674,0.0156379995346069),(0.0104501781463623,
0.0249571189880371,0.00216400003433227),(0.0104501781463623,0.0249571189880371,
0.00286400008201599),(0.0104501781463623,0.0249571189880371,0.01046399974823),
(0.0104501781463623,0.0249571189880371,0.0111639995574951),(0.0104501781463623,
0.0260321197509765,0.00142700004577637),(0.0104501781463623,0.0260321197509765,
0.0119020004272461),(0.0104501781463623,0.0263951187133789,0.00178999996185303),
(0.0104501781463623,0.0263951187133789,0.00286400008201599),(0.0104501781463623,
0.0263951187133789,0.01046399974823),(0.0104501781463623,0.0263951187133789,
0.0115380001068115),(0.0104961776733398,0.0221941184997559,-5.05620435995694E-18),
(0.0104961776733398,0.0221941184997559,0.00160000002384186),(0.0104961776733398,
0.0221941184997559,0.0144440002441406),(0.0104961776733398,0.0221941184997559,
0.0215109996795655),(0.0104961776733398,0.0223641185760498,0.0142740001678467),
(0.0104961776733398,0.0231651191711426,-5.05620435995694E-18),(0.0104961776733398,
0.0231651191711426,0.000862999975681305),(0.0104961776733398,0.0231651191711426,
0.0158739995956421),(0.0104961776733398,0.0231651191711426,0.0215109996795655),
(0.0104961776733398,0.0233191184997559,0.000862999975681305),(0.0104961776733398,
0.0233191184997559,0.00160000002384186),(0.0104961776733398,0.0233191184997559,
0.0142740001678467),(0.0104961776733398,0.0233191184997559,0.0158739995956421)));
#48=TESSELLATED_SHELL('Part 1',(#44),$);
#49=TESSELLATED_SHELL('Part 2',(#45),$);
#50=SHAPE_DEFINITION_REPRESENTATION(#74,#52);
#51=SHAPE_DEFINITION_REPRESENTATION(#75,#53);
#52=SHAPE_REPRESENTATION('Part 1',(#54),#64);
#53=SHAPE_REPRESENTATION('Part 2',(#55),#65);
#54=AXIS2_PLACEMENT_3D('',#60,#56,#57);
#55=AXIS2_PLACEMENT_3D('',#61,#58,#59);
#56=DIRECTION('',(0.,0.,1.));
#57=DIRECTION('',(1.,0.,0.));
#58=DIRECTION('',(0.,0.,1.));
#59=DIRECTION('',(1.,0.,0.));
#60=CARTESIAN_POINT('',(0.,0.,0.));
#61=CARTESIAN_POINT('',(0.,0.,0.));
#62=MECHANICAL_DESIGN_GEOMETRIC_PRESENTATION_REPRESENTATION('',(#14,#15),
#64);
#63=MECHANICAL_DESIGN_GEOMETRIC_PRESENTATION_REPRESENTATION('',(#16,#17),
#65);
#64=(
GEOMETRIC_REPRESENTATION_CONTEXT(3)
GLOBAL_UNCERTAINTY_ASSIGNED_CONTEXT((#66))
GLOBAL_UNIT_ASSIGNED_CONTEXT((#72,#70,#68))
REPRESENTATION_CONTEXT('Part 1','TOP_LEVEL_ASSEMBLY_PART')
);
#65=(
GEOMETRIC_REPRESENTATION_CONTEXT(3)
GLOBAL_UNCERTAINTY_ASSIGNED_CONTEXT((#67))
GLOBAL_UNIT_ASSIGNED_CONTEXT((#73,#71,#69))
REPRESENTATION_CONTEXT('Part 2','TOP_LEVEL_ASSEMBLY_PART')
);
#66=UNCERTAINTY_MEASURE_WITH_UNIT(LENGTH_MEASURE(1.E-8),#72,
'DISTANCE_ACCURACY_VALUE','Maximum Tolerance applied to model');
#67=UNCERTAINTY_MEASURE_WITH_UNIT(LENGTH_MEASURE(1.E-8),#73,
'DISTANCE_ACCURACY_VALUE','Maximum Tolerance applied to model');
#68=(
NAMED_UNIT(*)
SI_UNIT($,.STERADIAN.)
SOLID_ANGLE_UNIT()
);
#69=(
NAMED_UNIT(*)
SI_UNIT($,.STERADIAN.)
SOLID_ANGLE_UNIT()
);
#70=(
NAMED_UNIT(*)
PLANE_ANGLE_UNIT()
SI_UNIT($,.RADIAN.)
);
#71=(
NAMED_UNIT(*)
PLANE_ANGLE_UNIT()
SI_UNIT($,.RADIAN.)
);
#72=(
LENGTH_UNIT()
NAMED_UNIT(*)
SI_UNIT($,.METRE.)
);
#73=(
LENGTH_UNIT()
NAMED_UNIT(*)
SI_UNIT($,.METRE.)
);
#74=PRODUCT_DEFINITION_SHAPE('','',#76);
#75=PRODUCT_DEFINITION_SHAPE('','',#77);
#76=PRODUCT_DEFINITION('','',#80,#78);
#77=PRODUCT_DEFINITION('','',#81,#79);
#78=PRODUCT_DEFINITION_CONTEXT('',#92,'design');
#79=PRODUCT_DEFINITION_CONTEXT('',#93,'design');
#80=PRODUCT_DEFINITION_FORMATION_WITH_SPECIFIED_SOURCE('','',#84,
 .NOT_KNOWN.);
#81=PRODUCT_DEFINITION_FORMATION_WITH_SPECIFIED_SOURCE('','',#85,
 .NOT_KNOWN.);
#82=PRODUCT_RELATED_PRODUCT_CATEGORY('','',(#84));
#83=PRODUCT_RELATED_PRODUCT_CATEGORY('','',(#85));
#84=PRODUCT('Part 1','Part 1','Part 1',(#88));
#85=PRODUCT('Part 2','Part 2','Part 2',(#89));
#86=PRODUCT_CATEGORY('','');
#87=PRODUCT_CATEGORY('','');
#88=PRODUCT_CONTEXT('',#92,'mechanical');
#89=PRODUCT_CONTEXT('',#93,'mechanical');
#90=APPLICATION_PROTOCOL_DEFINITION('international standard',
'ap242_managed_model_based_3d_engineering',2020,#92);
#91=APPLICATION_PROTOCOL_DEFINITION('international standard',
'ap242_managed_model_based_3d_engineering',2020,#93);
#92=APPLICATION_CONTEXT('managed model based 3d engineering');
#93=APPLICATION_CONTEXT('managed model based 3d engineering');
ENDSEC;
END-ISO-10303-21;
