ISO-10303-21;
HEADER;
/* Generated by software containing ST-Developer
 * from STEP Tools, Inc. (www.steptools.com) 
 */
/* OPTION: using custom renumber hook */

FILE_DESCRIPTION(
/* description */ ('STEP AP242 Edition 2',
'CAx-IF Rec.Pracs.---Representation and Presentation of Product Manufa
cturing Information (PMI)---4.0---2014-10-13',
'CAx-IF Rec.Pracs.---3D Tessellated Geometry---0.4---2014-09-14','2;1',
'CAx-IF Rec.Pracs.---User Defined Attributes---1.5---2016-08-15'),
/* implementation_level */ '2;1');

FILE_NAME(
/* name */ 'ShakoCam ESP32S3+Camera Case',
/* time_stamp */ '2026-10-05T01:41:55Z',
/* author */ (''),
/* organization */ (''),
/* preprocessor_version */ 'ST-DEVELOPER v20',
/* originating_system */ 'ONSHAPE BY PTC INC, 1.221',
/* authorisation */ '  ');

FILE_SCHEMA (('AP242_MANAGED_MODEL_BASED_3D_ENGINEERING_MIM_LF { 1 0 10303 442 3 1 4 }'));
ENDSEC;

DATA;
#10=SHAPE_REPRESENTATION_RELATIONSHIP('','',#52,#12);
#11=SHAPE_REPRESENTATION_RELATIONSHIP('','',#53,#13);
#12=TESSELLATED_SHAPE_REPRESENTATION('',(#48),#64);
#13=TESSELLATED_SHAPE_REPRESENTATION('',(#49),#65);
#14=STYLED_ITEM('',(#18),#44);
#15=STYLED_ITEM('',(#19),#48);
#16=STYLED_ITEM('',(#20),#45);
#17=STYLED_ITEM('',(#21),#49);
#18=PRESENTATION_STYLE_ASSIGNMENT((#22));
#19=PRESENTATION_STYLE_ASSIGNMENT((#23));
#20=PRESENTATION_STYLE_ASSIGNMENT((#24));
#21=PRESENTATION_STYLE_ASSIGNMENT((#25));
#22=SURFACE_STYLE_USAGE(.BOTH.,#26);
#23=SURFACE_STYLE_USAGE(.BOTH.,#27);
#24=SURFACE_STYLE_USAGE(.BOTH.,#28);
#25=SURFACE_STYLE_USAGE(.BOTH.,#29);
#26=SURFACE_SIDE_STYLE('',(#30));
#27=SURFACE_SIDE_STYLE('',(#31));
#28=SURFACE_SIDE_STYLE('',(#32));
#29=SURFACE_SIDE_STYLE('',(#33));
#30=SURFACE_STYLE_FILL_AREA(#34);
#31=SURFACE_STYLE_FILL_AREA(#35);
#32=SURFACE_STYLE_FILL_AREA(#36);
#33=SURFACE_STYLE_FILL_AREA(#37);
#34=FILL_AREA_STYLE('',(#38));
#35=FILL_AREA_STYLE('',(#39));
#36=FILL_AREA_STYLE('',(#40));
#37=FILL_AREA_STYLE('',(#41));
#38=FILL_AREA_STYLE_COLOUR('',#42);
#39=FILL_AREA_STYLE_COLOUR('',#42);
#40=FILL_AREA_STYLE_COLOUR('',#43);
#41=FILL_AREA_STYLE_COLOUR('',#43);
#42=COLOUR_RGB('',0.498039215686275,0.498039215686275,0.498039215686275);
#43=COLOUR_RGB('',0.980392156862745,0.713725490196078,0.00392156862745098);
#44=COMPLEX_TRIANGULATED_FACE('ConvergentBody',#46,573,((-1.,0.,0.),(0.,
1.,0.),(0.,0.,-1.),(0.,0.,-1.),(-1.,0.,0.),(0.,-1.,0.),(-1.,0.,0.),(0.,
-1.,0.),(0.,0.,1.),(0.,-1.,0.),(0.,0.,-1.),(-1.,0.,0.),(0.,0.,-1.),(0.,
1.,0.),(0.,0.,1.),(-1.,0.,0.),(0.,0.,1.),(-1.,0.,0.),(0.,1.,0.),(0.,0.,
1.),(-1.,0.,0.),(0.,0.,-1.),(0.,1.,0.),(0.,-1.,0.),(-1.,0.,0.),(0.,0.,1.),
(-1.,0.,0.),(0.,1.,0.),(0.,0.,-1.),(0.,0.,-1.),(-1.,0.,0.),(0.,-1.,0.),
(-1.,0.,0.),(0.,-1.,0.),(0.,0.,1.),(0.,-1.,0.),(0.,0.,-1.),(-1.,0.,0.),
(0.,0.,-1.),(-1.,0.,0.),(0.,-1.,0.),(-1.,0.,0.),(0.,0.,1.),(0.,1.,0.),(0.,
0.,1.),(0.,-1.,0.),(-1.,0.,0.),(-1.,0.,0.),(0.,1.,0.),(0.,0.,-1.),(0.,1.,
0.),(0.,0.,-1.),(-1.,0.,0.),(-1.,0.,0.),(0.,0.,1.),(0.,1.,0.),(-1.,0.,0.),
(0.,-1.,0.),(0.,0.,1.),(-1.,0.,0.),(0.,1.,0.),(0.,0.706296161819944,0.707916472331598),
(-1.,0.,0.),(0.,-0.707106702161212,-0.707106860211874),(0.,-1.,0.),(0.,
-0.707106702161212,-0.707106860211874),(0.,-1.,0.),(0.500082040017504,-0.706990659811499,
-0.500082153442045),(-1.,0.,0.),(0.,0.,-1.),(0.,-0.707106702161212,-0.707106860211874),
(-1.,0.,0.),(0.,0.,1.),(0.,1.,0.),(0.,0.,1.),(0.,1.,0.),(-1.,0.,0.),(0.,
0.,1.),(0.,-1.,0.),(-1.,0.,0.),(0.,-1.,0.),(-1.,0.,0.),(0.,-0.70710635971779,
0.707107202655054),(-1.,0.,0.),(0.,0.706295242431833,-0.707917389614183),
(0.,1.,0.),(-1.,0.,0.),(0.,0.,-1.),(0.,-1.,0.),(0.,-1.,0.),(0.500059550081303,
-0.707050533804927,0.500019988619108),(0.,-0.70710635971779,0.707107202655054),
(-1.,0.,0.),(0.,1.,0.),(0.,0.,-1.),(0.,1.,0.),(0.,0.,-1.),(-1.,0.,0.),(0.,
0.,-1.),(-1.,0.,0.),(0.,-1.,0.),(-1.,0.,0.),(0.,-0.70710635971779,0.707107202655054),
(0.,0.,1.),(-1.,0.,0.),(0.,0.706296161819944,0.707916472331598),(0.,0.,
1.),(0.,0.706296161819944,0.707916472331598),(0.,0.,1.),(-1.,0.,0.),(-1.,
0.,0.),(0.,1.,0.),(0.,0.706296161819944,0.707916472331598),(0.,1.,0.),(0.,
0.706295242431833,-0.707917389614183),(-1.,0.,0.),(-1.,0.,0.),(0.,0.,-1.),
(0.,0.706295242431833,-0.707917389614183),(-1.,0.,0.),(0.,1.,0.),(0.,0.,
-1.),(0.,0.,-1.),(-0.0884209231304096,0.996083199513357,0.),(0.,0.,-1.),
(0.707106673394098,0.,-0.707106888978981),(0.50008205692893,-0.706990608271314,
-0.500082209395504),(0.,-0.707106702161212,-0.707106860211874),(0.,0.,1.),
(0.,-0.70710635971779,0.707107202655054),(0.50008200056241,-0.706990668269997,
0.500082180938934),(0.70710665366201,0.,0.707106908711062),(-1.,0.,0.),
(0.,0.,1.),(0.,1.,0.),(0.,0.,1.),(0.,1.,0.),(-1.,0.,0.),(0.,0.,-1.),(0.,
-1.,0.),(-1.,0.,0.),(0.,0.706295242431833,-0.707917389614183),(0.,0.,-1.),
(-1.,0.,0.),(-1.,0.,0.),(0.,-0.706295435544111,-0.707917196944357),(0.,
0.,-1.),(0.,-0.706295435544111,-0.707917196944357),(0.,0.,-1.),(-1.,0.,
0.),(0.,1.,0.),(0.,0.,-1.),(-1.,0.,0.),(-1.,0.,0.),(0.,0.,1.),(0.,0.706664640677145,
0.707548645406548),(0.,0.,1.),(0.70710665366201,0.,0.707106908711062),(0.500394096485555,
0.706548877129829,0.500394276974651),(0.,0.706664640677145,0.707548645406548),
(-1.,0.,0.),(0.,-1.,0.),(0.,-0.706295435544111,-0.707917196944357),(-1.,
0.,0.),(0.,0.,-1.),(0.,-1.,0.),(-1.,0.,0.),(0.,1.,0.),(0.,0.,-1.),(0.,0.,
-1.),(0.,-1.,0.),(-1.,0.,0.),(0.,0.,-1.),(0.,1.,0.),(-1.,0.,0.),(-1.,0.,
0.),(0.,0.706664640677145,0.707548645406548),(0.,1.,0.),(0.,-0.706295435544111,
-0.707917196944357),(0.,-1.,0.),(-1.,0.,0.),(0.,0.706664640677145,0.707548645406548),
(0.500371669786032,0.706608820348611,0.500332056819352),(0.,1.,0.),(-1.,
0.,0.),(0.,0.,1.),(0.,1.,0.),(-1.,0.,0.),(0.,0.,-1.),(0.,-1.,0.),(0.,-1.,
0.),(-1.,0.,0.),(0.,0.,1.),(0.,-1.,0.),(-1.,0.,0.),(0.,0.,1.),(-1.,0.,0.),
(0.,1.,0.),(0.,0.,-1.),(0.,0.,-1.),(-1.,0.,0.),(0.,-1.,0.),(0.,1.,0.),(0.,
0.,1.),(-1.,0.,0.),(0.,0.,-1.),(0.,1.,0.),(0.707106912895459,0.,-0.707106649477611),
(-1.,0.,0.),(0.,1.,0.),(0.,0.,1.),(0.,0.,1.),(-1.,0.,0.),(0.,1.,0.),(0.,
0.,1.),(-1.,0.,0.),(0.,1.,0.),(-1.,0.,0.),(0.,1.,0.),(0.,0.,-1.),(-1.,0.,
0.),(0.,1.,0.),(0.,0.,-1.),(0.,1.,0.),(0.,0.,-1.),(-1.,0.,0.),(0.,1.,0.),
(-0.0222629069280573,-0.00404432726080088,0.999743970420487),(-1.,0.,0.),
(0.,0.,1.),(0.,1.,0.),(0.,0.,1.),(-0.0884209231304096,0.996083199513357,
0.),(0.,1.,0.),(-0.100317256855733,-0.00367292840982195,0.994948721077542),
(0.,1.,0.),(-0.278270201112337,0.0047249184811592,0.960491213035417),(0.,
1.,0.),(-0.521880445514074,0.000837678177899238,0.853018228929079),(0.,
1.,0.),(-0.7238659327516,-0.00460651884888692,0.689925279567107),(0.,1.,
0.),(-0.865865176718751,-0.00440574766929308,0.500258018559705),(0.,1.,
0.),(-0.0593306810357469,0.,-0.998238383497566),(-1.,0.,0.),(0.,-1.,0.),
(0.,0.,-1.),(-0.0593306810357469,0.,-0.998238383497566),(0.,-1.,0.),(0.,
-1.,0.),(-1.,0.,0.),(0.,0.,1.),(-1.,0.,0.),(0.,0.,1.),(0.,1.,0.),(-1.,0.,
0.),(0.,0.,-1.),(0.,-1.,0.),(-0.0192772575950633,-0.999814176404603,0.),
(0.,0.,1.),(-1.,0.,0.),(0.,1.,0.),(0.,0.,-1.),(0.,0.,-1.),(-0.141402868595387,
-0.989860813192682,0.0134461614789329),(0.,0.,1.),(0.,-1.,0.),(-1.,0.,0.),
(0.,-1.,0.),(-0.105735509389239,-0.00895470408264699,0.994353968830512),
(0.,-1.,0.),(-0.404543541393187,-0.0105251657198423,0.914458169630316),
(0.,-1.,0.),(-0.648842345407631,-0.000140053434067242,0.760922854953746),
(0.,-1.,0.),(-0.770836144600479,0.00270120061622803,0.637027740128089),
(0.,-1.,0.),(-0.874159943756919,-0.000175470251288518,0.485638097703518),
(0.,-1.,0.),(-0.965671483152098,-0.00384771904376079,0.259737909603098),
(0.,-1.,0.),(-0.997927403809931,-0.00282815072542102,0.064287621581804),
(-0.0806320901369936,0.996733808464183,-0.00449233843624063),(-0.00817449020624824,
0.0233388437649463,0.999694191281306),(0.,0.,-1.),(-0.187850779342136,0.982116829428258,
0.0125943659760673),(0.,1.,0.),(-0.107776782223499,-0.00421467582660484,
0.994166184156967),(0.,1.,0.),(-0.290638032419828,-0.00277369398812633,
0.956829055125727),(0.,1.,0.),(-0.484763219851809,0.00644100514056095,0.8746217091587),
(0.,1.,0.),(-0.70193965161401,0.0107821224302381,0.712154808540883),(0.,
1.,0.),(-0.88393273255469,0.0108147717637941,0.467488999902774),(0.,1.,
0.),(-0.977563732129559,0.00622869159298335,0.210547745240758),(0.,1.,0.),
(-0.998850564847662,0.,0.047932756059995),(0.,0.,1.),(-1.,0.,0.),(0.,1.,
0.),(-1.,0.,0.),(0.,0.,-1.),(0.,-1.,0.),(0.,-1.,0.),(-1.,0.,0.),(0.,0.,
-1.),(0.,0.,-1.),(0.,-1.,0.),(-1.,0.,0.),(0.,-1.,0.),(-0.198973968267853,
0.0012168145451369,-0.980004020049972),(0.,-1.,0.),(-0.389509322738034,
-0.000257581834050609,-0.921022486778557),(0.,-1.,0.),(-0.599663340686928,
-0.000401015740946705,-0.800252283359797),(0.,-1.,0.),(-0.777655897713019,
-0.000597773868385043,-0.628689865846874),(0.,-1.,0.),(-0.917979224900494,
0.00179115101186731,-0.396624424902376),(0.,-1.,0.),(-0.981164606458486,
0.00182367535654901,-0.193164927565434),(0.,-1.,0.),(-0.998737166599359,
-0.00145222359562995,-0.0502191507267222),(0.,-1.,0.),(0.,0.,-1.),(-1.,
0.,0.),(0.,0.,-1.),(-1.,0.,0.),(0.,-1.,0.),(-0.130630163362479,-0.991431129250127,
0.000276357939622393),(0.,0.,-1.),(-0.0639648803786464,-0.99795215019466,
0.),(-0.00944146999133675,-0.035967423059283,0.99930836238014),(-1.,0.,
0.),(0.,1.,0.),(0.,0.,1.),(-1.,0.,0.),(0.,-0.707106886553654,-0.707106675819425),
(0.,-1.,0.),(0.,-0.707106886553654,-0.707106675819425),(0.,-1.,0.),(-1.,
0.,0.),(-1.,0.,0.),(0.,0.,-1.),(0.,-0.707106886553654,-0.707106675819425),
(0.,0.,-1.),(0.,-0.707106886553654,-0.707106675819425),(-1.,0.,0.),(-1.,
0.,0.),(0.,1.,0.),(0.,0.,-1.),(-1.,0.,0.),(0.,0.,1.),(0.,1.,0.),(0.,0.,
1.),(0.,1.,0.),(-1.,0.,0.),(0.,1.,0.),(0.707106570452139,0.,0.707106991920893),
(0.,0.,1.),(0.,0.,1.),(-1.,0.,0.),(0.,1.,0.),(0.,0.,-1.),(0.707106912895459,
0.,-0.707106649477611),(0.,0.706664983334085,-0.707548303177555),(0.,1.,
0.),(0.,0.,1.),(-1.,0.,0.),(-1.,0.,0.),(0.,1.,0.),(0.,0.,-1.),(0.,1.,0.),
(0.,0.,1.),(0.707106570452139,0.,0.707106991920893),(-0.336539098657152,
0.941669493545921,0.),(0.,0.,-1.),(-0.313760387743984,0.949465766763619,
0.00831726077015496),(0.,0.,1.),(0.,0.,1.),(-0.172060910147762,-0.984722495594448,
0.0267703169455812),(-0.48444393246399,-0.874702982200695,0.0144488486750991),
(0.,0.,-1.),(-0.341439907674501,-0.939453664678479,0.0290792257359971),
(0.,0.,1.),(0.,-1.,0.),(-0.101656679944803,-0.00437744488186082,0.9948099101833),
(0.,-1.,0.),(-0.307360577952648,-0.00416961073350335,0.951583989707133),
(0.,-1.,0.),(-0.51640823412475,0.000226678957019251,0.856342504109663),
(0.,-1.,0.),(-0.688264276572333,0.,0.725460050998236),(0.,-1.,0.),(-0.823663900824056,
-0.00449544495163928,0.567060463666783),(0.,-1.,0.),(-0.932331488548673,
-0.00447961996976689,0.361577002124778),(0.,-1.,0.),(-0.984043743491936,
0.,0.177926700903425),(0.,-1.,0.),(-0.998850564847662,0.,0.047932756059995),
(-1.,0.,0.),(0.,1.,0.),(0.,0.,-1.),(0.,1.,0.),(0.,0.,-1.),(-1.,0.,0.),(0.,
1.,0.),(0.,0.,-1.),(-1.,0.,0.),(0.,1.,0.),(1.,0.,0.),(0.,0.,1.),(0.,1.,
0.),(0.707106570452139,0.,0.707106991920893),(1.,0.,0.),(-0.478844481325504,
0.877892990575458,0.00344380640973058),(-0.728513924865372,0.684949105610928,
-0.0105916948615431),(0.,0.,-1.),(-0.433503077931863,0.900911295500088,
0.0208307240381574),(0.,0.,1.),(-0.710700780760631,0.703492237840015,-0.00175257669647607),
(-0.604728268674136,-0.796397071487185,-0.00744483666828904),(0.,0.,1.),
(-0.817268040672104,0.576242219432627,-0.00422542771099145),(0.,0.,-1.),
(-0.79967157970229,0.600422584841917,0.00425255548999547),(0.,0.,1.),(-0.737398945395357,
-0.67541739183561,0.0073581339887896),(0.,0.,-1.),(-0.801766213230494,-0.597584964234984,
-0.0079466875053124),(0.,0.,1.),(-0.839030096596081,-0.544058458976488,
0.00537496252078656),(0.,0.,-1.),(-0.990419081311144,-0.135207128750838,
0.028090491447168),(0.707106570452139,0.,0.707106991920893),(0.,1.,0.),
(1.,0.,0.),(0.,1.,0.),(0.500264320262267,0.706895524256426,0.500034326480457),
(0.707548224201646,0.706665062408704,0.),(-0.883380116573362,-0.468336804874106,
-0.0173264780941334),(-0.978105842102477,-0.200114654099398,0.0571234352930781),
(0.,0.,1.),(-0.939724028649835,0.341933832076492,-6.67803101675365E-5),
(0.,0.,-1.),(-0.925536104184767,0.37865337280909,0.00213145743194111),(0.,
0.,1.),(0.,1.,0.),(0.707106991920772,0.,0.707106570452261),(1.,0.,0.),(1.,
0.,0.),(0.,1.,0.),(0.707106912895459,0.,-0.707106649477611),(0.,1.,0.),
(0.,0.,1.),(0.707106991920772,0.,0.707106570452261),(-0.991968916225445,
0.126452829291283,-0.0027113108907605),(0.,0.,1.),(-0.998188727986618,-0.0587459897711319,
0.0129681149851558),(0.,0.,-1.),(0.,0.,-1.),(0.,0.706664983334085,-0.707548303177555),
(0.500394152834232,0.706548817093772,-0.500394305395958),(0.707106673394098,
0.,-0.707106888978981),(0.,0.,-1.),(-0.400339805054742,0.91606586655379,
0.0234812398263857),(-0.922965970196586,0.384881563417989,0.),(-0.993340683971307,
0.115214085802982,0.),(0.,0.,-1.),(-0.979326168247801,-0.193920755769988,
0.0575760077347962),(0.,0.,1.),(0.,0.,1.),(-0.996527158060923,-0.0803643757658521,
0.021798861318524),(1.,0.,0.),(0.,1.,0.),(0.,0.,1.),(0.,1.,0.),(0.,0.,1.),
(0.707106991920772,0.,0.707106570452261),(0.,1.,0.),(1.,0.,0.),(0.707106991920772,
0.,0.707106570452261),(-0.349581844316333,0.936903944514812,0.0018795948969888),
(-0.00831305762176829,0.019578957793031,0.999773753148539),(-0.557106648937642,
0.830248445528765,-0.0178801679673552),(-0.254290462291049,-0.967127891767037,
4.18813842860624E-5),(-0.650787205158468,-0.759251021019579,-0.00372836194033298),
(-0.0095553599844108,-0.0310226172973623,0.999473007295139),(0.,0.,-1.),
(-0.734227836065857,-0.67886459365644,0.00723520737271132),(-0.259380911221306,
-0.965774921490824,0.000586441300257913),(0.707106912895459,0.,-0.707106649477611),
(1.,0.,0.),(0.,1.,0.),(0.,0.706664983334085,-0.707548303177555),(-0.658397012105779,
-0.752665706331128,-0.00277650198034891),(-0.952393871146977,-0.304766583731058,
-0.00795258716241788),(-0.0102604074231801,-0.00866012581541929,0.999909859067492),
(-0.739699715379141,-0.672889544921615,0.00799946268193235),(0.,0.,-1.),
(-0.973060912110508,-0.230547264686865,-0.000648126585479157),(-0.5202833457808,
0.853992859481684,0.00119835613802471),(-0.926731553834299,0.375709497727363,
0.0033166919239653),(-0.747589883429277,0.663902721518823,-0.0185079051785875),
(-0.0090057039617278,0.00552688980423453,0.999944173834343),(-0.972762722284356,
0.224992459434829,0.0557770502213487),(-0.922965970196586,0.384881563417989,
0.),(-1.,0.,0.),(0.,0.,-1.),(-0.965011555002353,0.258410310090672,0.0444613354588313),
(-0.0100899116577844,0.000633790125103241,0.999948894690531),(-1.,0.,0.),
(-0.988413665140408,-0.151737034455563,-0.00378139370286588),(-0.0110879207105321,
-0.00166201694267767,0.999937145881679),(-0.993632932829446,-0.112665854617773,
0.),(0.,0.,-1.),(0.,1.,0.),(0.50039413594661,0.706548868700251,-0.500394249416038),
(0.,0.706664983334085,-0.707548303177555),(0.,1.,0.),(0.707548224201646,
0.706665062408704,0.),(0.500394066335189,0.70654908142399,-0.500394018664741),
(-0.214317227314987,0.,-0.976764109739919),(0.,1.,0.),(-0.187308758777652,
-0.00374740442786387,0.98229394065383),(-0.396657889111563,-0.000655717366193208,
-0.917966278814366),(0.,1.,0.),(0.,1.,0.),(-0.612184707503303,0.00335251029908003,
-0.790707685920524),(-0.467048753006502,-0.000227834428263337,0.88423153665007),
(0.499984405056917,-0.707250794430283,0.499811873085878),(0.707106781186538,
-0.707106781186557,0.),(1.,0.,0.),(0.70710665366201,0.,0.707106908711062),
(0.,-1.,0.),(0.707106781186538,-0.707106781186557,0.),(0.499951999330518,
-0.707337099287016,0.499722149136546),(0.500296684566647,0.70680912646363,
0.500124070765786),(0.70710665366201,0.,0.707106908711062),(1.,0.,0.),(0.707548224201646,
0.706665062408704,0.),(-0.846239922620111,0.00561867584202929,-0.532772394034911),
(0.,1.,0.),(-0.754352719327041,0.00373069723100256,0.656458724324743),(0.500081994664741,
-0.706990798030994,-0.500082003387076),(0.707106673394098,0.,-0.707106888978981),
(1.,0.,0.),(0.707106781186538,-0.707106781186557,0.),(0.,-1.,0.),(0.500081970250536,
-0.706990872436984,-0.50008192260982),(0.707106781186538,-0.707106781186557,
0.),(0.500394090709614,0.706549006938842,-0.500394099462248),(0.707548224201646,
0.706665062408704,0.),(1.,0.,0.),(0.707106673394098,0.,-0.707106888978981),
(-0.904228063992628,-0.00299111406131623,-0.427039414486316),(0.,1.,0.),
(-0.998139973382681,0.00142872099915464,-0.0609471270194634),(0.,1.,0.),
(-0.960257178799224,-0.00400391672461359,0.279088013385416),(0.,1.,0.),
(-0.997927449407244,0.00282910597473141,0.0642868717463804),(0.,1.,0.),
(-0.96862123604879,0.0027667485788743,-0.24852614787506),(-0.976421041753004,
0.00430625596723492,0.215831891483912),(-0.890855764540211,0.00571282733981767,
0.454250338898346),(-0.965566435023164,-0.000157895330101692,-0.260156557914121),
(-0.994607018907294,0.00142844793937899,-0.103705532527583)),$,(3,3,3,1,
1,1,2,2,2,60,60,60,67,67,67,67,4,4,4,84,84,84,84,81,81,81,7,7,7,5,5,5,6,
6,6,23,23,23,49,49,49,8,8,8,24,24,24,25,25,25,51,51,51,26,26,26,10,10,10,
13,13,13,9,9,9,166,166,166,17,17,17,14,14,14,38,38,38,179,179,179,12,12,
12,16,16,16,11,11,11,157,157,157,15,15,15,39,39,39,180,180,180,18,18,18,
19,19,19,41,41,41,37,37,37,40,40,40,20,20,20,21,21,21,76,76,171,171,171,
171,168,168,168,168,22,22,22,47,47,47,50,50,50,42,42,42,27,27,27,63,63,
63,52,52,52,30,30,30,169,169,169,169,29,29,29,28,28,28,31,31,31,64,64,64,
69,69,69,32,32,32,65,65,65,158,158,158,36,36,36,33,33,33,34,34,34,71,71,
71,35,35,35,70,70,70,72,72,72,124,124,124,43,43,43,44,44,44,181,181,181,
46,46,46,45,45,45,182,182,182,144,144,48,48,48,77,77,148,148,153,153,164,
164,176,176,184,184,142,142,58,58,58,143,143,54,54,54,56,56,56,53,53,53,
79,79,55,55,55,78,78,204,204,204,145,145,159,159,170,170,178,178,186,186,
193,193,203,203,118,118,117,117,150,150,155,155,160,160,173,173,188,188,
198,198,205,205,206,206,206,57,57,57,62,62,62,210,210,210,147,147,152,152,
165,165,175,175,190,190,196,196,208,208,207,207,207,59,59,59,119,119,120,
120,68,68,68,61,61,61,82,82,82,66,66,66,83,83,83,74,74,74,73,73,73,100,
100,100,95,95,95,75,75,75,122,122,122,102,102,102,86,86,86,96,96,96,87,
87,88,88,80,80,91,91,89,89,149,149,156,156,163,163,174,174,183,183,191,
191,199,199,209,209,85,85,85,103,103,103,101,101,101,114,114,114,116,116,
116,92,92,92,90,90,90,93,93,98,98,99,99,94,94,97,97,105,105,105,113,113,
113,214,214,214,107,107,107,106,106,104,104,141,141,141,140,140,140,125,
125,125,110,110,111,111,172,172,172,172,129,129,129,109,109,108,108,112,
112,115,115,115,123,123,123,139,139,139,121,128,128,126,126,126,127,127,
127,138,138,138,138,131,131,131,133,133,133,130,130,132,132,132,135,135,
135,134,134,134,137,137,136,136,167,167,167,213,213,213,146,146,151,154,
154,162,162,161,216,216,216,216,212,212,212,218,218,218,218,185,185,177,
215,215,215,215,211,211,211,217,217,217,217,189,202,202,192,192,201,201,
194,194,197,187,195,200),((1,5,7),(6,10,8),(3,13,4),(11,4,13),(7,18,1),
(17,9,20),(24,8,10),(26,20,9),(2,19,14),(23,14,19),(27,31,33),(34,32,36),
(30,29,39),(32,41,36),(27,33,42),(43,35,45),(34,36,46),(28,44,49),(28,49,
51),(29,52,39),(43,45,55),(56,49,44),(57,60,63),(65,67,58),(63,60,69),(64,
71,66),(72,60,57),(59,75,73),(59,78,75),(79,58,67),(82,84,87),(81,89,90),
(93,87,84),(95,97,88),(99,88,97),(101,90,89),(82,102,84),(83,92,103),(61,
74,76),(105,69,60),(108,106,62),(112,61,76),(113,108,62),(94,86,114),(96,
94,114),(117,84,102),(115,85,119),(69,105,120),(123,70,122),(70,123,125),
(128,66,71),(47,117,102),(104,129,45),(103,92,130),(133,120,105),(107,136,
134),(109,136,107),(47,38,117),(37,139,118),(115,119,142),(143,118,139),
(137,121,135),(124,121,137),(140,36,41),(45,129,55),(48,54,145),(147,149,
50),(151,51,49),(152,50,149),(154,145,54),(155,55,157),(157,55,129),(145,
154,161),(163,148,146),(164,161,167),(171,162,166),(169,173,165),(170,165,
173),(154,176,161),(176,167,161),(163,179,148),(162,171,180),(182,177,156),
(156,160,182),(168,178,174),(178,184,174),(185,188,192),(191,190,194),(185,
197,188),(200,189,199),(202,194,190),(193,196,186),(187,203,198),(199,206,
200),(207,198,203),(204,186,196),(111,77,209),(110,111,209),(213,209,77),
(212,75,215),(78,215,75),(116,218,98),(221,98,218),(223,225,97),(99,97,
225),(144,218,116),(138,110,209),(144,141,218),(227,210,214),(209,229,138),
(230,211,232),(211,228,232),(227,214,234),(234,214,236),(238,236,214),(240,
238,214),(242,240,214),(214,217,242),(219,244,222),(222,244,224),(40,218,
141),(220,39,245),(231,233,137),(233,124,137),(245,39,52),(53,153,246),
(248,249,52),(245,52,249),(150,246,153),(252,254,257),(259,260,251),(262,
257,254),(258,264,265),(266,260,259),(253,267,255),(260,270,251),(270,272,
251),(272,274,251),(274,276,251),(276,278,251),(278,280,251),(282,251,280),
(268,251,282),(256,284,263),(264,286,265),(287,263,284),(284,256,288),(288,
256,290),(290,256,292),(292,256,294),(296,294,256),(298,296,256),(300,298,
256),(302,255,267),(304,300,256),(305,246,172),(247,307,250),(305,172,309),
(310,311,306),(250,307,314),(316,314,307),(316,307,318),(318,307,320),(322,
320,307),(324,322,307),(324,307,326),(328,326,307),(329,306,311),(150,181,
246),(181,172,246),(332,12,195),(333,334,10),(195,201,332),(335,331,200),
(16,195,12),(10,336,24),(10,334,336),(309,338,341),(308,343,345),(341,338,
347),(351,342,349),(351,344,342),(175,309,172),(338,309,175),(345,312,308),
(347,338,353),(355,350,348),(356,195,16),(15,359,357),(360,14,23),(339,
174,362),(366,353,338),(340,364,365),(362,174,184),(335,200,368),(206,368,
200),(356,205,195),(358,371,203),(207,203,371),(372,357,359),(354,367,375),
(355,376,350),(377,375,367),(378,365,364),(233,380,124),(381,125,123),(380,
233,382),(232,228,383),(266,385,260),(385,266,386),(286,387,265),(261,384,
271),(386,388,385),(384,389,271),(346,352,25),(24,312,345),(21,25,352),
(336,390,24),(390,392,24),(392,394,24),(394,396,24),(396,398,24),(398,400,
24),(402,24,400),(404,24,402),(312,24,404),(374,21,352),(406,21,374),(408,
410,22),(360,23,412),(413,22,410),(375,415,407),(409,407,415),(377,418,
375),(415,375,418),(382,421,380),(423,125,381),(382,424,421),(425,383,228),
(427,388,386),(271,389,428),(426,429,422),(426,431,429),(432,425,228),(386,
433,427),(387,286,434),(125,423,430),(433,435,427),(428,436,271),(435,433,
437),(434,286,438),(363,419,379),(363,440,419),(362,443,441),(184,443,362),
(437,446,435),(436,448,271),(431,449,429),(430,450,125),(431,451,449),(452,
432,228),(411,361,414),(411,373,361),(453,371,409),(207,371,457),(453,457,
371),(409,415,459),(453,409,459),(449,451,462),(463,452,228),(439,464,447),
(465,438,466),(470,438,286),(466,438,470),(473,449,462),(474,125,450),(447,
464,475),(448,476,271),(464,478,475),(477,271,476),(464,473,462),(125,474,
465),(478,464,462),(477,463,271),(228,271,463),(465,466,125),(416,442,479),
(480,441,482),(460,417,481),(460,481,483),(416,420,442),(485,482,441),(441,
443,485),(287,284,488),(287,488,471),(489,285,289),(488,284,490),(336,334,
491),(494,335,368),(491,334,496),(337,493,391),(208,497,369),(466,494,368),
(370,500,467),(454,461,484),(454,484,487),(208,458,497),(492,495,501),(503,
391,493),(501,495,504),(494,466,505),(507,490,509),(507,488,490),(489,289,
510),(512,472,508),(488,507,471),(466,470,514),(511,515,508),(512,508,515),
(502,506,518),(503,519,391),(289,516,510),(506,520,518),(466,521,505),(517,
520,513),(466,514,521),(520,517,518),(391,519,516),(516,289,391),(498,455,
486),(499,485,522),(455,498,456),(524,467,500),(525,522,485),(525,485,443),
(315,245,249),(315,528,245),(244,529,224),(271,228,530),(530,228,235),(271,
530,273),(315,531,528),(532,224,529),(531,315,317),(235,237,530),(391,289,
291),(291,393,391),(534,531,317),(534,317,319),(530,237,273),(237,535,273),
(237,239,535),(533,224,532),(393,291,293),(395,393,293),(131,91,536),(540,
90,101),(536,91,542),(159,543,183),(543,444,183),(273,535,275),(293,295,
395),(321,534,319),(534,321,547),(533,548,224),(397,395,295),(275,535,239),
(549,275,239),(239,241,549),(550,68,127),(554,79,67),(550,555,68),(468,
523,557),(527,557,523),(132,544,158),(132,539,544),(277,275,549),(469,551,
126),(560,551,469),(397,295,399),(399,295,297),(561,547,321),(561,321,323),
(549,241,243),(277,549,279),(80,100,226),(101,79,540),(80,226,216),(554,
540,79),(217,224,562),(564,242,217),(564,217,566),(566,217,562),(568,224,
548),(562,224,568),(399,297,401),(243,565,570),(549,243,571),(571,243,570),
(547,561,569),(281,279,571),(549,571,279),(401,297,299),(323,325,561),(401,
299,403),(570,565,567),(570,283,281),(570,281,571),(325,569,561),(325,572,
569),(563,569,572),(325,327,573),(572,325,573),(405,403,299),(405,299,301),
(563,269,567),(283,567,269),(570,567,283),(563,330,269),(330,563,327),(327,
563,573),(563,572,573),(303,269,330),(301,303,405),(313,303,330),(313,405,
303),(556,553,541),(537,541,553),(526,445,558),(546,558,445),(538,552,545),
(559,545,552)),());
#45=COMPLEX_TRIANGULATED_FACE('ConvergentBody',#47,578,((-1.,0.,0.),(-0.707106781186547,
-0.707106781186547,0.),(-0.49998440505692,-0.707250794430278,0.499811873085882),
(-0.707106653662013,0.,0.707106908711059),(-1.,0.,0.),(-0.707548224201656,
0.706665062408694,0.),(-0.500394027270869,0.706549066979293,-0.500394078124764),
(-0.70710674525573,0.,-0.707106817117364),(-0.70710674525573,0.,-0.707106817117364),
(-1.,0.,0.),(-0.500081931223329,-0.706990858001278,-0.500081982045506),
(-0.707106781186547,-0.707106781186547,0.),(-0.707106781186547,-0.707106781186547,
0.),(0.,-1.,0.),(-0.499951999330522,-0.707337099287008,0.499722149136552),
(-0.70710674525573,0.,-0.707106817117364),(0.,0.,-1.),(0.,-0.707106702161212,
-0.707106860211874),(-0.500082032589889,-0.706990764629949,-0.500082012682645),
(-0.707106781186547,-0.707106781186547,0.),(-0.500081958755267,-0.706990832640909,
-0.50008199036679),(0.,-1.,0.),(-1.,0.,0.),(-0.707106653662013,0.,0.707106908711059),
(-0.50029668456665,0.706809126463625,0.500124070765789),(-0.707548224201656,
0.706665062408694,0.),(-0.707106653662013,0.,0.707106908711059),(-0.50008200056241,
-0.706990668269999,0.50008218093893),(0.,-0.70710635971779,0.707107202655054),
(0.,0.,1.),(-0.500059550081304,-0.707050533804927,0.500019988619106),(0.,
-1.,0.),(0.,-0.70710635971779,0.707107202655054),(-0.707548224201656,0.706665062408694,
0.),(-0.500264320262272,0.706895524256419,0.500034326480463),(0.,1.,0.),
(0.,1.,0.),(-0.707548224201656,0.706665062408694,0.),(-0.500394054815826,
0.706549041586304,-0.500394086434334),(-0.500394128600664,0.706548973565947,
-0.500394108693226),(0.,0.706664983334085,-0.707548303177555),(0.,0.,-1.),
(-0.70710674525573,0.,-0.707106817117364),(-0.500371669786033,0.706608820348611,
0.50033205681935),(0.,0.706664640677145,0.707548645406548),(0.,1.,0.),(-0.707106653662013,
0.,0.707106908711059),(0.,0.,1.),(0.,0.706664640677145,0.707548645406548),
(-0.500394096485556,0.706548877129831,0.500394276974647),(0.,-1.,0.),(0.,
0.,1.),(1.,0.,0.),(0.,-1.,0.),(-0.500082072336392,-0.706990728018423,-0.500082024695669),
(0.,-0.707106702161212,-0.707106860211874),(0.,-1.,0.),(1.,0.,0.),(0.,0.,
-1.),(0.,1.,0.),(-0.707106781186548,0.,0.707106781186547),(-1.,0.,0.),(-0.500394168357131,
0.706548936915472,-0.500394120686676),(0.,1.,0.),(0.,0.706664983334085,
-0.707548303177555),(0.,1.,0.),(0.,0.,1.),(-0.707106465084954,0.,0.707107097287999),
(-0.707106465084954,0.,0.707107097287999),(0.,1.,0.),(-1.,0.,0.),(0.998175045232232,
0.,-0.0603869114596158),(0.,1.,0.),(0.,1.,0.),(0.996738017396846,0.00125855075337905,
0.0806953575232512),(1.,0.,0.),(0.,-1.,0.),(0.,0.,1.),(0.,1.,0.),(1.,0.,
0.),(0.,0.,1.),(0.995501011530543,-0.00784937738111556,0.0944252260595374),
(0.,-1.,0.),(0.991389458160685,-0.00145042712131242,0.13093830039003),(0.,
1.,0.),(0.959911809802075,0.000777390273001159,0.280301111426389),(0.946897850662213,
0.00313011838449709,0.321519303884199),(0.974268991684531,0.00461834640520343,
0.22534108084965),(1.,0.,0.),(0.,0.,-1.),(0.,-1.,0.),(0.,-1.,0.),(0.998175045232232,
0.,-0.0603869114596158),(0.979888055072233,-0.000163375694988597,-0.199547921149631),
(0.,-1.,0.),(0.97597804389317,0.00104775446807127,-0.217866381181301),(0.,
1.,0.),(0.,1.,0.),(0.,0.,-1.),(1.,0.,0.),(1.,0.,0.),(0.,-1.,0.),(0.,0.,
1.),(0.,-1.,0.),(0.950062753962401,-0.0123050463034613,0.311816210882063),
(1.,0.,0.),(0.,0.,1.),(0.,1.,0.),(0.,1.,0.),(0.998909656650242,0.,0.0466850923839289),
(0.998909656650242,0.,0.0466850923839289),(0.,-1.,0.),(0.,1.,0.),(0.,0.,
1.),(1.,0.,0.),(0.97858074887388,0.,0.205863347717451),(0.,1.,0.),(1.,0.,
0.),(0.,-1.,0.),(0.,0.,-1.),(0.,-1.,0.),(0.,0.,-1.),(1.,0.,0.),(1.,0.,0.),
(0.,-1.,0.),(0.,0.,-1.),(0.97858074887388,0.,0.205863347717451),(0.,-1.,
0.),(0.,-1.,0.),(0.0841320835357612,-0.000784625669270949,0.996454302455708),
(0.,-1.,0.),(1.,0.,0.),(0.,-0.707106886553655,-0.707106675819425),(0.,-1.,
0.),(1.,0.,0.),(0.,0.,-1.),(0.89428244840809,0.,0.44750296364296),(0.,-1.,
0.),(0.89428244840809,0.,0.44750296364296),(0.,1.,0.),(0.941311995725509,
-0.000386100139783995,-0.337537520329135),(0.,1.,0.),(0.918106919074392,
0.0011749667818032,-0.39633105429778),(0.,-1.,0.),(0.937387342665112,0.000619063665248732,
-0.348288079858352),(0.,1.,0.),(0.876977983653172,-0.000529807797219694,
0.480530264906712),(0.884181456865419,-0.000737287739094567,0.467143027072154),
(0.,-1.,0.),(0.882394256165226,0.0014235443711785,-0.470508608006315),(0.863089227437182,
-0.000364446666987197,-0.505051336658477),(0.,-1.,0.),(0.853455518137285,
-0.00393063848326789,0.521150869367145),(0.,1.,0.),(0.847021601472913,-0.00236705221289308,
-0.531553199315068),(0.,1.,0.),(1.,0.,0.),(0.,0.,-1.),(0.755347040943281,
0.,0.65532499398255),(0.,1.,0.),(0.755347040943281,0.,0.65532499398255),
(0.,-1.,0.),(0.,1.,0.),(0.790732684536719,-0.0024575703564295,0.612156664550257),
(0.768968343747229,0.000369894176866772,0.639286750600183),(0.,-1.,0.),
(0.810836339536495,0.00188763272387859,-0.585269909810642),(0.,-1.,0.),
(0.743480641967919,0.00357482166605265,0.668747901431494),(0.,1.,0.),(0.769617299911969,
-0.00257386850556101,-0.63850026380349),(0.,-1.,0.),(0.723319770710635,
0.0015591608801261,-0.690511461393991),(0.710698487081976,6.83452462062864E-5,
-0.703496734738916),(0.,0.,1.),(1.,0.,0.),(0.,-1.,0.),(1.,0.,0.),(0.,-1.,
0.),(0.,0.,1.),(0.,0.,-1.),(0.,-1.,0.),(1.,0.,0.),(0.,-1.,0.),(1.,0.,0.),
(0.,0.,-1.),(0.,1.,0.),(0.695596129066357,-0.00194037343994078,0.718430414291331),
(0.,1.,0.),(0.585448954046325,-0.00098636303111014,0.810708671036665),(0.,
1.,0.),(0.475001391982576,-0.000967019926280106,0.879984512640465),(0.,
1.,0.),(0.332625333290199,0.000226557231106373,0.943059031198687),(0.,1.,
0.),(0.160166883891477,-0.000126599144771191,0.987089941837698),(0.,1.,
0.),(0.0350230239708386,0.,0.999386505708346),(0.,1.,0.),(0.,0.,1.),(1.,
0.,0.),(0.,1.,0.),(0.673623464357222,-0.00234085512663836,-0.73907100380454),
(0.,-1.,0.),(0.698099472236716,0.00804479171061337,0.71595559093365),(0.522698423442119,
-0.00560421432341124,0.852499238071766),(0.610200511988285,0.00335131554957167,
0.792239928211979),(0.,1.,0.),(0.622043752626702,0.,0.782982483723673),
(0.,-1.,0.),(0.551997645746228,-0.00971244975173073,0.833789102477624),
(0.,0.,-1.),(0.888948411661766,0.457958802059253,0.00666760980248437),(0.,
-0.707106702161212,-0.707106860211874),(0.,0.,-1.),(1.,0.,0.),(0.,0.,-1.),
(0.560343338106754,0.8281354103194,0.0143904695718964),(0.,0.,-1.),(0.160803135496102,
0.986932911518633,0.0102849295562261),(0.,0.,-1.),(0.972948073712229,-0.230986607712051,
0.00415125491175249),(0.,0.,-1.),(0.993256975835239,0.115925372054655,-0.00137407009474337),
(0.,0.,-1.),(0.998046906621687,-0.0624463123280918,0.00168233751209469),
(0.,0.,-1.),(0.973464741220424,0.22883705469319,0.),(0.825574266611241,
0.564293478882498,0.),(0.825574266611241,0.564293478882498,0.),(0.,0.,-1.),
(0.564293378116028,0.825574335486758,0.),(0.,0.,-1.),(0.397628783219842,
0.917514962518572,0.00759238497776774),(0.,0.706664983334085,-0.707548303177555),
(0.,1.,0.),(-1.,0.,0.),(-0.70710670216121,0.,-0.707106860211876),(0.,0.,
-1.),(0.993743991331417,0.111648835710821,0.00272344948978118),(0.,0.,-1.),
(0.993632932829446,-0.112665854617778,0.),(0.,0.,-1.),(0.765469351011268,
-0.643438925183252,0.00655913267202834),(0.973060912110506,-0.230547264686871,
-0.000648126585479177),(0.,0.,-1.),(0.304776221462624,-0.952423989004354,
0.),(0.76278252179485,-0.646624963618415,0.00624346616647775),(0.,0.706664983334085,
-0.707548303177555),(-0.70710670216121,0.,-0.707106860211876),(0.,0.,-1.),
(0.,-1.,0.),(0.623655313520809,0.00196897109455917,-0.781696982896883),
(0.399375943504181,-0.00356812179137693,0.916780303157211),(0.,-1.,0.),
(0.,-1.,0.),(0.474938494034711,-0.000882101503006982,0.88001855024822),
(0.448982167115782,0.0034499828558624,0.893534057118312),(0.,1.,0.),(0.,
1.,0.),(0.570318754760354,-0.00254599866745005,-0.821419524883226),(0.,
-1.,0.),(0.511409017596554,0.00163543798108274,-0.859335872673507),(0.495877575274925,
3.02101668519471E-5,-0.868392439756822),(0.,0.,1.),(1.,0.,0.),(0.,-1.,0.),
(0.,-0.70710635971779,0.707107202655054),(1.,0.,0.),(0.,0.,1.),(0.,0.,1.),
(0.,1.,0.),(1.,0.,0.),(0.,0.706664640677145,0.707548645406548),(0.,0.,1.),
(1.,0.,0.),(0.,-1.,0.),(0.,-0.707106702161212,-0.707106860211874),(1.,0.,
0.),(0.,1.,0.),(0.450680799423552,-0.00233260700806057,-0.892682124821313),
(0.272406968249639,-0.00145130771042103,0.962181031487823),(0.,-1.,0.),
(0.277974300061405,-0.00376249242944361,0.960581142931762),(0.,1.,0.),(0.,
-1.,0.),(1.,0.,0.),(0.,-0.70710635971779,0.707107202655054),(0.,1.,0.),
(1.,0.,0.),(0.,0.,1.),(0.,0.706664640677145,0.707548645406548),(1.,0.,0.),
(0.,1.,0.),(0.,-1.,0.),(0.390878352426991,0.00208324140544704,-0.920439989194955),
(0.189171884046214,-0.00210946796082503,0.981941723541335),(0.,-1.,0.),
(0.,1.,0.),(0.344715834599142,-0.00373448309704334,-0.938699657511717),
(0.,-1.,0.),(0.263090447310792,0.00177939376630233,-0.964769532215664),
(0.265507875816289,0.000503170724088427,-0.964108559602467),(0.106112953791097,
-0.00265335773747479,0.994350542178384),(0.,1.,0.),(0.,1.,0.),(0.228267466910803,
-0.0017779094684692,-0.973596837807132),(0.0530933636912888,-0.00119147649134524,
0.99858884187423),(0.,-1.,0.),(0.,1.,0.),(0.0837241221861822,-0.000350094796739981,
-0.99648891052424),(0.,-1.,0.),(0.124015491403885,-0.000393512944421914,
-0.992280203893747),(0.0123693138942693,0.00160808303958516,0.999922204045256),
(0.999163989254797,0.0408818122939837,0.),(0.012741643434325,0.00379766682171875,
0.999911610218275),(0.960349778845527,0.278763486327808,-0.00438417172482098),
(0.0109327545341583,0.0192846397337441,0.999754258579895),(0.677956667243879,
0.734893725761823,-0.0174919746020304),(0.0104418532430774,0.0249387606289482,
0.99963444614476),(0.0937678611111987,0.995571428641013,-0.00671704520775665),
(0.00796293659246965,-0.00106076287173277,0.999967732690887),(0.988413665140407,
-0.15173703445557,-0.00378139370286599),(0.00707875527276073,-0.00510149637166381,
0.999961932254703),(0.952393871146974,-0.304766583731066,-0.00795258716241811),
(0.711365508787743,-0.702822098425385,0.000459208116812325),(0.0062807143428568,
-0.0162464092504479,0.999848291899231),(0.707106781186569,-0.707106781186526,
0.),(0.304776221462624,-0.952423989004354,0.),(0.00611498985729283,-0.0191093091339419,
0.999798700340958),(0.0769583424659121,-0.997034309101196,0.),(0.,0.,1.),
(0.993530920004645,0.113561925814609,0.),(0.,0.,1.),(0.825574266611241,
0.564293478882498,0.),(0.973464741220424,0.22883705469319,0.),(0.,0.,1.),
(0.621873486155413,0.782728017299352,0.024702594024477),(0.825574266611241,
0.564293478882498,0.),(0.,0.,1.),(0.555428321041842,0.831448981098722,0.0138553965853558),
(0.,0.,1.),(0.305875265863747,0.952069150841346,-0.00215725497340428),(0.,
0.,1.),(0.0821414422279845,0.996620681838736,0.),(0.,0.,1.),(0.,1.,0.),
(1.,0.,0.),(0.,0.,1.),(0.996136112247515,-0.0878055409312436,0.00174151031507578),
(0.,0.,1.),(0.967437212563105,-0.253082803337613,0.00378608015029896),(0.,
0.,1.),(0.895807287240243,-0.444439699519734,0.00163022025701277),(0.,0.,
1.),(0.745339809312765,-0.666684759578026,0.),(0.,0.,1.),(0.499729705943961,
-0.86425689312485,0.0577082635620192),(0.,0.,1.),(0.44481350378852,-0.892870712660015,
0.0701629340989727),(0.165739245811962,-0.986149599253446,-0.00628253849569567),
(0.,0.,1.),(0.0405672769537709,-0.999175909248595,-0.00134105100577879),
(0.,-1.,0.),(0.0207518379970785,-0.00146089502503452,-0.999783590086109),
(0.0772722656461636,0.000503238299853909,-0.997009901512077),(0.0015179914994326,
0.000846365076762753,-0.999998489682842),(1.,0.,0.),(0.,1.,0.),(0.000167242719360703,
0.00034892476602494,-0.999999925140687),(1.,0.,0.),(0.,1.,0.),(0.,0.,-1.),
(0.,-1.,0.),(1.,0.,0.),(0.,0.,-1.),(0.,-1.,0.),(1.,0.,0.),(1.,0.,0.),(0.,
1.,0.),(0.,0.,1.),(0.,1.,0.),(1.,0.,0.),(0.,0.,-1.),(0.,0.,1.),(1.,0.,0.),
(0.,1.,0.),(0.,-1.,0.),(0.,0.,1.),(1.,0.,0.),(0.,-1.,0.),(0.,0.,-1.),(1.,
0.,0.),(1.,0.,0.),(0.,-1.,0.),(0.,0.,1.),(-1.,0.,0.),(-0.707106781186548,
0.,0.707106781186547),(0.,1.,0.),(0.,1.,0.),(-1.,0.,0.),(-0.70710670216121,
0.,-0.707106860211876),(-0.70710670216121,0.,-0.707106860211876),(0.,1.,
0.),(0.,0.,-1.),(-0.707106781186548,0.,0.707106781186547),(0.,0.,1.),(0.,
1.,0.),(0.,1.,0.),(-0.707106781186548,0.,0.707106781186547),(0.,0.,1.),
(0.,1.,0.),(1.,0.,0.),(0.,0.,1.),(0.,1.,0.),(0.,0.,-1.),(1.,0.,0.),(0.319471733076359,
0.947593100593149,-0.00226439251212621),(0.154233606901427,-0.988034409573966,
0.),(0.,0.,-1.),(0.,1.,0.),(1.,0.,0.),(0.,0.,-1.),(0.,0.,-1.),(0.899118959142103,
-0.437704349202999,0.),(0.,0.,-1.),(0.705193683743512,-0.708924531470777,
0.0113082751644718),(0.,0.,-1.),(0.144341987310303,-0.989527203189493,-0.00114229912545532),
(0.53332276293742,-0.845697042161742,0.0190615689720876),(0.,0.,-1.),(0.0699601910239262,
-0.997549784056864,0.),(0.,-1.,0.),(0.,0.,1.),(1.,0.,0.),(1.,0.,0.),(0.,
0.,-1.),(0.,-1.,0.),(0.,0.,-1.),(1.,0.,0.),(0.,1.,0.),(0.,0.,1.),(-1.,0.,
0.),(0.,1.,0.),(-1.,0.,0.),(0.,1.,0.),(0.,0.,1.),(0.,1.,0.),(0.,0.,-1.),
(1.,0.,0.),(0.,0.,-1.),(1.,0.,0.),(0.,1.,0.),(-1.,0.,0.),(-0.707106465084954,
0.,0.707107097287999),(0.,1.,0.),(-0.707106465084954,0.,0.707107097287999),
(0.,1.,0.),(0.,0.,1.),(0.,1.,0.),(0.,0.,-1.),(1.,0.,0.),(1.,0.,0.),(0.,
1.,0.),(0.,0.,-1.),(0.,0.,1.),(0.,-1.,0.),(1.,0.,0.),(0.,-1.,0.),(1.,0.,
0.),(0.,0.,-1.),(0.,1.,0.),(0.,0.,1.),(1.,0.,0.),(0.,0.,1.),(1.,0.,0.),
(0.,1.,0.),(1.,0.,0.),(0.,1.,0.),(0.,0.,1.),(0.100614181823497,0.994909631699193,
0.00562238100484808),(0.,0.,-1.),(0.,0.,-1.),(1.,0.,0.),(0.,-0.707106886553655,
-0.707106675819425),(0.,-0.707106886553655,-0.707106675819425),(0.,0.,-1.),
(1.,0.,0.),(0.,-1.,0.),(0.,-0.707106886553655,-0.707106675819425),(1.,0.,
0.),(0.,0.,-1.),(0.,1.,0.),(1.,0.,0.),(0.,1.,0.),(1.,0.,0.),(0.,0.,-1.),
(0.,0.,-1.),(0.,1.,0.),(1.,0.,0.),(0.,1.,0.),(1.,0.,0.),(0.,0.,1.),(0.,
-1.,0.),(0.,0.,-1.),(1.,0.,0.),(1.,0.,0.),(0.,-0.707106839240064,-0.707106723133026),
(0.,-1.,0.),(1.,0.,0.),(0.,0.,-1.),(0.,-0.707106839240064,-0.707106723133026),
(1.,0.,0.),(0.,-1.,0.),(0.,-0.707105852328301,0.707107710043574),(0.,-0.707105852328301,
0.707107710043574),(1.,0.,0.),(0.,0.,1.),(0.,-1.,0.),(0.,-0.707106839240064,
-0.707106723133026),(1.,0.,0.),(0.,-0.707106839240064,-0.707106723133026),
(1.,0.,0.),(0.,0.,-1.),(0.,-1.,0.),(1.,0.,0.),(0.,0.,1.),(0.,-1.,0.),(0.,
0.,-1.),(1.,0.,0.),(0.,-0.707105852328301,0.707107710043574),(0.,-1.,0.),
(1.,0.,0.),(1.,0.,0.),(0.,0.,1.),(0.,1.,0.),(0.,-0.707105852328301,0.707107710043574),
(1.,0.,0.),(0.,0.,1.),(0.,0.,-1.),(0.,1.,0.),(1.,0.,0.),(1.,0.,0.),(0.,
0.,1.),(0.,0.706132384851847,0.708079836645164),(0.,0.,1.),(0.,-1.,0.),
(1.,0.,0.),(1.,0.,0.),(0.,0.706132384851847,0.708079836645164),(0.,1.,0.),
(0.,0.706132384851847,0.708079836645164),(0.,0.,1.),(1.,0.,0.),(1.,0.,0.),
(0.,1.,0.),(0.,0.,1.),(0.,1.,0.),(0.,0.,1.),(1.,0.,0.),(1.,0.,0.),(0.,0.706132384851847,
0.708079836645164),(0.,1.,0.),(1.,0.,0.),(0.,0.,-1.),(0.,1.,0.),(0.,1.,
0.),(1.,0.,0.),(0.,0.,-1.),(1.,0.,0.),(0.,0.,-1.),(0.,1.,0.),(0.,0.,1.),
(1.,0.,0.),(0.,1.,0.),(0.,1.,0.),(0.,0.,-1.),(1.,0.,0.)),$,(2,2,2,2,3,3,
3,3,1,1,1,1,6,6,6,51,51,51,51,5,5,5,4,4,4,4,62,62,62,62,70,70,70,8,8,8,
7,7,7,52,52,52,52,71,71,71,63,63,63,63,40,40,40,64,64,64,41,41,41,108,108,
108,65,65,65,145,145,145,124,124,124,11,11,10,10,12,12,12,42,42,42,9,9,
19,25,25,26,22,15,15,15,16,16,24,24,23,23,43,43,43,191,191,191,29,29,14,
14,14,13,13,17,17,192,192,192,20,20,18,18,18,193,193,193,138,138,138,21,
21,87,87,153,153,153,216,216,216,33,33,32,32,27,30,30,28,28,34,34,31,35,
35,36,37,37,38,38,190,190,190,48,48,49,49,44,44,45,39,39,47,47,46,46,53,
53,54,169,169,169,163,163,163,170,170,170,164,164,164,50,50,61,61,67,67,
75,75,82,82,88,88,201,201,201,58,58,55,55,55,56,56,57,57,59,103,103,166,
166,166,113,113,115,115,132,132,128,128,127,127,133,133,133,143,143,143,
149,149,107,107,107,107,98,98,100,100,104,104,104,112,112,112,119,119,119,
60,60,74,74,68,68,69,69,66,66,72,72,73,97,97,97,167,167,167,95,95,95,183,
183,183,162,162,162,76,76,79,79,78,78,165,165,165,186,186,186,187,187,187,
77,77,81,81,80,80,84,84,85,86,86,83,83,89,89,91,91,90,90,99,99,102,102,
110,110,116,116,101,101,105,105,105,111,111,111,118,118,129,129,134,134,
134,144,144,144,147,147,150,150,159,159,200,200,200,130,130,131,131,136,
136,142,142,148,148,151,151,151,161,161,93,93,92,94,94,94,202,202,202,211,
211,211,96,96,96,176,176,176,205,205,205,177,177,177,178,178,178,207,207,
207,179,179,179,109,109,109,106,106,106,121,121,121,122,122,122,120,120,
120,139,139,139,140,140,140,114,117,117,210,210,210,135,135,141,141,152,
152,152,160,160,137,137,137,213,213,213,184,184,184,125,125,125,123,123,
123,189,189,189,188,188,188,126,126,126,146,146,146,154,154,154,157,157,
157,214,214,214,155,155,155,225,225,225,227,227,227,222,222,222,158,158,
156,156,156,219,219,219,215,215,215,226,226,226,175,175,175,174,174,174,
204,204,204,209,209,209,168,168,168,172,172,172,171,171,171,173,173,173,
194,194,194,198,198,198,195,195,195,196,196,196,197,197,197,206,206,206,
199,199,199,203,203,203,180,180,180,208,208,208,182,182,182,212,212,212,
181,181,181,217,217,217,218,218,218,185,185,185,220,220,220,221,221,221,
223,223,223,224,224,224),((1,5,10),(2,12,13),(8,16,9),(20,13,12),(19,21,
11),(23,5,1),(4,27,24),(3,15,31),(3,31,28),(6,26,34),(38,6,34),(7,39,40),
(8,43,16),(44,35,25),(47,24,27),(50,44,25),(22,51,14),(22,54,51),(21,19,
55),(57,14,51),(32,14,57),(36,60,37),(63,40,39),(64,37,60),(36,46,66),(36,
70,60),(66,70,36),(72,75,76),(73,79,74),(82,76,75),(84,82,75),(85,74,79),
(75,86,87),(84,75,88),(87,88,75),(76,89,72),(93,72,89),(94,72,93),(94,96,
72),(73,97,98),(79,73,98),(77,83,102),(83,104,102),(82,84,105),(76,106,
89),(78,103,107),(110,111,106),(108,113,109),(110,116,111),(109,113,117),
(89,106,118),(111,118,106),(114,107,103),(91,121,92),(122,90,120),(95,92,
121),(119,112,125),(127,111,116),(128,129,112),(112,129,125),(131,119,125),
(134,119,131),(122,120,136),(137,127,116),(137,116,139),(117,113,140),(138,
129,128),(141,96,94),(97,142,98),(143,96,141),(95,121,144),(141,94,145),
(85,79,146),(148,86,147),(148,87,86),(149,144,121),(150,151,145),(151,141,
145),(104,152,102),(153,105,148),(84,88,105),(105,88,87),(87,148,105),(142,
154,156),(151,155,143),(98,142,156),(143,141,151),(139,159,137),(140,113,
160),(161,137,159),(162,129,138),(163,146,79),(165,147,164),(148,147,165),
(166,149,121),(167,151,150),(152,168,102),(165,169,153),(148,165,153),(170,
156,154),(151,171,155),(166,121,172),(167,173,174),(151,167,174),(80,58,
53),(81,52,175),(51,54,179),(180,175,52),(80,100,58),(59,99,181),(57,184,
32),(59,181,186),(187,163,79),(189,187,79),(189,79,191),(191,79,193),(193,
79,195),(197,195,79),(79,199,197),(81,175,200),(158,181,99),(165,164,188),
(170,202,156),(203,171,174),(174,171,151),(168,204,102),(205,169,165),(159,
207,161),(160,113,208),(209,161,207),(210,129,162),(211,188,190),(188,211,
165),(17,42,212),(18,214,56),(212,217,17),(217,219,17),(17,219,221),(223,
17,225),(17,221,225),(227,17,223),(231,17,227),(231,233,17),(215,17,233),
(65,235,41),(239,42,241),(212,42,239),(243,241,42),(243,42,246),(249,41,
235),(42,251,246),(172,121,252),(174,173,253),(206,192,254),(206,211,192),
(204,255,102),(205,165,211),(257,209,207),(207,258,257),(208,113,259),(256,
129,210),(202,260,156),(261,203,174),(252,121,262),(264,253,263),(264,174,
253),(190,192,211),(30,265,48),(29,33,268),(30,271,265),(30,270,271),(49,
274,45),(48,265,275),(277,179,54),(278,56,214),(236,64,60),(260,280,156),
(264,281,261),(174,264,261),(192,194,254),(257,258,282),(283,129,256),(282,
258,284),(259,113,285),(286,32,184),(288,268,33),(289,66,46),(292,45,274),
(294,289,46),(262,121,295),(264,263,296),(254,194,297),(298,102,255),(194,
196,297),(280,299,156),(300,281,264),(295,121,301),(303,296,302),(264,296,
303),(282,284,130),(284,304,130),(305,285,113),(299,306,156),(307,300,303),
(300,264,303),(297,196,308),(309,102,298),(196,198,308),(310,156,306),(311,
307,303),(301,121,312),(302,313,303),(304,314,130),(316,314,304),(304,318,
316),(318,304,320),(321,305,113),(314,322,130),(130,322,324),(327,130,324),
(330,130,327),(331,125,129),(198,332,308),(198,334,332),(334,198,337),(340,
337,198),(340,198,342),(342,198,344),(346,344,198),(347,197,199),(349,308,
332),(349,351,308),(351,353,308),(353,355,308),(355,357,308),(308,357,359),
(308,359,362),(363,102,309),(364,312,121),(313,365,366),(303,313,366),(311,
367,370),(366,367,311),(372,156,310),(311,303,366),(365,373,376),(366,365,
376),(374,364,121),(266,273,368),(272,380,369),(266,368,378),(367,366,376),
(369,380,382),(384,370,367),(385,271,270),(387,380,272),(267,377,388),(391,
388,377),(392,376,373),(395,267,388),(396,275,265),(315,240,242),(240,315,
317),(213,240,317),(323,315,242),(245,323,242),(245,325,323),(317,319,213),
(218,213,319),(244,248,326),(248,328,326),(62,397,237),(397,401,237),(238,
402,403),(238,403,250),(406,398,61),(406,61,410),(409,60,70),(400,399,412),
(400,412,404),(408,415,399),(415,412,399),(218,319,418),(418,319,321),(329,
247,419),(420,246,251),(329,419,331),(218,418,220),(421,220,321),(418,321,
220),(424,221,219),(426,424,219),(428,426,219),(431,428,219),(219,423,431),
(421,321,113),(331,419,433),(437,420,251),(419,438,433),(433,125,331),(251,
405,439),(437,251,439),(442,407,411),(70,446,409),(442,411,447),(448,404,
412),(451,439,405),(453,404,448),(408,444,415),(445,71,454),(443,445,454),
(457,455,69),(457,69,68),(456,460,444),(415,444,464),(460,464,444),(456,
458,460),(224,226,350),(226,222,350),(333,224,350),(336,224,333),(228,224,
336),(222,352,350),(354,352,222),(354,222,425),(230,229,335),(230,335,339),
(425,356,354),(425,427,356),(435,417,124),(413,417,435),(434,466,414),(467,
433,438),(465,126,416),(125,469,131),(126,465,471),(472,448,412),(473,414,
466),(427,358,356),(360,358,427),(360,427,430),(338,234,232),(234,338,341),
(475,459,67),(66,289,479),(475,67,480),(477,460,458),(341,343,234),(481,
234,343),(482,215,233),(345,481,343),(429,363,361),(429,432,363),(132,470,
484),(470,463,484),(133,485,486),(489,134,131),(133,486,490),(462,484,463),
(461,487,483),(487,461,492),(477,493,460),(345,495,481),(498,215,482),(499,
481,495),(345,501,495),(344,346,503),(432,504,363),(505,431,423),(102,363,
504),(279,507,178),(216,510,279),(507,279,510),(176,178,507),(287,185,513),
(183,513,185),(287,513,269),(216,500,510),(517,269,513),(386,269,517),(519,
177,509),(522,508,512),(522,520,508),(519,525,177),(527,200,175),(514,182,
528),(529,181,158),(515,531,516),(514,528,532),(496,510,500),(497,524,511),
(379,386,517),(518,535,381),(537,516,531),(518,539,535),(497,540,524),(541,
495,501),(536,382,380),(390,543,394),(389,546,544),(547,388,391),(276,394,
543),(543,549,276),(550,545,552),(553,544,546),(555,290,549),(551,558,556),
(559,291,557),(293,276,549),(290,293,549),(550,552,562),(551,563,558),(440,
450,564),(567,441,566),(440,452,450),(437,439,569),(449,571,565),(567,566,
572),(559,573,291),(575,479,289),(449,577,571),(472,576,448),(521,348,526),
(521,523,348),(201,526,348),(530,371,533),(371,530,157),(538,533,371),(542,
348,523),(534,538,371),(502,348,542),(371,383,534),(548,393,375),(548,375,
554),(101,506,115),(422,115,506),(375,123,560),(135,560,123),(554,375,561),
(560,561,375),(468,436,570),(568,570,436),(468,570,474),(478,135,491),(488,
478,491),(560,135,574),(478,574,135),(494,478,488),(578,474,570),(494,476,
478)),());
#46=COORDINATES_LIST('',218,((-0.00203192925453186,-0.00275499987602234,
0.00160000002384186),(-0.00203192925453186,-0.00275499987602234,0.0106000003814697),
(-0.00203192925453186,-0.00115399992465973,0.00160000002384186),(-0.00203192925453186,
-0.00115399992465973,0.0106000003814697),(-0.000864929378032684,-0.00863799953460693,
0.0238549995422364),(-0.000864929378032684,-0.00863799953460693,0.0254549999237061),
(-0.000864929378032684,-0.00703800010681152,0.0238549995422364),(-0.000864929378032684,
-0.00703800010681152,0.0254549999237061),(0.000742070615291596,-0.0133870000839233,
0.000800000011920929),(0.000742070615291596,-0.0133870000839233,0.00377099990844727),
(0.000742070615291596,-0.0133870000839233,0.0215109996795655),(0.000742070615291596,
-0.0133870000839233,0.0246550006866455),(0.000742070615291596,-0.0126490001678467,
0.00117400002479553),(0.000742070615291596,-0.0126490001678467,0.00377099990844727),
(0.000742070615291596,-0.0126490001678467,0.0215109996795655),(0.000742070615291596,
-0.0126490001678467,0.0242810001373291),(0.000742070615291596,-0.0125869998931885,
4.58277858749519E-18),(0.000742070615291596,-0.0125869998931885,0.0254549999237061),
(0.000742070615291596,-0.0122119998931885,0.000737999975681305),(0.000742070615291596,
-0.0122119998931885,0.0247169990539551),(0.000742070615291596,-0.01028600025177,
4.58277858749519E-18),(0.000742070615291596,-0.01028600025177,0.000737999975681305),
(0.000742070615291596,-0.00863799953460693,0.0247169990539551),(0.000742070615291596,
-0.00863799953460693,0.0254549999237061),(0.000742070615291596,-0.00703800010681152,
0.0247169990539551),(0.000742070615291596,-0.00703800010681152,0.0254549999237061),
(0.000742070615291596,-0.00275399994850159,0.0247169990539551),(0.000742070615291596,
-0.00231699991226196,0.0216359996795655),(0.000742070615291596,-0.00231699991226196,
0.0242810001373291),(0.000742070615291596,-0.00195499992370606,0.0254549999237061),
(0.000742070615291596,-0.00115399992465973,0.0216359996795655),(0.000742070615291596,
-0.00115399992465973,0.0246550006866455),(0.000742070615291596,-0.00102899992465973,
4.58277858749519E-18),(0.000742070615291596,-0.00102899992465973,0.000737999975681305),
(0.000742070615291596,-0.000999999940395355,4.58277858749519E-18),(0.000742070615291596,
-0.000999999940395355,0.000737999975681305),(0.00234207057952881,-0.0126490001678467,
0.00117400002479553),(0.00234207057952881,-0.0126490001678467,0.00377099990844727),
(0.00234207057952881,-0.0126490001678467,0.0215109996795655),(0.00234207057952881,
-0.0126490001678467,0.0242810001373291),(0.00234207057952881,-0.0122119998931885,
0.000737999975681305),(0.00234207057952881,-0.0122119998931885,0.0247169990539551),
(0.00234207057952881,-0.01178600025177,0.00160000002384186),(0.00234207057952881,
-0.01178600025177,0.00377099990844727),(0.00234207057952881,-0.01178600025177,
0.0215109996795655),(0.00234207057952881,-0.01178600025177,0.0238549995422364),
(0.00234207057952881,-0.01028600025177,0.000737999975681305),(0.00234207057952881,
-0.01028600025177,0.00160000002384186),(0.00234207057952881,-0.00863799953460693,
0.0238549995422364),(0.00234207057952881,-0.00863799953460693,0.0247169990539551),
(0.00234207057952881,-0.00703800010681152,0.0238549995422364),(0.00234207057952881,
-0.00703800010681152,0.0247169990539551),(0.00234207057952881,-0.00657499980926514,
4.58277858749519E-18),(0.00234207057952881,-0.00657499980926514,0.00817800045013428),
(0.00234207057952881,-0.00468499994277954,4.58277858749519E-18),(0.00234207057952881,
-0.00468499994277954,0.00817800045013428),(0.00234207057952881,-0.00360500001907349,
0.0172250003814698),(0.00234207057952881,-0.00360500001907349,0.0238549995422364),
(0.00234207057952881,-0.00275499987602234,4.58277858749519E-18),(0.00234207057952881,
-0.00275499987602234,0.00160000002384186),(0.00234207057952881,-0.00275499987602234,
0.0150740003585816),(0.00234207057952881,-0.00275499987602234,0.0172250003814698),
(0.00234207057952881,-0.00275399994850159,0.0247169990539551),(0.00234207057952881,
-0.00231699991226196,0.0216359996795655),(0.00234207057952881,-0.00231699991226196,
0.0242810001373291),(0.00234207057952881,-0.00195499992370606,0.0142740001678467),
(0.00234207057952881,-0.00115399992465973,0.00160000002384186),(0.00234207057952881,
-0.00115399992465973,0.0158739995956421),(0.00234207057952881,-0.00115399992465973,
0.0216359996795655),(0.00234207057952881,-0.00102899992465973,4.58277858749519E-18),
(0.00234207057952881,-0.00102899992465973,0.000737999975681305),(0.00234207057952881,
-0.000999999940395355,0.000737999975681305),(0.00234207057952881,-0.000999999940395355,
0.00160000002384186),(0.00234207057952881,-0.000999999940395355,0.0142740001678467),
(0.00234207057952881,-0.000999999940395355,0.0158739995956421),(0.00552207040786743,
-0.01028600025177,4.58277858749519E-18),(0.00552207040786743,-0.01028600025177,
0.00160000002384186),(0.00552207040786743,-0.00657499980926514,4.58277858749519E-18),
(0.00552207040786743,-0.00657499980926514,0.00160000002384186),(0.00572907066345215,
-0.00659100008010864,0.00160000002384186),(0.00584107065200806,-0.00275499987602234,
0.0106000003814697),(0.00584107065200806,-0.00275499987602234,0.0150740003585816),
(0.00584107065200806,-0.00195499992370606,0.0142740001678467),(0.00584107065200806,
-0.00115399992465973,0.0106000003814697),(0.00584107065200806,-0.000999999940395355,
0.0106000003814697),(0.00584107065200806,-0.000999999940395355,0.0142740001678467),
(0.00599707078933716,-0.010201000213623,4.58277858749519E-18),(0.00599707078933716,
-0.010201000213623,0.00160000002384186),(0.00599907064437866,-0.00665499973297119,
0.00160000002384186),(0.00636907052993774,-0.0100220003128052,0.00160000002384186),
(0.00636907052993774,-0.00683899974822998,4.58277858749519E-18),(0.00647507047653198,
-0.00993400001525879,4.58277858749519E-18),(0.0064800705909729,-0.0069229998588562,
0.00160000002384186),(0.00658207082748413,-0.00701599979400635,4.58277858749519E-18),
(0.00664107084274292,-0.00115399992465973,0.0158739995956421),(0.00664107084274292,
-0.000999999940395355,0.0158739995956421),(0.00667507076263428,-0.00711800003051758,
0.00160000002384186),(0.00675807046890259,-0.00963300037384033,4.58277858749519E-18),
(0.00675807046890259,-0.00963300037384033,0.00160000002384186),(0.00684107065200806,
-0.00115399992465973,0.00160000002384186),(0.00684107065200806,-0.00115399992465973,
0.0106000003814697),(0.00684107065200806,-0.000999999940395355,0.00160000002384186),
(0.00684107065200806,-0.000999999940395355,0.0106000003814697),(0.00689307069778442,
-0.00939099979400635,0.00160000002384186),(0.00689307069778442,-0.00746999979019165,
4.58277858749519E-18),(0.00692907047271729,-0.00929399967193603,4.58277858749519E-18),
(0.00696507072448731,-0.00766499996185303,0.00160000002384186),(0.00699707078933716,
-0.00779999971389771,0.00160000002384186),(0.00701607084274292,-0.00892399978637695,
4.58277858749519E-18),(0.00701607084274292,-0.00892399978637695,0.00160000002384186),
(0.00701607084274292,-0.008371000289917,4.58277858749519E-18),(0.00701607084274292,
-0.00793699979782105,0.00160000002384186),(0.00744107055664062,-0.00115399992465973,
0.0150740003585816),(0.00744107055664062,-0.000999999940395355,0.0121999998092651),
(0.00744107055664063,-0.00115399992465973,0.0121999998092651),(0.00744107055664063,
-0.000999999940395355,0.0150740003585816),(0.00748407077789307,-0.00468499994277954,
4.58277858749519E-18),(0.00748407077789307,-0.00468499994277954,0.00160000002384186),
(0.00748407077789307,-0.00275499987602234,4.58277858749519E-18),(0.00748407077789307,
-0.00275499987602234,0.00160000002384186),(0.00758807039260864,-0.00466499996185303,
0.000800000011920929),(0.00764107084274292,-0.00195499992370606,4.58277858749519E-18),
(0.00764107084274292,-0.00115399992465973,0.0121999998092651),(0.00764107084274292,
-0.000999999940395355,4.58277858749519E-18),(0.00764107084274292,-0.000999999940395355,
0.0121999998092651),(0.00764407062530518,-0.00279699993133545,0.00160000002384186),
(0.00765907049179077,-0.00280200004577637,4.58277858749519E-18),(0.00768107080459595,
-0.00461600017547607,0.00160000002384186),(0.00773107051849365,-0.00458199977874756,
4.58277858749519E-18),(0.00773107051849365,-0.00458199977874756,0.000800000011920929),
(0.00777007055282593,-0.00290499997138977,0.00160000002384186),(0.00780007076263428,
-0.00448199987411499,0.00160000002384186),(0.00780007076263428,-0.00295700001716614,
4.58277858749519E-18),(0.00783407068252563,-0.00433500003814698,0.00160000002384186),
(0.00783407068252564,-0.00433500003814698,4.58277858749519E-18),(0.00783407068252564,
-0.00310500001907349,4.58277858749519E-18),(0.00783407068252564,-0.00310500001907349,
0.00160000002384186),(0.00844107055664062,-0.00115399992465973,0.000800000011920929),
(0.00844107055664062,-0.00115399992465973,0.0113999996185303),(0.00844107055664062,
-0.000999999940395355,0.000800000011920929),(0.00844107055664062,-0.000999999940395355,
0.0113999996185303),(0.00869907093048096,-0.01178600025177,0.0238549995422364),
(0.00869907093048096,-0.00360500001907349,0.0238549995422364),(0.00929407024383545,
-0.01178600025177,0.00160000002384186),(0.00929407024383545,-0.00657499980926514,
0.00160000002384186),(0.00937807083129883,-0.01178600025177,0.0237740001678467),
(0.00937807083129883,-0.00360500001907349,0.0237740001678467),(0.00947407054901123,
-0.01178600025177,0.00160699999332428),(0.0094950704574585,-0.00275499987602234,
0.00161899995803833),(0.00956307029724121,-0.00468499994277954,0.00161699998378753),
(0.00969607067108154,-0.00918099975585938,0.00163900005817414),(0.00984707069396973,
-0.00360500001907349,0.0236389999389648),(0.0098720703125,-0.01178600025177,
0.00167499995231629),(0.00998007106781006,-0.01178600025177,0.0235790004730225),
(0.0100030708312988,-0.00468499994277954,0.00170700001716614),(0.0100880708694458,
-0.00275499987602234,0.00173699998855591),(0.010323070526123,-0.0133870000839233,
0.0246550006866455),(0.010323070526123,-0.00115399992465973,0.0246550006866455),
(0.0103370704650879,-0.00657499980926514,0.00183800005912781),(0.0103750705718994,
-0.00468499994277954,0.00186199998855591),(0.0104170703887939,-0.00918099975585938,
0.00187999999523163),(0.0104450702667236,-0.01178600025177,0.0233239994049073),
(0.0104960708618164,-0.00275499987602234,0.00192200005054474),(0.0105720710754394,
-0.01178600025177,0.00197000002861023),(0.0105970706939697,-0.00360500001907349,
0.0232059993743896),(0.0106210708618164,-0.0133870000839233,0.000800000011920929),
(0.0106210708618164,-0.00115399992465973,0.000800000011920929),(0.010654070854187,
-0.0125869998931885,0.0254549999237061),(0.010654070854187,-0.00195499992370606,
0.0254549999237061),(0.0109290704727173,-0.00657499980926514,0.00224200010299683),
(0.010952070236206,-0.0125869998931885,4.58277858749519E-18),(0.010952070236206,
-0.00195499992370606,4.58277858749519E-18),(0.010993070602417,-0.00468499994277954,
0.00230599999427796),(0.010993070602417,-0.00275499987602234,0.00230599999427796),
(0.0110450706481934,-0.00360500001907349,0.0227810001373291),(0.0110570707321167,
-0.01178600025177,0.00236899995803833),(0.0111100702285767,-0.00918099975585938,
0.00244199991226197),(0.0111150703430176,-0.00657499980926514,0.00243700003623962),
(0.0111780710220337,-0.0133870000839233,0.00377099990844727),(0.0111780710220337,
-0.0133870000839233,0.0215109996795655),(0.0111780710220337,-0.01178600025177,
0.00377099990844727),(0.0111780710220337,-0.01178600025177,0.0215109996795655),
(0.0112270708084106,-0.00275499987602234,0.00257800006866455),(0.011323070526123,
-0.01178600025177,0.00273000001907349),(0.0113430709838867,-0.01178600025177,
0.0223570003509521),(0.0113760709762573,-0.00657499980926514,0.00280299997329712),
(0.0114180707931519,-0.00918099975585938,0.00288199996948242),(0.0114180707931519,
-0.00468499994277954,0.00288199996948242),(0.0114240703582764,-0.00769600009918213,
0.0221889991760254),(0.0115050706863403,-0.00360500001907349,0.0220200004577637),
(0.0115620708465576,-0.00275499987602234,0.00321099996566773),(0.0116150703430176,
-0.01178600025177,0.00338299989700318),(0.0116150703430176,-0.00657499980926514,
0.00338299989700318),(0.011618070602417,-0.01178600025177,0.0216660003662109),
(0.0116410703659058,-0.00769600009918213,0.0215750007629394),(0.0116460704803467,
-0.00360500001907349,0.0215289993286133),(0.0116550703048706,-0.00918099975585938,
0.00355800008773804),(0.0116550703048706,-0.00468499994277954,0.00355800008773804),
(0.0116550703048706,-0.00275499987602234,0.00355800008773804),(0.0116820707321167,
-0.00769600009918213,0.0212999992370606),(0.011698070526123,-0.01178600025177,
0.00400500011444092),(0.011698070526123,-0.01178600025177,0.0210230007171631),
(0.011698070526123,-0.00657499980926514,0.00400500011444092),(0.011698070526123,
-0.00657499980926514,0.00817800045013428),(0.011698070526123,-0.00468499994277954,
0.00400500011444092),(0.011698070526123,-0.00468499994277954,0.00817800045013428),
(0.011698070526123,-0.00360500001907349,0.0172250003814698),(0.011698070526123,
-0.00360500001907349,0.0210230007171631),(0.011698070526123,-0.00275499987602234,
0.00400500011444092),(0.011698070526123,-0.00275499987602234,0.0172250003814698),
(0.0124980707168579,-0.0133870000839233,0.00267700004577637),(0.0124980707168579,
-0.0133870000839233,0.0224790000915528),(0.0124980707168579,-0.00115399992465973,
0.00267700004577637),(0.0124980707168579,-0.00115399992465973,0.0224790000915528),
(0.0132980709075928,-0.0125869998931885,0.00234599995613098),(0.0132980709075928,
-0.0125869998931885,0.0228110008239746),(0.0132980709075928,-0.00195499992370606,
0.00234599995613098),(0.0132980709075928,-0.00195499992370606,0.0228110008239746)));
#47=COORDINATES_LIST('',227,((-0.009,-0.0125869998931885,0.00234599995613098),
(-0.009,-0.0125869998931885,0.0228110008239746),(-0.009,-0.00195499992370606,
0.00234599995613098),(-0.009,-0.00195499992370606,0.0228110008239746),(-0.00819999980926514,
-0.0133870000839233,0.00267700004577637),(-0.00819999980926514,-0.0133870000839233,
0.0224790000915528),(-0.00819999980926514,-0.00115399992465973,0.00267700004577637),
(-0.00819999980926514,-0.00115399992465973,0.0224790000915528),(-0.00739999961853028,
-0.00657499980926514,0.00400500011444092),(-0.00739999961853027,-0.01178600025177,
0.00400500011444092),(-0.00739999961853027,-0.01178600025177,0.0210230007171631),
(-0.00739999961853027,-0.00657499980926514,0.00817800045013428),(-0.00739999961853027,
-0.00468499994277954,0.00400500011444092),(-0.00739999961853027,-0.00468499994277954,
0.00817800045013428),(-0.00739999961853027,-0.00360500001907349,0.0172250003814698),
(-0.00739999961853027,-0.00360500001907349,0.0210230007171631),(-0.00739999961853027,
-0.00275499987602234,0.00400500011444092),(-0.00739999961853027,-0.00275499987602234,
0.0172250003814698),(-0.00737599992752075,-0.00918099975585938,0.00366300010681152),
(-0.00735999965667725,-0.00468499994277954,0.00357800006866455),(-0.00735999965667725,
-0.00275499987602234,0.00357800006866455),(-0.00734499979019165,-0.00918099975585938,
0.00349399995803833),(-0.00731899976730347,-0.01178600025177,0.0216900005340576),
(-0.00731899976730347,-0.00360500001907349,0.0216900005340576),(-0.00727600002288818,
-0.01178600025177,0.00324600005149842),(-0.00727600002288818,-0.00918099975585938,
0.00324600005149842),(-0.0072669997215271,-0.00769600009918213,0.021875),
(-0.00723899984359741,-0.00360500001907349,0.0219669990539551),(-0.00723099994659424,
-0.00657499980926514,0.0031710000038147),(-0.00716799974441528,-0.01178600025177,
0.0221459999084473),(-0.00714400005340576,-0.00918099975585938,0.00292899990081787),
(-0.00714400005340576,-0.00468499994277954,0.00292899990081787),(-0.00714400005340576,
-0.00275499987602234,0.00292899990081787),(-0.00710599994659424,-0.01178600025177,
0.00285199999809265),(-0.00703900003433228,-0.00360500001907349,0.0224039993286133),
(-0.00703399991989136,-0.00769600009918213,0.0224009990692139),(-0.00701799964904785,
-0.00657499980926514,0.00270499992370605),(-0.0069399995803833,-0.01178600025177,
0.0225690002441407),(-0.00688800001144409,-0.00360500001907349,0.0226499996185303),
(-0.00687999963760376,-0.0133870000839233,0.00377099990844727),(-0.00687999963760376,
-0.0133870000839233,0.0215109996795655),(-0.00687999963760376,-0.01178600025177,
0.00377099990844727),(-0.00687999963760376,-0.01178600025177,0.0215109996795655),
(-0.00686699962615967,-0.01178600025177,0.00249699997901917),(-0.00686199998855591,
-0.00918099975585938,0.00250099992752075),(-0.00677199983596802,-0.01178600025177,
0.02280299949646),(-0.00675399971008301,-0.00657499980926514,0.00236700010299683),
(-0.00675399971008301,-0.00468499994277954,0.00236700010299683),(-0.00675399971008301,
-0.00275499987602234,0.00236700010299683),(-0.00669599962234497,-0.01178600025177,
0.00230399990081787),(-0.00665399980545044,-0.0125869998931885,4.58277858749519E-18),
(-0.00665399980545044,-0.00195499992370606,4.58277858749519E-18),(-0.0065789999961853,
-0.00360500001907349,0.0230170001983643),(-0.00657399988174438,-0.00769600009918213,
0.0230130004882813),(-0.00656999969482422,-0.00657499980926514,0.00218700003623963),
(-0.00650299978256226,-0.00468499994277954,0.0021340000629425),(-0.00650299978256226,
-0.00275499987602234,0.0021340000629425),(-0.00643899965286255,-0.01178600025177,
0.0231490001678467),(-0.00639899969100952,-0.00918099975585938,0.00205800008773804),
(-0.00636699962615967,-0.00360500001907349,0.023212999343872),(-0.00636599969863892,
-0.01178600025177,0.00203099989891052),(-0.00635599994659424,-0.0125869998931885,
0.0254549999237061),(-0.00635599994659424,-0.00195499992370606,0.0254549999237061),
(-0.00632299995422363,-0.0133870000839233,0.000800000011920929),(-0.00632299995422363,
-0.00115399992465973,0.000800000011920929),(-0.00621399974822998,-0.01178600025177,
0.023329999923706),(-0.00614799976348877,-0.01178600025177,0.00189400005340576),
(-0.00614799976348877,-0.00275499987602234,0.00189400005340576),(-0.0060319995880127,
-0.00468499994277954,0.00183899998664856),(-0.00602499961853027,-0.0133870000839233,
0.0246550006866455),(-0.00602499961853027,-0.00115399992465973,0.0246550006866455),
(-0.00596999979019165,-0.00360500001907349,0.0234850006103515),(-0.0059670000076294,
-0.00769600009918213,0.0234790000915528),(-0.00591499996185303,-0.00657499980926514,
0.00178400003910065),(-0.00583599996566772,-0.01178600025177,0.0017519999742508),
(-0.00579999971389771,-0.01178600025177,0.0235739994049073),(-0.00571399974822998,
-0.00360500001907349,0.0236159992218018),(-0.0056729998588562,-0.00468499994277954,
0.00169700002670288),(-0.0056729998588562,-0.00275499987602234,0.00169700002670288),
(-0.00553499984741211,-0.01178600025177,0.0236879997253418),(-0.0054210000038147,
-0.00657499980926514,0.00164600002765656),(-0.00533799982070923,-0.01178600025177,
0.00162399995326996),(-0.00525899982452393,-0.01178600025177,0.0237719993591308),
(-0.00525899982452393,-0.00360500001907349,0.0237719993591308),(-0.00525699996948242,
-0.00769600009918213,0.0237649993896484),(-0.0052519998550415,-0.00468499994277954,
0.00161500000953674),(-0.00512399959564209,-0.00275499987602234,0.00160800004005432),
(-0.00499599981307983,-0.01178600025177,0.00160000002384186),(-0.00499599981307983,
-0.00657499980926514,0.00160000002384186),(-0.00497599983215332,-0.00360500001907349,
0.0238299999237061),(-0.00478499984741211,-0.01178600025177,0.0238509998321533),
(-0.00468899965286255,-0.00769600009918213,0.0238549995422364),(-0.00440100002288819,
-0.00360500001907349,0.0238549995422364),(-0.00428699970245361,-0.00876299953460693,
0.0238549995422364),(-0.00428699970245361,-0.00876299953460693,0.0254549999237061),
(-0.00428699970245361,-0.00691300010681152,0.0238549995422364),(-0.00428699970245361,
-0.00691300010681152,0.0254549999237061),(-0.00416599988937378,-0.00433500003814698,
4.58277858749519E-18),(-0.00416599988937378,-0.00433500003814698,0.00160000002384186),
(-0.00416599988937378,-0.00310500001907349,4.58277858749519E-18),(-0.00416599988937378,
-0.00310500001907349,0.00160000002384186),(-0.00416099977493286,-0.00439599990844726,
0.00160000002384186),(-0.00413199996948242,-0.00448199987411499,4.58277858749519E-18),
(-0.00413199996948242,-0.00295700001716614,4.58277858749519E-18),(-0.00410199975967407,
-0.00290499997138977,0.00160000002384186),(-0.00407899999618531,-0.000999999940395355,
0.000800000011920929),(-0.0040789999961853,-0.00115399992465973,0.000800000011920929),
(-0.0040789999961853,-0.00115399992465973,0.0113999996185303),(-0.0040789999961853,
-0.000999999940395355,0.0113999996185303),(-0.00406199979782104,-0.00458199977874756,
0.00160000002384186),(-0.00401599979400635,-0.00281900000572204,0.00160000002384186),
(-0.00401599979400634,-0.00281900000572204,4.58277858749519E-18),(-0.00401300001144409,
-0.00461600017547607,4.58277858749519E-18),(-0.00390599989891053,-0.00467199993133545,
0.000800000011920929),(-0.00381599974632263,-0.00468499994277954,4.58277858749519E-18),
(-0.00381599974632263,-0.00468499994277954,0.00160000002384186),(-0.00381599974632263,
-0.00275499987602234,4.58277858749519E-18),(-0.00381599974632263,-0.00275499987602234,
0.00160000002384186),(-0.00327899980545044,-0.00195499992370606,4.58277858749519E-18),
(-0.00327899980545044,-0.00115399992465973,0.0121999998092651),(-0.00327899980545044,
-0.000999999940395355,4.58277858749519E-18),(-0.00327899980545044,-0.000999999940395355,
0.0121999998092651),(-0.00307899975776673,-0.00115399992465973,0.0121999998092651),
(-0.00307899975776673,-0.00115399992465973,0.0150740003585816),(-0.00307899975776673,
-0.000999999940395355,0.0121999998092651),(-0.00307899975776673,-0.000999999940395355,
0.0150740003585816),(-0.00273799991607666,-0.00807600021362305,4.58277858749519E-18),
(-0.00273499989509582,-0.00885499954223633,4.58277858749519E-18),(-0.00273499989509582,
-0.00885499954223633,0.00160000002384186),(-0.00273199987411499,-0.00793699979782105,
0.00160000002384186),(-0.0026969997882843,-0.00773299980163574,0.00160000002384186),
(-0.00269099974632263,-0.00773399972915649,4.58277858749519E-18),(-0.0026089997291565,
-0.00939099979400635,4.58277858749519E-18),(-0.0026089997291565,-0.00939099979400635,
0.00160000002384186),(-0.00258099985122681,-0.00740700006484985,4.58277858749519E-18),
(-0.00258099985122681,-0.00740700006484985,0.00160000002384186),(-0.00247899985313415,
-0.00275499987602234,0.00160000002384186),(-0.00247899985313415,-0.00275499987602234,
0.0106000003814697),(-0.00247899985313415,-0.000999999940395355,0.00160000002384186),
(-0.00247899985313415,-0.000999999940395355,0.0106000003814697),(-0.00239099979400635,
-0.00711800003051758,4.58277858749519E-18),(-0.00239099979400635,-0.00711800003051758,
0.00160000002384186),(-0.0022979998588562,-0.0098459997177124,4.58277858749519E-18),
(-0.0022979998588562,-0.0098459997177124,0.00160000002384186),(-0.00227899980545044,
-0.00115399992465973,0.0158739995956421),(-0.00227899980545044,-0.000999999940395355,
0.0158739995956421),(-0.0020849997997284,-0.0100220003128052,0.00160000002384186),
(-0.00196699976921081,-0.00676599979400635,0.00160000002384186),(-0.00184299981594085,
-0.0101569995880127,4.58277858749519E-18),(-0.00171399986743927,-0.0102069997787476,
0.00160000002384186),(-0.00171399986743927,-0.00665499973297119,0.00160000002384186),
(-0.00161399984359741,-0.00662799978256226,4.58277858749519E-18),(-0.00147999978065491,
-0.00275499987602234,0.0150740003585816),(-0.00147999978065491,-0.000999999940395355,
0.0142740001678467),(-0.00147999978065491,-0.00275499987602234,0.0106000003814697),
(-0.00147999978065491,-0.00195499992370606,0.0142740001678467),(-0.00147999978065491,
-0.000999999940395355,0.0106000003814697),(-0.00123799979686737,-0.01028600025177,
4.58277858749519E-18),(-0.00123799979686737,-0.01028600025177,0.00160000002384186),
(-0.00123799979686737,-0.00657499980926514,4.58277858749519E-18),(-0.00123799979686737,
-0.00657499980926514,0.00160000002384186),(0.000420000195503235,-0.0133870000839233,
0.000800000011920929),(0.000420000195503235,-0.0133870000839233,0.00377099990844727),
(0.000420000195503235,-0.0133870000839233,0.0215109996795655),(0.000420000195503235,
-0.0133870000839233,0.0246550006866455),(0.000420000195503235,-0.0125869998931885,
4.58277858749519E-18),(0.000420000195503235,-0.0125869998931885,0.0254549999237061),
(0.000420000195503235,-0.0125240001678467,0.00122599995136261),(0.000420000195503235,
-0.0125240001678467,0.00377099990844727),(0.000420000195503235,-0.0125240001678467,
0.0215109996795655),(0.000420000195503235,-0.0125240001678467,0.0242290000915528),
(0.000420000195503235,-0.01216100025177,0.000862999975681305),(0.000420000195503235,
-0.01216100025177,0.024591999053955),(0.000420000195503235,-0.01028600025177,
4.58277858749519E-18),(0.000420000195503235,-0.01028600025177,0.000862999975681305),
(0.000420000195503235,-0.00876299953460693,0.0245919990539551),(0.000420000195503235,
-0.00876299953460693,0.0254549999237061),(0.000420000195503235,-0.00691300010681152,
0.0245919990539551),(0.000420000195503235,-0.00691300010681152,0.0254549999237061),
(0.000420000195503235,-0.00280599999427796,0.0245919990539551),(0.000420000195503235,
-0.00244199991226197,0.0215109996795655),(0.000420000195503235,-0.00244199991226197,
0.0242290000915528),(0.000420000195503235,-0.00195499992370606,0.0254549999237061),
(0.000420000195503235,-0.00115399992465973,4.58277858749519E-18),(0.000420000195503235,
-0.00115399992465973,0.000862999975681305),(0.000420000195503235,-0.00115399992465973,
0.0215109996795655),(0.000420000195503235,-0.00115399992465973,0.0246550006866455),
(0.000420000195503235,-0.000999999940395355,4.58277858749519E-18),(0.000420000195503235,
-0.000999999940395355,0.000862999975681305),(0.00202000021934509,-0.01178600025177,
0.0215109996795655),(0.00202000021934509,-0.00657499980926514,0.00817800045013428),
(0.00202000021934509,-0.00468499994277954,0.00817800045013428),(0.00202000021934509,
-0.00360500001907349,0.0172250003814698),(0.0020200002193451,-0.0125240001678467,
0.00122599995136261),(0.0020200002193451,-0.0125240001678467,0.00377099990844727),
(0.0020200002193451,-0.0125240001678467,0.0215109996795655),(0.0020200002193451,
-0.0125240001678467,0.0242290000915528),(0.0020200002193451,-0.01216100025177,
0.000862999975681305),(0.0020200002193451,-0.01216100025177,0.0245919990539551),
(0.0020200002193451,-0.01178600025177,0.00160000002384186),(0.0020200002193451,
-0.01178600025177,0.00377099990844727),(0.0020200002193451,-0.01178600025177,
0.0238549995422364),(0.0020200002193451,-0.01028600025177,0.000862999975681305),
(0.0020200002193451,-0.01028600025177,0.00160000002384186),(0.0020200002193451,
-0.00876299953460693,0.0238549995422364),(0.0020200002193451,-0.00876299953460693,
0.0245919990539551),(0.0020200002193451,-0.00691300010681152,0.0238549995422364),
(0.0020200002193451,-0.00691300010681152,0.0245919990539551),(0.0020200002193451,
-0.00657499980926514,4.58277858749519E-18),(0.0020200002193451,-0.00468499994277954,
4.58277858749519E-18),(0.0020200002193451,-0.00360500001907349,0.0238549995422364),
(0.0020200002193451,-0.00280599999427796,0.0245919990539551),(0.0020200002193451,
-0.00275499987602234,4.58277858749519E-18),(0.0020200002193451,-0.00275499987602234,
0.00160000002384186),(0.0020200002193451,-0.00275499987602234,0.0150740003585816),
(0.0020200002193451,-0.00275499987602234,0.0172250003814698),(0.0020200002193451,
-0.00244199991226197,0.0215109996795655),(0.0020200002193451,-0.00244199991226197,
0.0242290000915528),(0.0020200002193451,-0.00195499992370606,0.0142740001678467),
(0.0020200002193451,-0.00115399992465973,4.58277858749519E-18),(0.0020200002193451,
-0.00115399992465973,0.000862999975681305),(0.0020200002193451,-0.00115399992465973,
0.0158739995956421),(0.0020200002193451,-0.00115399992465973,0.0215109996795655),
(0.0020200002193451,-0.000999999940395355,0.000862999975681305),(0.0020200002193451,
-0.000999999940395355,0.00160000002384186),(0.0020200002193451,-0.000999999940395355,
0.0142740001678467),(0.0020200002193451,-0.000999999940395355,0.0158739995956421)));
#48=TESSELLATED_SHELL('Part 1',(#44),$);
#49=TESSELLATED_SHELL('Part 2',(#45),$);
#50=SHAPE_DEFINITION_REPRESENTATION(#74,#52);
#51=SHAPE_DEFINITION_REPRESENTATION(#75,#53);
#52=SHAPE_REPRESENTATION('Part 1',(#54),#64);
#53=SHAPE_REPRESENTATION('Part 2',(#55),#65);
#54=AXIS2_PLACEMENT_3D('',#60,#56,#57);
#55=AXIS2_PLACEMENT_3D('',#61,#58,#59);
#56=DIRECTION('',(0.,0.,1.));
#57=DIRECTION('',(1.,0.,0.));
#58=DIRECTION('',(0.,0.,1.));
#59=DIRECTION('',(1.,0.,0.));
#60=CARTESIAN_POINT('',(0.,0.,0.));
#61=CARTESIAN_POINT('',(0.,0.,0.));
#62=MECHANICAL_DESIGN_GEOMETRIC_PRESENTATION_REPRESENTATION('',(#14,#15),
#64);
#63=MECHANICAL_DESIGN_GEOMETRIC_PRESENTATION_REPRESENTATION('',(#16,#17),
#65);
#64=(
GEOMETRIC_REPRESENTATION_CONTEXT(3)
GLOBAL_UNCERTAINTY_ASSIGNED_CONTEXT((#66))
GLOBAL_UNIT_ASSIGNED_CONTEXT((#72,#70,#68))
REPRESENTATION_CONTEXT('Part 1','TOP_LEVEL_ASSEMBLY_PART')
);
#65=(
GEOMETRIC_REPRESENTATION_CONTEXT(3)
GLOBAL_UNCERTAINTY_ASSIGNED_CONTEXT((#67))
GLOBAL_UNIT_ASSIGNED_CONTEXT((#73,#71,#69))
REPRESENTATION_CONTEXT('Part 2','TOP_LEVEL_ASSEMBLY_PART')
);
#66=UNCERTAINTY_MEASURE_WITH_UNIT(LENGTH_MEASURE(1.E-8),#72,
'DISTANCE_ACCURACY_VALUE','Maximum Tolerance applied to model');
#67=UNCERTAINTY_MEASURE_WITH_UNIT(LENGTH_MEASURE(1.E-8),#73,
'DISTANCE_ACCURACY_VALUE','Maximum Tolerance applied to model');
#68=(
NAMED_UNIT(*)
SI_UNIT($,.STERADIAN.)
SOLID_ANGLE_UNIT()
);
#69=(
NAMED_UNIT(*)
SI_UNIT($,.STERADIAN.)
SOLID_ANGLE_UNIT()
);
#70=(
NAMED_UNIT(*)
PLANE_ANGLE_UNIT()
SI_UNIT($,.RADIAN.)
);
#71=(
NAMED_UNIT(*)
PLANE_ANGLE_UNIT()
SI_UNIT($,.RADIAN.)
);
#72=(
LENGTH_UNIT()
NAMED_UNIT(*)
SI_UNIT($,.METRE.)
);
#73=(
LENGTH_UNIT()
NAMED_UNIT(*)
SI_UNIT($,.METRE.)
);
#74=PRODUCT_DEFINITION_SHAPE('','',#76);
#75=PRODUCT_DEFINITION_SHAPE('','',#77);
#76=PRODUCT_DEFINITION('','',#80,#78);
#77=PRODUCT_DEFINITION('','',#81,#79);
#78=PRODUCT_DEFINITION_CONTEXT('',#92,'design');
#79=PRODUCT_DEFINITION_CONTEXT('',#93,'design');
#80=PRODUCT_DEFINITION_FORMATION_WITH_SPECIFIED_SOURCE('','',#84,
 .NOT_KNOWN.);
#81=PRODUCT_DEFINITION_FORMATION_WITH_SPECIFIED_SOURCE('','',#85,
 .NOT_KNOWN.);
#82=PRODUCT_RELATED_PRODUCT_CATEGORY('','',(#84));
#83=PRODUCT_RELATED_PRODUCT_CATEGORY('','',(#85));
#84=PRODUCT('Part 1','Part 1','Part 1',(#88));
#85=PRODUCT('Part 2','Part 2','Part 2',(#89));
#86=PRODUCT_CATEGORY('','');
#87=PRODUCT_CATEGORY('','');
#88=PRODUCT_CONTEXT('',#92,'mechanical');
#89=PRODUCT_CONTEXT('',#93,'mechanical');
#90=APPLICATION_PROTOCOL_DEFINITION('international standard',
'ap242_managed_model_based_3d_engineering',2020,#92);
#91=APPLICATION_PROTOCOL_DEFINITION('international standard',
'ap242_managed_model_based_3d_engineering',2020,#93);
#92=APPLICATION_CONTEXT('managed model based 3d engineering');
#93=APPLICATION_CONTEXT('managed model based 3d engineering');
ENDSEC;
END-ISO-10303-21;
